<?xml version="1.0" encoding="UTF-8"?>
<svg width="153px" height="159px" viewBox="0 0 153 159" version="1.1" xmlns="http://www.w3.org/2000/svg" xmlns:xlink="http://www.w3.org/1999/xlink">
    <!-- Generator: sketchtool 59.1 (101010) - https://sketch.com -->
    <title>81C0B585-C874-4388-8D0C-3BBD5B71C857</title>
    <desc>Created with sketchtool.</desc>
    <defs>
        <polygon id="path-1" points="0 0.216574356 152.117196 0.216574356 152.117196 45.36 0 45.36"></polygon>
    </defs>
    <g id="Website" stroke="none" stroke-width="1" fill="none" fill-rule="evenodd">
        <g id="AlpineTEC" transform="translate(-182.000000, -4741.000000)">
            <g id="Contact" transform="translate(60.000000, 4662.000000)">
                <g id="_DSC9498-Copy">
                    <g id="AlpineTEC_V" transform="translate(122.000000, 79.000000)">
                        <path d="M76.621902,4.2e-05 L26.157222,95.928462 L41.558202,95.928462 L60.742962,57.117102 L68.021982,69.247962 L78.307782,48.872082 L74.445462,46.922862 L92.442882,30.074142 L76.622322,4.2e-05 L76.621902,4.2e-05 Z M89.261382,54.401802 L85.710702,52.609242 L68.647782,86.409162 L61.446882,74.407662 L50.808702,95.928462 L127.086582,95.928462 L92.445822,30.079602 L89.261382,54.401802 Z" id="Fill-1" fill="#2CC84D"></path>
                        <g id="Group-4" transform="translate(0.000000, 113.200080)">
                            <mask id="mask-2" fill="white">
                                <use xlink:href="#path-1"></use>
                            </mask>
                            <g id="Clip-3"></g>
                            <path d="M113.339016,44.024946 L114.541896,42.088746 C115.539396,42.895566 116.536896,43.232826 117.593196,43.232826 C118.268136,43.232826 118.825476,42.983766 118.825476,42.308826 C118.825476,41.619186 118.297536,41.384406 116.889276,40.944246 C115.260936,40.431006 113.779176,39.829566 113.779176,37.922766 C113.779176,36.000846 115.319316,34.783266 117.680976,34.783266 C119.177436,34.783266 120.409716,35.223426 121.275336,35.883246 L120.160236,37.732086 C119.471016,37.247406 118.605396,36.910566 117.651996,36.910566 C116.889276,36.910566 116.287836,37.130226 116.287836,37.746786 C116.287836,38.347806 116.889276,38.494806 118.282836,38.949246 C119.793576,39.448206 121.290036,40.049646 121.290036,42.161826 C121.290036,44.083746 119.867076,45.360126 117.520116,45.360126 C115.671696,45.360126 114.395316,44.861166 113.339016,44.024946 L113.339016,44.024946 Z M110.505696,43.071126 L110.505696,45.227826 L103.185516,45.227826 L103.185516,34.915566 L110.432616,34.915566 L110.432616,37.086126 L105.650076,37.086126 L105.650076,38.949246 L109.874856,38.949246 L109.874856,41.120646 L105.650076,41.120646 L105.650076,43.071126 L110.505696,43.071126 Z M94.073616,40.328106 L95.261796,40.328106 C96.420996,40.328106 97.183716,39.711966 97.183716,38.744286 C97.183716,37.746786 96.435276,37.057146 95.247096,37.057146 L94.073616,37.057146 L94.073616,40.328106 Z M97.227816,45.227826 L95.349996,42.470106 L95.335296,42.470106 L94.073616,42.470106 L94.073616,45.227826 L91.609056,45.227826 L91.609056,34.915566 L95.452896,34.915566 C98.049336,34.915566 99.750756,36.485106 99.750756,38.744286 C99.750756,40.181946 99.032136,41.311326 97.799856,41.927466 L100.102716,45.227826 L97.227816,45.227826 Z M78.360576,40.694766 L78.360576,34.915566 L80.824716,34.915566 L80.824716,40.885446 C80.824716,42.029946 81.455556,43.159326 83.010816,43.159326 C84.580356,43.159326 85.225476,42.029946 85.225476,40.885446 L85.225476,34.915566 L87.690456,34.915566 L87.690456,40.694766 C87.690456,43.760766 85.827336,45.360126 83.010816,45.360126 C80.223276,45.360126 78.360576,43.760766 78.360576,40.694766 L78.360576,40.694766 Z M75.439056,37.086126 L72.065196,37.086126 L72.065196,45.227826 L69.600636,45.227826 L69.600636,37.086126 L66.241476,37.086126 L66.241476,34.915566 L75.439056,34.915566 L75.439056,37.086126 Z M63.172956,34.915566 L63.172956,45.360126 L61.808796,45.360126 L56.014056,39.154626 L56.014056,45.227826 L53.608296,45.227826 L53.608296,34.812246 L54.972456,34.812246 L60.752496,40.988766 L60.752496,34.915566 L63.172956,34.915566 Z M49.924476,43.071126 L49.924476,45.227826 L42.603876,45.227826 L42.603876,34.915566 L49.850976,34.915566 L49.850976,37.086126 L45.068856,37.086126 L45.068856,38.949246 L49.293636,38.949246 L49.293636,41.120646 L45.068856,41.120646 L45.068856,43.071126 L49.924476,43.071126 Z M39.697896,34.915566 L35.413896,45.227826 L33.873756,45.227826 L29.575476,34.915566 L32.333616,34.915566 L34.123236,39.756066 L34.739376,41.839266 L35.326116,39.741786 L37.027956,34.915566 L39.697896,34.915566 Z M133.471296,11.978526 C133.471296,5.915826 137.949756,0.980406 144.682776,0.980406 C148.948716,0.980406 151.325076,2.594886 152.117196,3.112746 L149.618616,7.683186 C149.253216,7.378266 147.699216,6.311886 145.414416,6.311886 C141.758316,6.311886 139.412616,8.474886 139.412616,11.948286 C139.412616,15.543486 141.788976,17.676246 145.444656,17.676246 C147.729456,17.676246 149.283876,16.518306 149.618616,16.213386 L152.117196,20.783826 C151.325076,21.301266 149.070516,22.946826 144.682776,22.946826 C137.979996,22.946826 133.471296,18.072306 133.471296,11.978526 L133.471296,11.978526 Z M130.546836,17.645586 L130.546836,22.672566 L115.008516,22.672566 L115.008516,1.254246 L130.485936,1.254246 L130.485936,6.311886 L120.767136,6.311886 L120.767136,9.358566 L129.297756,9.358566 L129.297756,14.324646 L120.767136,14.324646 L120.767136,17.645586 L130.546836,17.645586 Z M111.932436,6.373206 L104.986056,6.373206 L104.986056,22.672566 L99.166536,22.672566 L99.166536,6.373206 L92.311716,6.373206 L92.311716,1.254246 L111.932436,1.254246 L111.932436,6.373206 Z M85.091076,13.989486 L89.417076,13.989486 C89.295276,13.106226 88.594716,12.435906 87.254076,12.435906 C86.279256,12.435906 85.456896,12.862206 85.091076,13.989486 L85.091076,13.989486 Z M94.505376,17.036166 L85.121736,17.036166 C85.517376,18.072306 86.461956,18.772866 88.259976,18.772866 C90.301176,18.772866 91.306656,17.889186 91.672056,17.614926 L93.743496,20.966526 C93.103836,21.636426 91.215096,22.946826 87.619896,22.946826 C82.745376,22.946826 79.698696,19.717446 79.698696,15.665286 C79.698696,11.277966 82.867176,8.383746 87.223836,8.383746 C91.793856,8.383746 94.566276,11.521566 94.566276,15.847986 C94.566276,16.366266 94.505376,17.036166 94.505376,17.036166 L94.505376,17.036166 Z M76.774656,14.934066 L76.774656,22.672566 L71.290296,22.672566 L71.290296,16.061346 C71.290296,14.568246 70.437276,13.593426 69.188196,13.593426 C67.969356,13.593426 67.025196,14.416206 67.025196,16.152906 L67.025196,22.672566 L61.540836,22.672566 L61.540836,8.658006 L65.592996,8.658006 L65.745456,10.424946 C66.537576,9.236766 68.152476,8.383746 70.315476,8.383746 C74.093376,8.383746 76.774656,11.003706 76.774656,14.934066 L76.774656,14.934066 Z M52.340316,22.672566 L57.824676,22.672566 L57.824676,8.658006 L52.340316,8.658006 L52.340316,22.672566 Z M51.669996,3.417246 C51.669996,1.528506 53.132856,0.248766 55.021596,0.218526 C56.910336,0.157626 58.434096,1.528506 58.434096,3.417246 C58.434096,5.337066 56.910336,6.647046 55.021596,6.647046 C53.132856,6.647046 51.669996,5.337066 51.669996,3.417246 L51.669996,3.417246 Z M43.810536,15.665286 C43.749216,14.294406 42.865956,13.197786 41.311956,13.197786 C39.819276,13.197786 38.844036,14.324646 38.844036,15.665286 C38.844036,16.975266 39.819276,18.133206 41.311956,18.133206 C42.865956,18.133206 43.871016,16.975266 43.810536,15.665286 L43.810536,15.665286 Z M49.233576,15.665286 C49.233576,19.809006 46.460736,22.946826 42.561036,22.946826 C41.190156,22.946826 40.062876,22.459206 39.148956,21.727986 L39.148956,28.613886 L33.725916,28.613886 L33.725916,8.658006 L37.991016,8.658006 L38.174136,10.028886 C39.240516,9.053646 40.641636,8.383746 42.378336,8.383746 C46.308696,8.383746 49.233576,11.521566 49.233576,15.665286 L49.233576,15.665286 Z M24.525396,22.672566 L29.948436,22.672566 L29.948436,0.919086 L24.525396,0.919086 L24.525396,22.672566 Z M8.835036,14.690046 L13.740216,14.690046 L11.302956,8.871366 L8.835036,14.690046 Z M15.141756,19.077786 L7.433496,19.077786 L5.971476,22.672566 L-8.4e-05,22.672566 L9.627576,1.254246 L13.131216,1.254246 L22.636656,22.672566 L16.604196,22.672566 L15.141756,19.077786 Z" id="Fill-2" fill="#FEFEFE" mask="url(#mask-2)"></path>
                        </g>
                    </g>
                </g>
            </g>
        </g>
    </g>
</svg>