<?xml version="1.0" encoding="UTF-8"?>
<svg width="118px" height="162px" viewBox="0 0 118 162" version="1.1" xmlns="http://www.w3.org/2000/svg" xmlns:xlink="http://www.w3.org/1999/xlink">
    <!-- Generator: sketchtool 59.1 (101010) - https://sketch.com -->
    <title>196B8B42-A5C8-460A-AA39-7054C89CB3E6</title>
    <desc>Created with sketchtool.</desc>
    <defs>
        <polygon id="path-1" points="0 161.65 117.2413 161.65 117.2413 0.40121 0 0.40121"></polygon>
    </defs>
    <g id="Website" stroke="none" stroke-width="1" fill="none" fill-rule="evenodd">
        <g id="AlpineConsolidated-V2" transform="translate(-182.000000, -4195.000000)">
            <g id="Contact" transform="translate(60.000000, 4115.000000)">
                <g id="AlpineCons_V" transform="translate(122.000000, 80.000000)">
                    <path d="M11.989872,114.252418 L0.060102,140.792168 L7.459962,140.792168 L9.272032,136.336458 L18.823162,136.336458 L20.635232,140.792168 L28.109822,140.792168 L16.331102,114.252418 L11.989872,114.252418 Z M14.066412,123.690128 L17.086352,130.900778 L11.007782,130.900778 L14.066412,123.690128 Z" id="Fill-1" fill="#FEFEFE"></path>
                    <polygon id="Fill-2" fill="#FEFEFE" points="30.45009 140.79185 37.17049 140.79185 37.17049 113.83658 30.45009 113.83658"></polygon>
                    <g id="Group-22" transform="translate(0.000000, 0.128790)">
                        <path d="M54.34726,131.980441 C54.27147,130.281261 53.17702,128.922341 51.25153,128.922341 C49.40183,128.922341 48.19396,130.319421 48.19396,131.980441 C48.19396,133.603831 49.40183,135.038011 51.25153,135.038011 C53.17702,135.038011 54.42305,133.603831 54.34726,131.980441 M61.06766,131.980441 C61.06766,137.114551 57.63114,141.002631 52.79913,141.002631 C51.10048,141.002631 49.7034,140.399491 48.57185,139.493191 L48.57185,148.024601 L41.85145,148.024601 L41.85145,123.296921 L47.13661,123.296921 L47.36292,124.996101 C48.68421,123.787701 50.42102,122.957721 52.57282,122.957721 C57.44299,122.957721 61.06766,126.845801 61.06766,131.980441" id="Fill-3" fill="#FEFEFE"></path>
                        <mask id="mask-2" fill="white">
                            <use xlink:href="#path-1"></use>
                        </mask>
                        <g id="Clip-6"></g>
                        <path d="M64.91758,140.66359 L71.71271,140.66359 L71.71271,123.29708 L64.91758,123.29708 L64.91758,140.66359 Z M64.0876,116.80352 C64.0876,114.46304 65.89914,112.87781 68.24015,112.83965 C70.58063,112.76439 72.46743,114.46304 72.46743,116.80352 C72.46743,119.18216 70.58063,120.80555 68.24015,120.80555 C65.89914,120.80555 64.0876,119.18216 64.0876,116.80352 L64.0876,116.80352 Z" id="Fill-5" fill="#FEFEFE" mask="url(#mask-2)"></path>
                        <path d="M95.194519,131.074141 L95.194519,140.663431 L88.399389,140.663431 L88.399389,132.470691 C88.399389,130.620991 87.342039,129.413121 85.794439,129.413121 C84.284469,129.413121 83.114229,130.432311 83.114229,132.584641 L83.114229,140.663431 L76.318569,140.663431 L76.318569,123.296921 L81.338729,123.296921 L81.528469,125.486881 C82.508969,124.014541 84.510249,122.957721 87.190989,122.957721 C91.872479,122.957721 95.194519,126.203971 95.194519,131.074141" id="Fill-7" fill="#FEFEFE" mask="url(#mask-2)"></path>
                        <path d="M105.500528,129.903901 L110.860948,129.903901 C110.709898,128.808921 109.841758,127.977881 108.180738,127.977881 C106.972338,127.977881 105.953148,128.506821 105.500528,129.903901 M117.165828,133.679091 L105.537628,133.679091 C106.028938,134.962221 107.199178,135.831421 109.426238,135.831421 C111.955928,135.831421 113.201428,134.736441 113.655108,134.396711 L116.221898,138.548731 C115.429018,139.379241 113.088538,141.002631 108.633358,141.002631 C102.593478,141.002631 98.818818,137.001661 98.818818,131.980441 C98.818818,126.543701 102.744528,122.957721 108.143108,122.957721 C113.805628,122.957721 117.241088,126.845801 117.241088,132.206751 C117.241088,132.848581 117.165828,133.679091 117.165828,133.679091" id="Fill-8" fill="#FEFEFE" mask="url(#mask-2)"></path>
                        <polygon id="Fill-9" fill="#FEFEFE" mask="url(#mask-2)" points="47.555575 69.447649 54.066095 81.823679 67.502125 56.283509 90.469675 99.942789 112.686745 99.942789 60.321155 0.401369 7.955565 99.942789 31.513005 99.942789"></polygon>
                        <path d="M0,156.987219 C0,154.391809 1.91118,152.338059 4.86911,152.338059 C6.41883,152.338059 7.43908,152.892969 7.8917,153.242239 L6.9483,154.959969 C6.75485,154.830649 6.05737,154.378559 4.95921,154.378559 C3.31939,154.378559 2.2472,155.386089 2.2472,156.987219 C2.2472,158.602129 3.31939,159.609129 4.95921,159.609129 C6.05737,159.609129 6.75485,159.157569 6.9483,159.028249 L7.8917,160.745979 C7.43908,161.094719 6.47077,161.650159 4.86911,161.650159 C1.91118,161.650159 0,159.596409 0,156.987219" id="Fill-10" fill="#FEFEFE" mask="url(#mask-2)"></path>
                        <path d="M17.097694,157.013083 C17.097694,155.489333 16.012784,154.352483 14.527724,154.352483 C13.016694,154.352483 11.919064,155.502053 11.919064,157.013083 C11.919064,158.498673 13.016694,159.648243 14.527724,159.648243 C16.012784,159.648243 17.097694,158.511393 17.097694,157.013083 M9.697304,157.013083 C9.697304,154.365733 11.738334,152.337953 14.527724,152.337953 C17.291674,152.337953 19.318924,154.313793 19.318924,157.013083 C19.318924,159.674213 17.291674,161.650053 14.527724,161.650053 C11.738334,161.650053 9.697304,159.622273 9.697304,157.013083" id="Fill-11" fill="#FEFEFE" mask="url(#mask-2)"></path>
                        <polygon id="Fill-12" fill="#FEFEFE" mask="url(#mask-2)" points="30.553175 152.454288 30.553175 161.650318 29.351665 161.650318 24.250415 156.186548 24.250415 161.533718 22.132005 161.533718 22.132005 152.363658 23.333515 152.363658 28.422045 157.801458 28.422045 152.454288"></polygon>
                        <path d="M33.133798,160.474672 L34.192738,158.769662 C35.070948,159.479862 35.949158,159.777192 36.878778,159.777192 C37.473438,159.777192 37.963688,159.557772 37.963688,158.963112 C37.963688,158.356792 37.498878,158.149562 36.259208,157.762662 C34.825558,157.310042 33.521228,156.780572 33.521228,155.101532 C33.521228,153.409772 34.877498,152.337582 36.956688,152.337582 C38.273738,152.337582 39.358648,152.725542 40.121318,153.306952 L39.139228,154.934052 C38.532378,154.507932 37.770238,154.211132 36.930718,154.211132 C36.259208,154.211132 35.729738,154.404582 35.729738,154.946772 C35.729738,155.476242 36.259208,155.605562 37.486158,156.005712 C38.816458,156.444552 40.134038,156.974552 40.134038,158.834322 C40.134038,160.526612 38.881118,161.650212 36.814648,161.650212 C35.187548,161.650212 34.063948,161.210842 33.133798,160.474672" id="Fill-13" fill="#FEFEFE" mask="url(#mask-2)"></path>
                        <path d="M49.869714,157.013083 C49.869714,155.489333 48.784804,154.352483 47.299744,154.352483 C45.788714,154.352483 44.691084,155.502053 44.691084,157.013083 C44.691084,158.498673 45.788714,159.648243 47.299744,159.648243 C48.784804,159.648243 49.869714,158.511393 49.869714,157.013083 M42.469324,157.013083 C42.469324,154.365733 44.510354,152.337953 47.299744,152.337953 C50.063694,152.337953 52.090944,154.313793 52.090944,157.013083 C52.090944,159.674213 50.063694,161.650053 47.299744,161.650053 C44.510354,161.650053 42.469324,159.622273 42.469324,157.013083" id="Fill-14" fill="#FEFEFE" mask="url(#mask-2)"></path>
                        <polygon id="Fill-15" fill="#FEFEFE" mask="url(#mask-2)" points="61.1938 159.635152 61.1938 161.533612 54.89104 161.533612 54.89104 152.454182 57.06086 152.454182 57.06086 159.635152"></polygon>
                        <polygon id="Fill-16" fill="#FEFEFE" mask="url(#mask-2)" points="63.59417 161.53393 65.76399 161.53393 65.76399 152.4545 63.59417 152.4545"></polygon>
                        <path d="M75.333511,157.013083 C75.333511,155.424673 74.351421,154.365733 72.633691,154.365733 L71.238731,154.365733 L71.238731,159.622273 L72.633691,159.622273 C74.351421,159.622273 75.333511,158.576053 75.333511,157.013083 M77.542021,156.987113 C77.542021,159.712903 75.630841,161.533453 72.763011,161.533453 L69.069441,161.533453 L69.069441,152.454023 L72.763011,152.454023 C75.630841,152.454023 77.542021,154.262383 77.542021,156.987113" id="Fill-17" fill="#FEFEFE" mask="url(#mask-2)"></path>
                        <path d="M82.61481,158.09794 L84.74594,158.09794 L83.67375,155.54122 L82.61481,158.09794 Z M85.43017,159.91955 L81.93058,159.91955 L81.27179,161.5334 L78.97265,161.5334 L83.01549,152.4545 L84.37123,152.4545 L88.37485,161.5334 L86.07624,161.5334 L85.43017,159.91955 Z" id="Fill-18" fill="#FEFEFE" mask="url(#mask-2)"></path>
                        <polygon id="Fill-19" fill="#FEFEFE" mask="url(#mask-2)" points="96.832643 154.36568 93.862523 154.36568 93.862523 161.5334 91.692703 161.5334 91.692703 154.36568 88.735303 154.36568 88.735303 152.4545 96.832643 152.4545"></polygon>
                        <polygon id="Fill-20" fill="#FEFEFE" mask="url(#mask-2)" points="105.703412 159.635152 105.703412 161.533612 99.258612 161.533612 99.258612 152.454182 105.638752 152.454182 105.638752 154.365892 101.428432 154.365892 101.428432 156.005712 105.147972 156.005712 105.147972 157.917422 101.428432 157.917422 101.428432 159.635152"></polygon>
                        <path d="M114.936012,157.013083 C114.936012,155.424673 113.953922,154.365733 112.236192,154.365733 L110.841232,154.365733 L110.841232,159.622273 L112.236192,159.622273 C113.953922,159.622273 114.936012,158.576053 114.936012,157.013083 M117.144522,156.987113 C117.144522,159.712903 115.233342,161.533453 112.365512,161.533453 L108.671942,161.533453 L108.671942,152.454023 L112.365512,152.454023 C115.233342,152.454023 117.144522,154.262383 117.144522,156.987113" id="Fill-21" fill="#FEFEFE" mask="url(#mask-2)"></path>
                    </g>
                </g>
            </g>
        </g>
    </g>
</svg>