<?xml version="1.0" encoding="UTF-8"?>
<svg width="168px" height="60px" viewBox="0 0 168 60" version="1.1" xmlns="http://www.w3.org/2000/svg" xmlns:xlink="http://www.w3.org/1999/xlink">
    <!-- Generator: sketchtool 58 (101010) - https://sketch.com -->
    <title>F4417570-26BF-43BD-A9AF-6B499174E01C</title>
    <desc>Created with sketchtool.</desc>
    <defs>
        <polygon id="path-1" points="0 59.4 167.37468 59.4 167.37468 0.00088 0 0.00088"></polygon>
    </defs>
    <g id="Website" stroke="none" stroke-width="1" fill="none" fill-rule="evenodd">
        <g id="AlpineConsolidated-V2" transform="translate(-60.000000, -30.000000)">
            <g id="AlpineCons_H" transform="translate(60.000000, 30.000000)">
                <polygon id="Fill-1" fill="#131213" points="31.247964 0.439912 0.000484 59.839032 14.057604 59.839032 23.630684 41.641952 27.515444 49.026912 35.532684 33.786632 49.238244 59.839032 62.495444 59.839032"></polygon>
                <path d="M79.18086,22.969276 L84.22678,22.969276 L81.7201,16.982636 L79.18086,22.969276 Z M85.66866,27.481916 L77.73986,27.481916 L76.23506,31.180556 L70.09222,31.180556 L79.99618,9.147556 L83.60022,9.147556 L93.37922,31.180556 L87.17302,31.180556 L85.66866,27.481916 Z" id="Fill-2" fill="#131213"></path>
                <polygon id="Fill-3" fill="#131213" points="95.32116 31.1806 100.90036 31.1806 100.90036 8.80264 95.32116 8.80264"></polygon>
                <g id="Group-22" transform="translate(0.000000, 0.439120)">
                    <path d="M115.16076,23.533048 C115.09784,22.122408 114.1888,20.994248 112.59072,20.994248 C111.05512,20.994248 110.05192,22.154088 110.05192,23.533048 C110.05192,24.880768 111.05512,26.071408 112.59072,26.071408 C114.1888,26.071408 115.22368,24.880768 115.16076,23.533048 M120.73952,23.533048 C120.73952,27.795328 117.887,31.023608 113.87508,31.023608 C112.46532,31.023608 111.30548,30.522448 110.36564,29.770048 L110.36564,36.852728 L104.78644,36.852728 L104.78644,16.324088 L109.17412,16.324088 L109.362,17.734728 C110.45936,16.731528 111.90124,16.042488 113.68764,16.042488 C117.73036,16.042488 120.73952,19.270328 120.73952,23.533048" id="Fill-4" fill="#131213"></path>
                    <mask id="mask-2" fill="white">
                        <use xlink:href="#path-1"></use>
                    </mask>
                    <g id="Clip-7"></g>
                    <path d="M123.93612,30.74148 L129.57692,30.74148 L129.57692,16.324 L123.93612,16.324 L123.93612,30.74148 Z M123.24664,10.93312 C123.24664,8.99008 124.75056,7.67404 126.69448,7.6428 C128.63752,7.57988 130.20392,8.99008 130.20392,10.93312 C130.20392,12.90828 128.63752,14.25556 126.69448,14.25556 C124.75056,14.25556 123.24664,12.90828 123.24664,10.93312 L123.24664,10.93312 Z" id="Fill-6" fill="#131213" mask="url(#mask-2)"></path>
                    <path d="M149.071692,22.781088 L149.071692,30.741568 L143.430012,30.741568 L143.430012,23.940048 C143.430012,22.404448 142.552212,21.401688 141.267852,21.401688 C140.013852,21.401688 139.042332,22.247808 139.042332,24.034648 L139.042332,30.741568 L133.400652,30.741568 L133.400652,16.324088 L137.568772,16.324088 L137.726292,18.142608 C138.540292,16.919848 140.201732,16.042488 142.427252,16.042488 C146.313332,16.042488 149.071692,18.737928 149.071692,22.781088" id="Fill-8" fill="#131213" mask="url(#mask-2)"></path>
                    <path d="M157.627624,21.809568 L162.077344,21.809568 C161.951944,20.900088 161.231224,20.210168 159.852704,20.210168 C158.849064,20.210168 158.003384,20.649288 157.627624,21.809568 M167.312024,24.943248 L157.658424,24.943248 C158.065864,26.008488 159.037384,26.730088 160.886704,26.730088 C162.986824,26.730088 164.020824,25.821048 164.397464,25.539008 L166.527944,28.986408 C165.869704,29.675448 163.926664,31.023608 160.228464,31.023608 C155.214224,31.023608 152.080104,27.701608 152.080104,23.533048 C152.080104,19.019528 155.339624,16.042488 159.821464,16.042488 C164.521984,16.042488 167.374504,19.270328 167.374504,23.720928 C167.374504,24.253768 167.312024,24.943248 167.312024,24.943248" id="Fill-9" fill="#131213" mask="url(#mask-2)"></path>
                    <path d="M70.037968,44.743292 C70.037968,42.609732 71.608768,40.921892 74.040208,40.921892 C75.313568,40.921892 76.151768,41.379052 76.523568,41.665492 L75.748728,43.077012 C75.589448,42.970972 75.016128,42.599172 74.114128,42.599172 C72.765528,42.599172 71.884648,43.427252 71.884648,44.743292 C71.884648,46.070332 72.765528,46.897972 74.114128,46.897972 C75.016128,46.897972 75.589448,46.527052 75.748728,46.421012 L76.523568,47.832532 C76.151768,48.118972 75.355808,48.575252 74.040208,48.575252 C71.608768,48.575252 70.037968,46.887852 70.037968,44.743292" id="Fill-10" fill="#131213" mask="url(#mask-2)"></path>
                    <path d="M84.092184,44.764764 C84.092184,43.512084 83.201184,42.577964 81.979744,42.577964 C80.738064,42.577964 79.835624,43.523084 79.835624,44.764764 C79.835624,45.985324 80.738064,46.930004 81.979744,46.930004 C83.201184,46.930004 84.092184,45.995884 84.092184,44.764764 M78.010504,44.764764 C78.010504,42.588964 79.687784,40.922244 81.979744,40.922244 C84.251904,40.922244 85.918184,42.546284 85.918184,44.764764 C85.918184,46.951564 84.251904,48.575164 81.979744,48.575164 C79.687784,48.575164 78.010504,46.908884 78.010504,44.764764" id="Fill-11" fill="#131213" mask="url(#mask-2)"></path>
                    <polygon id="Fill-12" fill="#131213" mask="url(#mask-2)" points="95.154048 41.0179 95.154048 48.57534 94.167568 48.57534 89.974808 44.08558 89.974808 48.47986 88.233288 48.47986 88.233288 40.94354 89.221088 40.94354 93.402848 45.41218 93.402848 41.0179"></polygon>
                    <path d="M97.278456,47.609276 L98.149216,46.208316 C98.870816,46.792196 99.592856,47.035956 100.356696,47.035956 C100.844656,47.035956 101.248576,46.855556 101.248576,46.367596 C101.248576,45.868636 100.866216,45.698796 99.847176,45.380676 C98.668856,45.008876 97.597456,44.573716 97.597456,43.193876 C97.597456,41.803476 98.711976,40.922156 100.420496,40.922156 C101.503336,40.922156 102.395216,41.240276 103.020896,41.718116 L102.214816,43.055716 C101.715416,42.705476 101.088856,42.461276 100.398936,42.461276 C99.847176,42.461276 99.412456,42.620556 99.412456,43.066276 C99.412456,43.501436 99.847176,43.607476 100.856096,43.936596 C101.949056,44.297836 103.031896,44.732996 103.031896,46.261556 C103.031896,47.651956 102.002296,48.575076 100.303456,48.575076 C98.966296,48.575076 98.042296,48.214276 97.278456,47.609276" id="Fill-13" fill="#131213" mask="url(#mask-2)"></path>
                    <path d="M111.036156,44.764764 C111.036156,43.512084 110.144276,42.577964 108.923716,42.577964 C107.682036,42.577964 106.779596,43.523084 106.779596,44.764764 C106.779596,45.985324 107.682036,46.930004 108.923716,46.930004 C110.144276,46.930004 111.036156,45.995884 111.036156,44.764764 M104.953596,44.764764 C104.953596,42.588964 106.630876,40.922244 108.923716,40.922244 C111.194996,40.922244 112.861276,42.546284 112.861276,44.764764 C112.861276,46.951564 111.194996,48.575164 108.923716,48.575164 C106.630876,48.575164 104.953596,46.908884 104.953596,44.764764" id="Fill-14" fill="#131213" mask="url(#mask-2)"></path>
                    <polygon id="Fill-15" fill="#131213" mask="url(#mask-2)" points="120.346644 46.91962 120.346644 48.47986 115.166524 48.47986 115.166524 41.0179 116.949404 41.0179 116.949404 46.91962"></polygon>
                    <polygon id="Fill-16" fill="#131213" mask="url(#mask-2)" points="122.32132 48.47964 124.10464 48.47964 124.10464 41.01768 122.32132 41.01768"></polygon>
                    <path d="M131.970564,44.764764 C131.970564,43.458844 131.163604,42.588964 129.752524,42.588964 L128.606324,42.588964 L128.606324,46.908884 L129.752524,46.908884 C131.163604,46.908884 131.970564,46.049124 131.970564,44.764764 M133.785564,44.743204 C133.785564,46.983244 132.214764,48.479684 129.858124,48.479684 L126.823004,48.479684 L126.823004,41.017724 L129.858124,41.017724 C132.214764,41.017724 133.785564,42.503604 133.785564,44.743204" id="Fill-17" fill="#131213" mask="url(#mask-2)"></path>
                    <path d="M137.958656,45.65638 L139.709856,45.65638 L138.829416,43.55494 L137.958656,45.65638 Z M140.273056,47.15282 L137.395896,47.15282 L136.855136,48.47986 L134.965336,48.47986 L138.287776,41.0179 L139.402296,41.0179 L142.693056,48.47986 L140.803256,48.47986 L140.273056,47.15282 Z" id="Fill-18" fill="#131213" mask="url(#mask-2)"></path>
                    <polygon id="Fill-19" fill="#131213" mask="url(#mask-2)" points="149.646156 42.588832 147.204596 42.588832 147.204596 48.479992 145.421276 48.479992 145.421276 42.588832 142.991156 42.588832 142.991156 41.018032 149.646156 41.018032"></polygon>
                    <polygon id="Fill-20" fill="#131213" mask="url(#mask-2)" points="156.939684 46.91962 156.939684 48.47986 151.642524 48.47986 151.642524 41.0179 156.886444 41.0179 156.886444 42.5887 153.425844 42.5887 153.425844 43.93686 156.482524 43.93686 156.482524 45.50766 153.425844 45.50766 153.425844 46.91962"></polygon>
                    <path d="M164.529684,44.764764 C164.529684,43.458844 163.722724,42.588964 162.311644,42.588964 L161.165444,42.588964 L161.165444,46.908884 L162.311644,46.908884 C163.722724,46.908884 164.529684,46.049124 164.529684,44.764764 M166.344684,44.743204 C166.344684,46.983244 164.773884,48.479684 162.417244,48.479684 L159.382124,48.479684 L159.382124,41.017724 L162.417244,41.017724 C164.773884,41.017724 166.344684,42.503604 166.344684,44.743204" id="Fill-21" fill="#131213" mask="url(#mask-2)"></path>
                </g>
            </g>
        </g>
    </g>
</svg>