<?xml version="1.0" encoding="UTF-8"?>
<svg width="187px" height="60px" viewBox="0 0 187 60" version="1.1" xmlns="http://www.w3.org/2000/svg" xmlns:xlink="http://www.w3.org/1999/xlink">
    <!-- Generator: sketchtool 58 (101010) - https://sketch.com -->
    <title>B78D21C1-454B-4C25-91E1-5699AABA5E4D</title>
    <desc>Created with sketchtool.</desc>
    <defs>
        <polygon id="path-1" points="0.13797 0.0154886303 126.9023 0.0154886303 126.9023 37.635465 0.13797 37.635465"></polygon>
    </defs>
    <g id="Website" stroke="none" stroke-width="1" fill="none" fill-rule="evenodd">
        <g id="AlpineTEC" transform="translate(-60.000000, -30.000000)">
            <g id="AlpineTEC_H" transform="translate(60.000000, 30.000000)">
                <path d="M31.345965,3.5e-05 L-3.5e-05,59.585785 L9.566165,59.585785 L21.482965,35.477785 L26.003915,43.013285 L32.393165,30.356935 L29.994265,29.145585 L41.172915,18.680585 L31.345965,3.5e-05 Z M39.196815,33.791485 L36.991815,32.678135 L26.392765,53.673235 L21.919765,46.218235 L15.312465,59.585785 L62.691965,59.585785 L41.175365,18.684085 L39.196815,33.791485 Z" id="Fill-1" fill="#2CC84D"></path>
                <g id="Group-4" transform="translate(60.200000, 10.585750)">
                    <mask id="mask-2" fill="white">
                        <use xlink:href="#path-1"></use>
                    </mask>
                    <g id="Clip-3"></g>
                    <path d="M94.58722,36.522815 L95.58962,34.909315 C96.42087,35.581665 97.25212,35.862715 98.13237,35.862715 C98.69482,35.862715 99.15927,35.655165 99.15927,35.092715 C99.15927,34.518015 98.71932,34.322365 97.54577,33.955565 C96.18882,33.527865 94.95402,33.026665 94.95402,31.437665 C94.95402,29.836065 96.23782,28.821415 98.20587,28.821415 C99.45257,28.821415 100.47947,29.188215 101.20082,29.738065 L100.27157,31.278765 C99.69722,30.874865 98.97587,30.594165 98.18137,30.594165 C97.54577,30.594165 97.04457,30.777215 97.04457,31.291015 C97.04457,31.791865 97.54577,31.914365 98.70707,32.293065 C99.96602,32.708865 101.21307,33.210065 101.21307,34.970215 C101.21307,36.571815 100.02727,37.635465 98.07147,37.635465 C96.53112,37.635465 95.46747,37.219665 94.58722,36.522815 L94.58722,36.522815 Z M92.22647,35.727965 L92.22647,37.525215 L86.12597,37.525215 L86.12597,28.931665 L92.16522,28.931665 L92.16522,30.740465 L88.17977,30.740465 L88.17977,32.293065 L91.70077,32.293065 L91.70077,34.102565 L88.17977,34.102565 L88.17977,35.727965 L92.22647,35.727965 Z M78.53307,33.442115 L79.52322,33.442115 C80.48887,33.442115 81.12447,32.928665 81.12447,32.122265 C81.12447,31.291015 80.50112,30.716315 79.51097,30.716315 L78.53307,30.716315 L78.53307,33.442115 Z M81.16122,37.525215 L79.59637,35.227115 L79.58412,35.227115 L78.53307,35.227115 L78.53307,37.525215 L76.47927,37.525215 L76.47927,28.931665 L79.68212,28.931665 C81.84582,28.931665 83.26367,30.239615 83.26367,32.122265 C83.26367,33.320315 82.66482,34.261465 81.63792,34.774915 L83.55697,37.525215 L81.16122,37.525215 Z M65.43852,33.747665 L65.43852,28.931665 L67.49232,28.931665 L67.49232,33.906565 C67.49232,34.860315 68.01802,35.801465 69.31372,35.801465 C70.62167,35.801465 71.15927,34.860315 71.15927,33.906565 L71.15927,28.931665 L73.21342,28.931665 L73.21342,33.747665 C73.21342,36.302665 71.66082,37.635465 69.31372,37.635465 C66.99077,37.635465 65.43852,36.302665 65.43852,33.747665 L65.43852,33.747665 Z M63.00427,30.740465 L60.19237,30.740465 L60.19237,37.525215 L58.13857,37.525215 L58.13857,30.740465 L55.33927,30.740465 L55.33927,28.931665 L63.00427,28.931665 L63.00427,30.740465 Z M52.78217,28.931665 L52.78217,37.635465 L51.64537,37.635465 L46.81677,32.464215 L46.81677,37.525215 L44.81162,37.525215 L44.81162,28.845565 L45.94842,28.845565 L50.76512,33.992665 L50.76512,28.931665 L52.78217,28.931665 Z M41.74177,35.727965 L41.74177,37.525215 L35.64162,37.525215 L35.64162,28.931665 L41.68052,28.931665 L41.68052,30.740465 L37.69542,30.740465 L37.69542,32.293065 L41.21607,32.293065 L41.21607,34.102565 L37.69542,34.102565 L37.69542,35.727965 L41.74177,35.727965 Z M33.21962,28.931665 L29.64997,37.525215 L28.36652,37.525215 L24.78427,28.931665 L27.08272,28.931665 L28.57442,32.965415 L29.08752,34.701415 L29.57647,32.953515 L30.99467,28.931665 L33.21962,28.931665 Z M111.36412,9.817115 C111.36412,4.764865 115.09652,0.652015 120.70737,0.652015 C124.26197,0.652015 126.24227,1.997415 126.90237,2.428965 L124.82022,6.237665 C124.51572,5.983565 123.22107,5.094915 121.31672,5.094915 C118.26997,5.094915 116.31522,6.897415 116.31522,9.791915 C116.31522,12.787915 118.29552,14.565215 121.34192,14.565215 C123.24627,14.565215 124.54127,13.600265 124.82022,13.346165 L126.90237,17.154865 C126.24227,17.586415 124.36347,18.957365 120.70737,18.957365 C115.12172,18.957365 111.36412,14.895265 111.36412,9.817115 L111.36412,9.817115 Z M108.92707,14.539665 L108.92707,18.728815 L95.97882,18.728815 L95.97882,0.880215 L108.87632,0.880215 L108.87632,5.094915 L100.77732,5.094915 L100.77732,7.633815 L107.88617,7.633815 L107.88617,11.772215 L100.77732,11.772215 L100.77732,14.539665 L108.92707,14.539665 Z M93.41507,5.146015 L87.62642,5.146015 L87.62642,18.728815 L82.77682,18.728815 L82.77682,5.146015 L77.06447,5.146015 L77.06447,0.880215 L93.41507,0.880215 L93.41507,5.146015 Z M71.04727,11.492915 L74.65262,11.492915 C74.55112,10.756865 73.96697,10.198265 72.85012,10.198265 C72.03742,10.198265 71.35212,10.553515 71.04727,11.492915 L71.04727,11.492915 Z M78.89252,14.031815 L71.07282,14.031815 C71.40287,14.895265 72.19002,15.479065 73.68802,15.479065 C75.38902,15.479065 76.22692,14.742665 76.53142,14.514115 L78.25797,17.307115 C77.72457,17.865365 76.15062,18.957365 73.15462,18.957365 C69.09252,18.957365 66.55362,16.266215 66.55362,12.889415 C66.55362,9.233315 69.19402,6.821465 72.82457,6.821465 C76.63292,6.821465 78.94327,9.436315 78.94327,13.041665 C78.94327,13.473565 78.89252,14.031815 78.89252,14.031815 L78.89252,14.031815 Z M64.11692,12.280065 L64.11692,18.728815 L59.54697,18.728815 L59.54697,13.219465 C59.54697,11.975215 58.83612,11.162865 57.79487,11.162865 C56.77952,11.162865 55.99237,11.848515 55.99237,13.295765 L55.99237,18.728815 L51.42242,18.728815 L51.42242,7.050015 L54.79887,7.050015 L54.92592,8.522465 C55.58602,7.532315 56.93177,6.821465 58.73427,6.821465 C61.88252,6.821465 64.11692,9.004765 64.11692,12.280065 L64.11692,12.280065 Z M43.75532,18.728815 L48.32527,18.728815 L48.32527,7.050015 L43.75532,7.050015 L43.75532,18.728815 Z M43.19672,2.682715 C43.19672,1.108765 44.41542,0.042665 45.98937,0.017115 C47.56332,-0.033635 48.83312,1.108765 48.83312,2.682715 C48.83312,4.282565 47.56332,5.374215 45.98937,5.374215 C44.41542,5.374215 43.19672,4.282565 43.19672,2.682715 L43.19672,2.682715 Z M36.64682,12.889415 C36.59607,11.747015 35.85967,10.833165 34.56467,10.833165 C33.32077,10.833165 32.50807,11.772215 32.50807,12.889415 C32.50807,13.981065 33.32077,14.946015 34.56467,14.946015 C35.85967,14.946015 36.69757,13.981065 36.64682,12.889415 L36.64682,12.889415 Z M41.16602,12.889415 C41.16602,16.342515 38.85567,18.957365 35.60557,18.957365 C34.46317,18.957365 33.52377,18.551015 32.76217,17.941665 L32.76217,23.679915 L28.24297,23.679915 L28.24297,7.050015 L31.79757,7.050015 L31.94982,8.192415 C32.83847,7.379715 34.00607,6.821465 35.45332,6.821465 C38.72862,6.821465 41.16602,9.436315 41.16602,12.889415 L41.16602,12.889415 Z M20.57587,18.728815 L25.09507,18.728815 L25.09507,0.600915 L20.57587,0.600915 L20.57587,18.728815 Z M7.50092,12.076715 L11.58822,12.076715 L9.55752,7.227815 L7.50092,12.076715 Z M12.75617,15.733165 L6.33297,15.733165 L5.11427,18.728815 L0.13797,18.728815 L8.16102,0.880215 L11.08072,0.880215 L19.00192,18.728815 L13.97487,18.728815 L12.75617,15.733165 Z" id="Fill-2" fill="#131213" mask="url(#mask-2)"></path>
                </g>
            </g>
        </g>
    </g>
</svg>