<?xml version="1.0" encoding="UTF-8"?>
<svg width="39px" height="39px" viewBox="0 0 39 39" version="1.1" xmlns="http://www.w3.org/2000/svg" xmlns:xlink="http://www.w3.org/1999/xlink">
    <!-- Generator: sketchtool 59.1 (101010) - https://sketch.com -->
    <title>36FDDCF3-475B-4DDC-BF05-82F178E3E374</title>
    <desc>Created with sketchtool.</desc>
    <g id="Website" stroke="none" stroke-width="1" fill="none" fill-rule="evenodd">
        <g id="Modal-Leadership" transform="translate(-1300.000000, -101.000000)" fill="#2CC84D">
            <g id="close" transform="translate(1299.000000, 100.000000)">
                <path d="M44.625,19 L-4.125,19 C-5.1612,19 -6,19.8388 -6,20.875 C-6,21.9112 -5.1612,22.75 -4.125,22.75 L44.625,22.75 C45.6612,22.75 46.5,21.9112 46.5,20.875 C46.5,19.8388 45.6612,19 44.625,19" id="Fill-6" transform="translate(20.250000, 20.875000) rotate(45.000000) translate(-20.250000, -20.875000) "></path>
                <path d="M44.625,19 L-4.125,19 C-5.1612,19 -6,19.8388 -6,20.875 C-6,21.9112 -5.1612,22.75 -4.125,22.75 L44.625,22.75 C45.6612,22.75 46.5,21.9112 46.5,20.875 C46.5,19.8388 45.6612,19 44.625,19" id="Fill-6-Copy" transform="translate(20.250000, 20.875000) scale(-1, 1) rotate(45.000000) translate(-20.250000, -20.875000) "></path>
            </g>
        </g>
    </g>
</svg>