<?xml version="1.0" encoding="UTF-8"?>
<svg width="763px" height="496px" viewBox="0 0 763 496" version="1.1" xmlns="http://www.w3.org/2000/svg" xmlns:xlink="http://www.w3.org/1999/xlink">
    <!-- Generator: sketchtool 59.1 (101010) - https://sketch.com -->
    <title>F7B3AF2A-A92D-461F-BAF0-34644B40F579</title>
    <desc>Created with sketchtool.</desc>
    <g id="Website" stroke="none" stroke-width="1" fill="none" fill-rule="evenodd">
        <g id="AlpineTEC" transform="translate(-567.000000, -3986.000000)">
            <g id="Group-26" transform="translate(567.000000, 3986.000000)">
                <g id="Group-17" opacity="0.779999971" transform="translate(-0.000000, 0.000000)">
                    <polygon id="Path" fill="#2CC84D" points="204.256993 491.497627 207.45198 493.734313 209.863857 494.489542 211.46135 495.244771 213.873227 496 215.47072 494.518544 216.285104 493.037087 217.099487 494.518544 219.511364 494.518544 220.325747 493.037087 217.13076 492.281858 213.873147 489.260868 213.058764 486.297955 212.24438 484.816498 210.646887 484.061269 208.23501 485.542726 207.420627 487.779411 206.606244 489.260868 203.411257 487.779411 200.21627 485.542726 198.618777 484.787497 201.813763 488.505639"></polygon>
                    <polygon id="Path" fill="#000000" opacity="0.300000012" points="141.252512 95.0489664 138.924609 95.0489664 138.924609 102.021856 142.794385 101.233638 142.794385 105.90241 145.122288 107.448578 148.992065 106.66036 149.778094 100.44542 149.778094 95.7766478 147.419929 91.1684902 147.419929 92.714658 144.336182 91.9567082"></polygon>
                    <polygon id="Path" fill="#000000" opacity="0.300000012" points="135.740032 71.2259518 133.497866 74.4149888 137.982197 75.2278555 141.709448 78.4168926 145.4367 79.2297593 144.679621 75.2278555 143.194534 69.6314332 137.225118 65.6295295 133.497866 64.0350109 133.497866 68.8497814"></polygon>
                    <polygon id="Path" fill="#000000" opacity="0.300000012" points="118.720058 104.274116 113.96154 108.289251 113.96154 110.704595 117.113318 110.704595 122.644355 106.68946 129.75128 105.08967 131.327169 101.074535 131.327169 96.2438456 128.947911 95.4282914 127.433801 97.843636 126.630432 94.6440552 125.857912 89.813366 123.478654 88.9978118 121.099395 92.1973926 124.251173 101.043538 121.099395 101.043538 117.144248 95.4286126 110.809842 92.2290318 108.430583 94.6443765 105.278805 103.490522 108.430583 105.090312"></polygon>
                    <path d="M110.945529,132.725128 L106.424759,135.010267 L107.18799,137.295405 L110.182298,137.295405 L114.703068,136.523815 L118.460608,138.037364 L115.4663,138.808954 L112.471992,138.808954 L109.477684,139.580543 L107.98053,140.352132 L110.240915,144.922409 L111.738069,144.150819 L114.732377,145.664368 L116.229531,148.691466 C119.223839,147.919877 122.247456,147.919877 125.241613,147.177917 L128.999152,144.892779 L131.259538,144.892779 L135.017077,146.406328 L138.774616,147.177917 L139.537848,144.892779 L139.508464,144.12119 L143.266003,143.3496 L143.266003,140.322503 C141.005618,138.037364 138.01131,136.523815 135.750924,134.238677 C134.987693,130.43999 134.25377,126.641303 133.490539,122.842616 L131.230154,119.815518 L128.969768,118.301969 L127.472615,119.073559 L128.969768,126.670933 L128.206537,129.698031 L126.709383,122.872246 L123.715075,121.329067 L121.45469,125.127754 L118.460382,121.329067 L113.939612,123.614205 L114.702843,120.587108 L112.442458,119.073559 L107.187764,123.614205 L105.690611,126.641303 L104.193457,131.953539 L107.950996,133.467088 L110.945529,132.725128 Z" id="Path" fill="#000000" opacity="0.300000012"></path>
                    <path d="M316.240763,176.138695 L319.279749,176.910284 C322.318735,175.396736 324.612847,173.883187 326.90696,172.340008 L329.945946,168.541321 L327.651833,164.742634 L328.426453,161.715536 L324.612847,161.715536 L320.829064,164.000674 L317.790078,162.487125 L314.751092,165.514223 L311.712106,161.715536 L308.67312,162.487125 L307.153627,165.514223 L311.741852,167.027772 L311.741852,168.541321 L307.928247,169.31291 L312.516472,171.598048 L310.162791,174.625146 L316.240763,176.138695 Z" id="Path" fill="#2CC84D"></path>
                    <path d="M306.14928,139.453855 L300.806627,139.453855 L303.104849,136.434465 L302.328842,131.875825 C303.851057,134.155145 305.373272,135.66484 306.925287,137.94416 L310.745725,136.434465 L309.969718,131.135755 L306.925287,127.34674 L303.851057,125.067421 L304.627064,123.557726 L309.22351,126.577116 L309.22351,123.557726 L306.925287,118.999086 L309.969718,118.999086 L313.014148,117.489391 L313.790155,115.210071 L311.491933,112.190681 L316.088378,111.421057 L313.043947,104.612652 L315.34217,103.843027 L314.566163,96.2649975 L310.745725,91.706358 L314.566163,88.6869679 L317.610593,87.9173433 L315.312371,81.8490088 L315.312371,70.4819645 C316.834586,65.1832546 318.356801,59.884848 319.908816,54.5559776 L315.312371,53.7863529 L322.177239,51.5070332 L323.699454,48.4876431 L332.116643,38.6301423 L330.594428,32.5618078 L322.953552,29.5720478 L312.268551,35.6403823 L306.925898,40.9390921 L309.224121,32.5911347 L307.701906,27.2924249 L303.851592,31.8510644 L297.732931,26.5523546 L290.092056,28.0620496 L288.569841,25.0131052 C295.434709,24.2434805 301.553217,23.5034102 308.448343,22.7337855 L312.268781,16.665451 L299.285405,2.27931972 L282.481591,-8.52651283e-14 L274.840715,1.50969504 L271.796285,8.3180999 L264.155409,7.54847522 L257.29054,18.1455917 L257.29054,24.9539966 L262.633194,33.3019539 L258.036748,28.7433145 L254.992318,27.2336194 L249.649665,21.1652849 L244.307012,29.5132423 L242.008789,24.9546028 L235.143921,24.9546028 L228.279052,27.2339225 L222.936399,31.0229373 L223.712406,37.8313422 L220.667976,39.3410372 L213.0271,48.428686 L211.504885,53.7273958 L217.623545,58.2860353 L216.847538,62.8446747 C211.504885,66.6336895 206.162537,69.6530796 200.789474,73.4417155 L200.789474,77.2307302 L205.385919,81.019745 L214.548857,83.2990647 L209.952412,84.0686894 L204.520208,87.176894 L208.340646,93.2452285 L210.638868,96.2646186 C214.459306,95.4949939 217.503736,95.4949939 221.323869,95.4949939 L225.920314,96.2646186 L231.262967,101.563328 L231.262967,105.352343 L234.307398,108.371733 C235.829613,112.930373 237.351828,117.459306 238.903843,122.018249 L240.426058,125.037639 L238.127835,131.105973 L239.650051,132.615668 L241.948273,131.846044 C243.470489,134.125363 245.768711,136.404683 247.290926,137.914378 L242.724281,134.894988 L240.426058,134.894988 L239.650051,137.914378 L239.650051,142.473018 L241.948273,144.752337 L244.246496,143.982713 C245.768711,143.213088 246.544718,141.703393 248.066934,140.963323 L247.290926,145.521962 L246.514919,147.801282 L243.470489,150.080602 L241.172266,156.889006 L242.724281,158.398701 L241.948273,162.187716 L244.992704,166.746356 L244.992704,171.304995 L245.768711,174.324385 L249.589149,180.39272 L251.111364,184.951359 L253.409587,187.230679 L258.006032,187.230679 L261.050463,191.019694 L264.094893,191.019694 C264.8709,188.740374 265.617108,185.720984 266.393116,183.441664 L265.646984,179.623019 L269.467422,175.834004 L270.243429,172.814614 L270.243429,169.0256 L271.765645,166.00621 C274.063867,165.236585 275.586082,164.496514 277.884305,163.72689 L279.40652,163.72689 L284.002965,159.937875 L287.047396,153.869541 L289.345619,151.590221 L291.643841,151.590221 L297.762502,149.310901 L303.881162,144.752262 L309.223815,139.453552 L306.14928,139.453855 Z" id="Path" fill="#000000" opacity="0.300000012"></path>
                    <path d="M195.010635,308.736899 L199.704125,308.736899 L199.704125,307.917658 L198.139628,307.129958 L196.575132,307.129958 L196.575132,306.310717 L195.010635,305.491476 L194.213073,305.491476 C192.648576,304.672235 191.851015,303.065213 190.286518,302.277432 L187.924459,302.277432 L187.126897,301.458191 L184.764839,300.63895 L179.273787,300.63895 L177.678663,302.277512 L177.709368,303.096753 L176.911807,303.915994 L178.50693,303.915994 L178.50693,303.096753 L179.304492,303.096753 L180.868989,301.489731 L183.231048,301.489731 L182.433486,303.096753 L183.231048,303.915994 L186.360041,303.915994 L187.157603,304.735235 L189.519662,305.554476 L191.084158,305.554476 L191.88172,307.161498 L192.679282,307.980739 L194.243779,307.980739 L195.041341,308.79998 L193.476844,310.407002 L195.010635,308.736899 Z" id="Path" fill="#2CC84D"></path>
                    <path d="M237.881693,225.413044 L238.675719,224.665208 L237.881693,224.665208 L236.324131,226.132162 L234.766569,228.346953 L232.41498,233.495652 L230.857419,235.710443 L231.651445,236.458279 L230.093883,237.206115 L230.093883,237.953951 L236.354622,237.953951 L238.70621,238.701787 L237.148649,240.168742 L238.70621,240.168742 L241.057799,237.234833 L241.851826,237.982669 L241.057799,240.197459 L242.615361,240.945295 L243.409387,240.945295 L244.203414,238.011386 L243.378818,235.710296 L243.378818,234.243341 L241.821256,234.991177 L242.615283,232.776387 L240.263694,232.028551 L239.469668,232.776387 L237.912106,232.028551 L238.706132,230.561596 L237.14857,229.81376 L235.591009,230.561596 C236.323974,229.094642 237.118001,227.59897 237.881536,225.412897 L237.881693,225.413044 Z" id="Path" fill="#2CC84D"></path>
                    <path d="M282.414291,364.739931 L281.641224,363.995324 L280.124778,363.995324 L278.608331,363.220981 L275.575438,360.927688 L272.542545,359.408738 L269.509652,359.408738 L265.703693,358.634395 L263.41418,359.408738 L263.41418,357.889788 L262.641113,356.370838 L258.835153,354.851888 L255.80226,354.077545 L254.285814,355.596495 L254.285814,353.303202 L250.479854,353.303202 L249.706788,352.528859 L251.223234,351.009909 L251.223234,349.490959 L250.450168,349.490959 L248.933721,345.678716 L248.160655,344.159766 L247.387588,344.159766 L247.387588,343.385423 L245.098075,341.866473 C243.581629,341.09213 242.065182,341.09213 240.519049,340.347523 L239.002603,340.347523 L239.002603,341.121866 L235.96971,340.347523 C235.196643,339.57318 234.453263,338.828573 233.680196,338.828573 L232.90713,338.828573 L232.90713,338.05423 L231.390683,336.53528 C230.617617,335.760937 229.874237,335.760937 229.10117,335.01633 L228.357866,335.01633 L228.357866,333.49738 L226.84142,332.723037 L225.324973,332.723037 L224.551907,331.948694 L226.068353,331.174352 L220.745947,331.174352 L220.745947,331.948694 L219.229501,332.723037 L217.713054,332.723037 L216.196608,331.948694 L211.617582,331.948694 L211.617582,331.174352 L210.101135,329.655401 L208.584689,329.655401 L208.554926,327.391844 L207.781859,328.166187 L207.781859,328.94053 L205.522033,329.685061 L205.522033,331.204011 L206.295099,331.978354 L205.522033,333.497304 L204.748966,333.497304 L203.9759,331.978354 L204.748966,330.459404 L204.748966,329.685061 L203.9759,328.910718 L205.492346,328.910718 L205.492346,328.136375 L206.265413,327.362032 L205.522033,326.617501 L204.748966,326.617501 L204.005663,327.391844 C203.232596,328.166187 202.489216,328.166187 201.716149,328.910794 L200.199703,328.910794 L200.199703,329.685137 L198.683256,329.685137 L197.16681,330.45948 L196.393743,331.97843 L196.393743,332.752773 L195.620677,332.752773 L194.10423,335.01633 L193.331164,335.01633 L191.784955,333.467644 L187.978995,333.467644 L187.205929,334.241987 L185.689482,335.01633 L184.916416,335.790673 L184.143349,335.790673 L183.370283,335.01633 L182.597216,335.01633 L182.597216,334.241987 C181.82415,333.467644 181.080769,332.723037 180.307703,331.948694 L179.534636,330.429744 L179.534636,329.655401 L180.307703,328.881059 L180.307703,324.234926 L181.080769,323.460583 L181.080769,321.911897 L180.307703,321.137554 L179.534636,321.137554 L178.880468,319.767511 L178.107402,318.993168 L171.149651,318.993168 L169.752179,319.767511 L168.979112,319.767511 L168.206046,318.993168 L168.979112,318.218825 L169.752179,318.218825 L170.525245,317.444482 L170.525245,314.347035 L169.752179,314.347035 L170.525245,314.347035 L171.298312,315.121378 C171.298312,314.347035 172.071378,313.602427 172.071378,312.083477 L171.298312,311.309135 L172.071378,309.790184 L173.587825,308.271234 L173.587825,307.496892 L172.814758,306.722549 L169.781865,306.722549 L167.492352,307.496892 L165.975905,308.271234 L165.975905,310.564527 L165.202839,312.083477 L162.883563,312.143025 C162.110497,312.143025 160.59405,312.917367 159.85067,312.917367 L158.334224,312.917367 L156.817777,313.69171 L156.044711,312.917367 L153.755198,312.143025 L152.238751,311.368682 L152.238751,309.849732 L150.722305,308.330782 L149.949238,306.811832 L149.176172,306.037489 L149.176172,299.187346 L149.949238,296.894053 L149.176172,296.11971 L149.176172,293.826417 L151.465685,291.533124 L153.755198,290.758781 L156.044711,289.239831 L157.561157,288.465488 L159.077604,288.465488 L160.59405,289.239831 L162.110497,289.239831 L163.626943,290.758781 L165.14339,290.758781 L165.916456,289.984438 L167.462589,289.984438 L167.462589,286.97635 L166.689523,286.202007 L172.784996,286.202007 L174.301442,286.97635 L175.074509,288.4953 L177.364022,287.720957 L178.137088,287.720957 L179.653535,290.01425 L180.426601,291.5332 L179.653535,293.05215 L179.653535,293.826493 C180.426601,295.345443 181.169981,296.119786 181.943048,297.638736 L182.716114,298.413079 L182.716114,299.187422 L184.262247,299.187422 L185.035314,297.668472 L185.035314,295.375179 L184.262247,292.337279 L184.262247,291.562936 L183.489181,290.043986 L182.716114,287.750693 L182.716114,284.712793 L183.489181,283.193843 L185.005627,281.674892 L187.29514,280.155942 L187.29514,279.3816 L188.068207,278.607257 L188.841273,278.607257 L190.35772,277.088307 L192.647233,276.313964 L194.163679,274.020671 L194.163679,270.953035 L193.390613,270.953035 L193.390613,268.659742 L191.874166,267.8854 L193.390613,268.659742 L192.617546,267.140792 L193.390613,265.621842 L193.390613,267.915135 L194.163679,268.689478 L193.390613,270.208428 C194.163679,269.434085 194.907059,267.915135 194.907059,267.170528 L194.907059,266.396185 L194.133993,265.621842 L193.360926,264.102892 L194.133993,264.877235 L194.907059,264.877235 L194.907059,265.651578 L196.423506,263.358285 L197.196572,261.064992 L196.423506,261.064992 L197.196572,260.290649 L198.713019,260.290649 L201.745912,259.516306 L200.972846,258.741963 L197.939952,259.516306 L199.456399,258.741963 L201.745912,258.741963 L203.262359,257.967621 L204.035425,257.967621 L205.551872,257.193278 L205.551872,256.418935 L204.778805,255.644592 L204.778805,256.418935 L204.005739,256.418935 L203.232672,254.899985 L203.232672,253.381035 C204.005739,252.606692 204.005739,251.862085 204.749119,251.087742 C206.265565,250.313399 207.782012,249.568792 209.328145,249.568792 L211.617658,248.049842 L211.617658,247.275499 L216.940064,247.275499 L213.134104,249.568792 L213.134104,251.862085 L214.650551,251.862085 L216.940064,249.568792 L219.229577,248.049842 L223.808603,246.530892 L226.098116,244.237599 L224.58167,243.463256 L224.58167,241.169963 L222.292156,244.982206 L223.03546,243.522803 L220.002567,242.003853 L219.229501,239.71056 L219.229501,235.898317 L221.519014,233.605024 L220.002567,232.086074 L216.969674,232.086074 L212.390648,235.123974 L209.357755,238.936217 L207.841309,239.71056 L210.130822,236.67266 L213.163715,232.086074 L216.196608,230.567124 L217.713054,228.273831 L223.03546,228.273831 L227.614486,229.048174 L231.420446,228.273831 L234.453339,225.235931 L238.259299,223.716981 C239.032365,222.942638 240.548812,222.198031 241.292192,221.423688 L241.292192,217.611445 L240.519125,216.092495 L235.969786,216.837102 L235.196719,213.799202 L233.680273,213.024859 L230.64738,212.250517 L228.357866,209.212616 L225.324973,206.919323 L226.09804,204.626031 C224.581593,201.58813 223.065147,197.775887 220.775634,194.708099 L219.259187,190.895856 L217.742741,193.189149 L216.166845,197.775735 L213.133952,200.069028 L211.617506,197.775735 L209.327992,197.001392 L208.554926,191.670199 L208.554926,187.857956 L204.748966,187.857956 L203.9759,186.339006 L201.686387,184.045713 L199.396874,182.526763 L197.880427,184.045713 L196.393743,182.526763 L192.587784,181.007813 L191.071337,182.526763 L191.844404,189.376906 L192.61747,193.189149 L190.298195,197.775735 L192.587708,200.813635 L194.104154,203.851535 L194.104154,206.144828 L192.587708,208.438121 L190.298195,210.731414 L187.265302,212.250364 L188.781748,214.543657 L189.554815,219.87485 L188.038368,223.687093 L186.521922,224.461436 L183.489028,221.423536 L182.686199,218.3559 L181.913133,214.543657 L181.913133,211.505757 L175.81766,211.505757 L173.528147,209.986807 L171.238634,209.212464 L169.722188,207.693514 L168.235504,205.400221 L164.429544,203.881271 L161.396651,204.655614 L159.850518,201.587978 L159.077452,197.775735 L156.044558,197.001392 L156.044558,192.414806 L156.817625,189.376906 L159.107138,184.045713 L161.396651,180.23347 L163.686164,179.459127 L163.686164,176.421227 L165.202611,174.127934 L168.235504,174.127934 L170.525017,171.090034 L171.298083,168.796741 L173.587596,164.210155 L174.360663,161.916862 L176.650176,163.435812 L179.683069,162.66147 L183.489028,158.849227 L183.489028,155.811326 L182.686199,152.803238 L184.202646,149.765338 L184.202646,146.727438 L181.169753,143.689537 L175.103967,142.140852 L175.103967,148.990995 L173.58752,154.322188 L171.298007,158.134431 L169.008494,154.322188 L169.781561,149.735602 L167.462285,145.923359 L164.429392,150.509945 L164.429392,144.404409 L160.623432,142.885459 L162.139879,139.847559 L159.106986,132.223073 L156.817473,129.185173 L154.52796,129.155361 L152.238447,133.741947 L152.238447,140.59209 L154.52796,142.885383 L156.817473,146.697626 L156.044406,152.803162 L154.52796,152.803162 L153.011513,157.389748 L153.011513,152.058554 L149.97862,149.765262 L148.462174,150.539604 L148.462174,154.351847 L145.42928,154.351847 L142.396387,155.12619 L138.590428,152.832897 L136.300915,153.60724 L134.011402,150.56934 L132.494955,149.05039 L130.978509,149.824733 L128.688996,149.824733 L126.36972,152.028667 L128.659233,154.321959 L126.36972,157.35986 L124.080207,154.321959 L121.790694,154.321959 L115.695221,155.096302 L111.889262,153.577352 L114.922155,150.539452 L111.889262,147.501552 L109.599749,147.501552 L106.566856,146.727209 L101.24445,144.433916 L98.9549365,142.88523 L96.6654234,142.88523 L95.9221195,144.404181 L93.6326065,145.178523 L93.6326065,140.591938 L89.8266469,144.404181 L86.0206873,139.072987 L84.5042408,138.298645 L83.7311743,141.336545 L82.2147278,142.855495 L80.6982812,140.562202 L76.8923217,142.081152 L74.6027934,144.404257 L71.5699003,143.629914 L69.2803873,145.148864 L67.7639408,147.442157 L65.4744277,146.667814 L62.4415346,143.629914 C60.1520216,142.855571 58.6355751,142.110964 56.346062,141.336621 L53.313169,139.817671 L50.2802759,140.592014 L48.7638294,139.817671 L44.9578698,139.043328 L40.3788437,136.750035 L38.0893307,137.524378 L35.0564376,136.750035 L35.0564376,135.231085 L30.4476489,136.005428 L29.6745824,137.524378 L28.1581359,134.486478 L25.1252428,132.967528 L22.0923497,136.779771 L19.8028367,136.005428 L15.2238106,139.073064 L12.9342976,139.847406 L10.6447845,142.885307 L9.87171802,145.923207 L7.61188842,148.2165 L3.80592885,148.2165 L2.28948231,151.2544 L5.32237538,152.77335 L7.61188842,155.840986 L9.128338,158.878886 L11.417851,161.172179 L12.9342976,164.210079 L8.35527149,164.210079 L8.35527149,161.916786 L7.61191887,161.946598 L1.67688086e-12,165.758841 L3.03289278,168.796741 L3.80595929,171.090034 L6.83885236,172.608984 L9.87174847,171.834641 L11.388195,172.608984 L12.1612615,171.834641 L14.4507746,171.060298 L15.9672211,171.060298 L14.4507746,173.353591 L15.2238411,173.383327 L15.2238411,175.67662 L13.7073945,177.19557 L12.190948,176.421227 L10.6745015,178.71452 L9.15805493,177.940177 L7.6416084,177.940177 L6.86853884,180.23347 L5.35209231,182.526763 L4.5790258,184.820056 L6.09547234,186.339006 L6.09547234,188.632299 L7.61191887,191.670199 L9.12836845,193.963492 L12.1612615,193.189149 L13.677708,194.708099 L12.9046415,196.227049 L12.9046415,198.520342 L14.4210881,198.520342 L16.7106011,197.001392 L17.4836676,199.294685 L18.2567341,197.775735 L19.7731807,200.069028 L20.5462472,197.775735 L21.3193137,198.550078 L23.6088267,197.031128 L22.8357602,199.32442 L22.8357602,202.362321 L20.5462472,204.655614 L17.5133541,206.948906 L16.7402876,208.467857 L14.4507746,209.242199 L12.1612615,211.535492 L7.58223238,214.573392 L7.58223238,215.347735 L11.388195,214.573392 L12.9046415,213.054442 C14.4210881,212.2801 15.9375346,211.535492 16.7106011,210.761149 L18.2270476,210.761149 L20.5165607,209.242199 L21.2896272,207.723249 L24.3225203,205.429956 L25.0955868,203.911006 L29.6746129,200.873106 L31.9641259,197.835206 L30.4476794,195.541913 L33.4805724,192.504013 L34.997019,189.466113 L38.029912,187.17282 L38.0596442,187.85788 L35.7701311,189.37683 L34.9970646,193.963416 L34.9970646,196.256709 L37.2865777,195.482366 L38.8030242,193.963416 L41.0925372,193.189073 L42.6089838,193.189073 L41.8359173,190.151173 L44.1254303,189.37683 L46.4149434,190.89578 L50.2209029,193.189073 L53.253796,193.189073 C55.543309,193.963416 57.0597556,194.708023 59.3492686,195.482366 L63.9282947,200.068952 L66.2178077,201.587902 L71.5402138,201.587902 L73.0566604,205.400145 L76.0895534,208.438045 L76.8626352,211.475945 L79.8955282,214.513845 L79.8955282,216.032795 L82.1850413,218.326088 L82.1850413,221.363988 L85.2179343,222.882938 L85.2179343,225.176231 L86.7343809,228.214132 L90.5403405,229.733082 L92.056787,231.252032 L95.8627466,234.289932 L96.6358131,236.583225 L96.6358131,238.876518 L95.8627466,239.650861 L95.0896801,236.61296 L92.056787,235.838618 L92.056787,236.61296 L92.8298535,238.13191 L93.60292,241.169811 L94.3759865,244.982054 L93.60292,250.313247 L92.8298535,253.351147 L93.60292,255.64444 L93.60292,257.937733 L92.8298535,260.231026 L93.60292,261.749976 L93.60292,264.043269 L95.1193665,266.336561 L95.892433,267.110904 L95.892433,267.885247 L97.4088796,271.69749 L99.6983926,273.990783 L99.6983926,275.509733 L100.471459,276.284076 L102.760972,276.284076 L103.534039,277.058419 L105.050485,277.058419 L105.050485,277.832761 L105.823552,277.832761 L107.339998,279.351712 L107.339998,280.870662 L108.113065,283.163955 C108.886131,284.682905 109.629511,286.976198 110.402578,288.495148 L111.919024,289.26949 L113.435471,290.788441 L113.435471,291.562783 L112.662404,292.337126 L111.889338,292.337126 L113.405784,293.856076 L114.922231,294.630419 L115.695297,295.404762 C116.468364,296.179105 117.211744,296.923712 117.98481,296.923712 L117.98481,299.961612 L118.757877,300.735955 L120.274324,301.510298 L121.79077,303.029248 L122.563837,304.548198 L123.336903,303.773855 L123.336903,302.999512 C122.563837,302.225169 122.563837,301.480562 121.820457,300.706219 L121.04739,300.706219 L121.04739,299.187269 C121.04739,298.412926 120.274324,297.668319 119.530943,296.893976 L118.757877,294.600684 L115.695297,291.533048 L114.922231,290.014098 L114.922231,288.465412 L114.178851,286.976274 L113.405784,286.201931 L113.405784,282.389688 L114.922231,283.164031 L115.695297,283.164031 L117.211744,283.938374 L117.211744,284.712716 L117.98481,286.231666 L119.501257,287.750617 L119.501257,288.524959 C120.274324,289.299302 121.017704,290.043909 121.79077,290.818252 L123.307217,290.818252 L124.080283,292.337202 L126.369796,294.630495 L126.369796,296.149445 L127.142863,296.923788 L128.659309,297.698131 L129.432376,299.217081 L131.721889,300.736031 L133.238335,303.029324 L134.011402,304.548274 L134.011402,305.322617 L134.784468,306.09696 L134.784468,306.871303 L134.011402,307.645645 L134.011402,308.419988 L133.238335,308.419988 L134.011402,309.194331 L134.784468,310.713281 L137.073981,312.232231 L137.847048,313.006574 L140.136561,313.780917 L141.653007,313.780917 L142.426074,314.555259 L143.94252,315.329602 L146.232033,316.103945 L147.74848,316.103945 L150.037993,316.878288 L151.55444,317.652631 L152.238371,319.767206 L153.011437,319.767206 L154.527884,318.992863 L156.04433,318.992863 L157.560777,319.767206 L160.623356,322.834841 L162.139803,323.609184 L162.912869,324.383527 L164.429316,324.383527 L165.975525,325.932212 L167.491971,325.932212 L168.265038,326.706555 L170.554551,326.706555 L170.554551,325.932212 L171.327617,325.932212 L171.327617,326.706555 L173.646893,329.02966 C174.41996,329.804003 175.16334,329.804003 175.16334,330.54861 L174.390273,331.322953 L175.16334,331.322953 L175.16334,333.646057 L175.936406,333.646057 L176.709473,334.4204 L177.482539,333.646057 L177.482539,332.871715 L178.255606,333.646057 L178.255606,334.4204 L179.028672,334.4204 L180.574805,335.969086 L180.574805,336.743429 L181.347872,337.517771 L182.864318,338.292114 L182.864318,337.517771 L185.183594,337.517771 L185.95666,338.292114 L186.729727,338.292114 L186.729727,339.811064 L188.27586,339.811064 L187.502793,338.292114 L187.502793,337.517771 L188.27586,337.517771 L189.821993,335.969086 L190.595059,335.969086 L191.368126,336.743429 L190.297738,335.016025 L191.070804,335.016025 L190.297738,335.790368 L191.070804,337.309318 L192.617014,338.858004 L192.617014,340.376954 L191.843947,341.151296 L192.617014,343.444589 L191.843947,344.963539 L192.617014,345.737882 C191.843947,346.512225 191.100567,347.256832 191.100567,348.031175 L190.327501,348.031175 L190.297738,348.745971 L190.297738,349.520313 L189.524671,349.520313 L189.524671,350.294656 L186.491778,351.843342 L186.491778,352.617685 L184.945645,355.655585 L184.172579,355.655585 L184.172579,357.948878 L184.975408,357.889254 L186.491854,358.663597 L187.264921,357.889254 L188.037987,358.663597 L187.264921,360.182547 L185.748474,361.701497 L184.975408,363.220447 L185.748474,365.51374 L184.975408,366.288083 L186.491854,367.062426 L188.008301,368.581376 L188.781367,370.100326 L189.554434,370.874669 C191.070881,373.912569 192.587327,376.205862 193.360394,379.273803 L194.87684,382.311703 L194.87684,383.086046 L195.649907,384.604996 L197.166353,386.123946 L200.972313,388.417239 L205.551339,390.710532 L205.551339,391.484874 L207.840852,393.003824 L208.613918,396.041725 L208.613918,399.853968 C207.840852,404.440553 207.097472,409.771899 207.097472,414.328292 L205.521576,417.366192 L205.521576,420.404092 L204.74851,422.697385 L205.521576,426.509628 L204.74851,430.321871 C203.975443,433.359771 202.458997,435.653064 201.715617,438.721005 L200.94255,438.721005 L200.94255,441.758905 L201.715617,444.052198 L200.94255,445.571148 C200.169484,448.609048 200.169484,451.676684 199.426104,454.714432 L200.94255,455.488774 L201.715617,451.676531 L203.232063,452.450874 L202.458997,458.55641 L200.169484,457.782067 L199.396417,463.11326 L197.106904,466.151161 L200.139797,466.925503 L197.850284,469.218796 L196.393287,472.256697 L196.393287,477.58789 L197.909733,479.881182 L197.136667,482.174475 L197.909733,484.467768 L202.488759,489.054354 L204.778272,490.573304 L205.551339,490.573304 L205.551339,487.535404 L207.840852,486.016454 L208.613918,485.242111 L210.903431,485.242111 L209.386985,482.948818 L208.613918,479.136575 L209.386985,477.617625 L211.676498,476.098675 L213.192944,472.286432 L215.482457,470.767482 L216.255524,467.729582 L213.966011,466.955239 L213.906562,464.632134 L214.679628,462.338841 L216.196075,460.819891 L218.485588,460.819891 L219.258654,459.300941 L219.258654,456.263041 L220.775101,454.744091 L223.064614,453.969748 L222.291548,452.450798 L220.745415,453.195405 L219.228968,452.421063 L219.228968,449.383162 L220.002034,448.60882 L222.291548,449.383162 L224.581061,448.60882 L226.097507,447.834477 L225.324441,446.315527 L226.097507,444.022234 L225.324441,442.503284 L227.613954,442.503284 L232.19298,441.728941 L235.225873,440.209991 L237.515386,436.397748 L237.515386,434.878798 L235.998939,433.359848 L235.998939,431.840897 L232.966046,429.547605 L232.966046,428.028654 L234.482493,429.547605 L235.998939,429.547605 L238.288452,430.321947 L239.804899,430.321947 L241.321345,431.09629 L243.610858,429.57734 L244.383925,428.05839 L245.900371,426.53944 L246.673438,424.246147 L248.189885,422.727197 L249.706331,420.433904 L251.995844,415.847318 L253.512291,414.328368 L254.285357,412.809418 L255.058424,410.516125 L255.058424,407.478225 L256.57487,405.184932 L258.864383,403.665982 L261.153896,402.891639 L262.670343,402.117296 L265.703236,401.342954 L267.992749,401.342954 L268.765815,399.824003 L270.282262,399.049661 L270.282262,396.756368 L272.571775,393.718468 L272.571775,390.680567 L273.344841,389.906225 C273.344841,388.387274 274.117908,386.868324 274.117908,385.319639 L274.117908,381.507396 L274.890975,379.988446 L275.664041,379.988446 L277.180488,378.469496 L278.696934,376.176203 L281.729827,373.138303 L282.502894,371.619352 L283.27596,367.807109 C283.156986,367.807109 282.413682,366.288159 282.413682,364.739474 L282.414291,364.739931 Z" id="Path" fill="#2CC84D"></path>
                    <polygon id="Path" fill="#000000" opacity="0.200000003" points="657.337272 107.997424 664.897779 107.997424 666.403983 101.348177 658.843476 96.3531465 653.557019 95.5098468 650.544611 97.1640626 649.038407 103.813309 653.586505 109.619256"></polygon>
                    <polygon id="Path" fill="#2CC84D" points="346.580908 211.335475 348.020992 209.847775 348.755129 210.606187 348.020992 212.093887 348.755129 212.852299 350.92935 213.610711 352.369434 215.856822 352.369434 218.102934 349.489267 218.102934 348.755129 220.349045 350.195213 221.836745 348.020992 222.595157 348.755129 224.082857 351.635296 224.841269 350.195213 225.59968 347.315046 229.333492 348.049184 230.091904 349.489267 228.604204 351.663488 228.604204 353.103571 227.116504 353.837709 227.874916 357.452013 227.116504 360.33218 227.116504 362.506401 225.628804 361.772264 224.141104 362.506401 223.382693 362.506401 221.136581 360.33218 220.378169 358.157959 218.044537 356.717876 214.310726 355.277792 213.552314 353.103571 209.06009 350.92935 209.06009 353.103571 205.326279 353.837709 202.350879 351.663488 202.350879 349.489267 203.109291 351.663488 198.617068 348.049184 198.617068 346.6091 201.592468 345.140825 205.355477 345.874963 207.601589"></polygon>
                    <path d="M338.618145,224.665208 L342.690849,222.167692 L344.313577,218.859261 L344.313577,216.361746 L345.140825,213.86423 L342.690849,210.555799 L341.068121,210.555799 C339.445393,212.210014 337.822664,213.86423 336.168169,215.550829 L336.995417,219.702561 L335.372688,223.854292 L338.618145,224.665208 Z" id="Path" fill="#2CC84D"></path>
                    <polygon id="Path" fill="#000000" opacity="0.300000012" points="142.552623 116.131291 140.195942 119.745564 142.552623 124.093969 137.83926 123.359838 137.83926 125.53404 143.317812 130.588384 144.878747 132.762587 147.235428 133.496718 151.153045 131.322515 151.948791 125.53404 148.06181 121.919767 150.418492 118.305493 149.622745 116.131291 145.705129 116.865422"></polygon>
                    <path d="M466.699858,130.330152 L470.580411,131.850826 L471.368629,134.892174 L478.341516,135.667396 L479.887684,134.921944 L476.007131,129.5847 L475.218913,124.247456 C477.553298,119.655664 479.887684,114.318268 482.191801,109.756703 L489.164689,102.123564 C493.83346,99.0822156 498.471807,96.7863198 503.140888,93.7148971 L504.687055,90.6735489 L503.171234,86.8271335 L499.290681,88.3478076 L495.410128,91.3891557 L487.649022,92.9395991 L480.676135,98.276843 L476.007364,102.868635 L476.795582,106.685204 L471.368861,113.543122 L473.703247,114.318344 L469.034476,120.43081 L469.034476,124.247379 L466.699858,125.768054 L466.699858,130.330152 Z" id="Path" fill="#000000" opacity="0.200000003"></path>
                    <path d="M165.122614,39.7069501 L167.442952,45.0485259 L171.300154,49.6440442 L179.014557,48.8681933 L183.655233,50.3901016 L180.581506,54.9856199 L179.044643,53.4637116 L172.83694,52.6878607 L173.620415,58.8052873 L176.694141,63.4008056 L175.94083,67.9665305 L172.083628,70.2642896 L170.546765,74.0839571 L174.403967,76.3817162 L177.477693,83.2452003 L172.083628,78.649682 L170.546765,79.4255328 L171.33024,86.2890168 L167.473038,88.586776 L167.473038,93.1822943 L171.33024,93.9581451 L174.403967,94.733996 L180.581506,93.2120877 L185.975571,95.5098468 L191.369636,90.1682711 L191.369636,87.870512 L187.512434,87.870512 L187.512434,85.5727528 L190.586161,82.5289362 L191.369636,78.7092688 L194.443363,75.6654522 L196.763701,71.8457848 L195.226837,66.504209 L196.763701,64.2064499 L193.689974,62.6845416 L199.867514,61.1626333 L201.404377,58.8648741 L206.045053,56.567115 L209.902255,46.6298682 L213.759456,42.8102008 L219.153521,34.3947095 L214.512845,34.3947095 L216.833183,31.3508929 L221.443773,29.7693214 L226.837838,22.9058373 L226.837838,18.3103191 L222.980636,13.7148008 L218.33996,11.4170416 C212.945895,9.89513332 208.305065,9.11928247 202.911154,7.59737418 L196.733615,10.6411908 L195.95014,8.34343162 L189.019212,9.11928247 L185.16201,11.4170416 L182.088283,14.4906516 L180.55142,23.651742 L178.231082,19.0562237 L175.910744,18.2803729 L172.837017,24.3977994 L168.979816,26.6955586 L166.659477,27.4714094 L162.802276,29.7691686 L163.585751,35.1107443 L165.122614,39.7069501 Z" id="Path" fill="#000000" opacity="0.300000012"></path>
                    <polygon id="Path" fill="#000000" opacity="0.300000012" points="156.013175 114.04985 155.204836 117.082862 155.204836 120.888971 156.790473 126.984683 159.184448 126.984683 161.578423 121.662068 163.972397 120.145562 167.14367 113.30644 163.164059 111.789934 158.376109 111.789934"></polygon>
                    <path d="M213.719649,140.141891 L212.222869,137.857743 L206.96949,135.573595 L204.709669,131.005298 L200.953069,132.518191 L200.953069,129.492405 L197.95951,126.466618 L193.43987,122.669576 L191.180049,125.695363 L186.660409,127.979511 L186.660409,123.411214 L182.903809,115.817131 L177.650429,118.842918 L176.15365,124.182545 L174.65687,119.614249 L176.15365,115.045952 L170.90027,117.3301 L168.64045,120.385504 L167.14367,126.466694 L167.906711,133.289522 L170.90027,133.289522 L167.877409,136.344926 L169.374189,138.629074 L173.130789,139.400329 L177.650429,140.913223 L185.163629,142.426116 L188.920229,141.654861 L189.68327,140.141967 L191.180049,142.426116 L192.676829,142.426116 L194.936649,146.223158 L193.43987,147.736051 L197.95951,150.020199 L200.953069,153.045986 L202.479151,157.614283 L199.485591,162.924218 L198.722551,165.208366 L199.485591,166.721259 L194.965951,167.492514 L191.209351,167.492514 L191.180049,171.289556 L192.676829,172.802449 L198.693249,172.031194 L198.693249,170.518301 C200.953069,172.031194 202.449849,173.544088 204.709669,175.086598 L203.946629,176.599491 L206.206449,178.88364 L210.72609,181.909426 L216.74251,183.422319 L216.74251,181.909426 C215.24573,179.625278 212.98591,177.341129 211.48913,175.086598 L216.74251,178.88364 L219.736069,180.396533 L220.49911,177.370746 L219.00233,172.802449 L218.239289,171.289556 L215.24573,169.005408 L212.98591,165.979621 L212.98591,162.953835 L215.979469,162.182579 L218.973029,167.492514 L221.232849,169.776663 L224.989449,163.695473 L225.752489,159.898431 L222.75893,159.898431 L219.765371,154.588496 L216.771811,153.075603 L211.518432,149.278561 L215.275032,146.252774 L213.719649,140.141891 Z" id="Path" fill="#000000" opacity="0.300000012"></path>
                    <polygon id="Path" fill="#000000" opacity="0.300000012" points="157.830807 93.9242825 160.163343 97.6514902 160.163343 102.135768 160.950937 106.620047 166.373359 108.862186 170.250838 109.619256 174.915911 109.619256 181.125926 108.134187 184.215812 108.891258 187.305697 107.406189 188.85064 105.16405 188.063047 101.436842 185.73051 98.4667051 181.853031 97.7096347 177.187958 98.4667051 174.098073 99.9517737 171.008187 99.1947033 167.918302 99.1947033 167.130708 97.6514157 164.798172 95.4092766 165.585765 92.4391393 164.040823 89.469002 160.163343 89.469002 157.830807 86.4988647 153.165734 85.7417943 150.863442 90.1970002 153.195979 93.1671375"></polygon>
                    <path d="M154.662246,62.7966633 L158.521251,62.7966633 L156.983669,65.8864781 L156.983669,69.7638685 L159.305092,74.4288344 L163.947937,75.9737418 L167.806942,75.1861663 L171.665946,66.6434998 L174.74111,63.553685 L171.665946,59.7066158 L170.128364,51.1639494 C167.806942,49.619042 165.485519,48.0741346 163.194196,45.7416516 L160.119033,37.9868709 L155.476188,38.7744464 L156.260029,41.8642613 L153.938606,42.6518368 L152.401024,46.5292271 L150.863442,51.9515249 L152.401024,57.3738227 L154.662246,62.7966633 Z" id="Path" fill="#000000" opacity="0.300000012"></path>
                    <polygon id="Path" fill="#2CC84D" points="609.684669 356.147108 609.684669 357.619256 608.880512 359.091404 609.684669 360.563552 610.488826 360.563552 610.488826 362.786184 609.684669 365.008816 610.488826 365.7593 612.06626 365.7593 612.06626 360.592372 613.643693 359.841888 613.643693 362.06452 615.221127 363.536668 615.221127 364.287152 616.025284 365.037635 618.406875 364.287152 616.025284 364.258332 616.829441 365.008816 617.633598 364.258332 617.633598 362.786184 615.252007 360.563552 616.056164 359.813069 613.674574 356.868772 615.252007 356.118289 616.056164 354.64614 616.860321 354.64614 616.860321 353.895657 612.901297 354.64614 611.323864 355.396624 609.74643 353.924476 609.74643 352.452328 615.282888 352.452328 617.664478 353.202812 619.241912 352.452328 620.819346 350.229696 620.819346 349.479212 618.437755 350.95136 612.901297 350.95136 613.643614 350.229696 611.262024 352.452328"></polygon>
                    <polygon id="Path" fill="#2CC84D" points="618.82034 328.586433 618.82034 330.099982 617.277148 331.643161 618.79071 333.15671 619.562306 332.38512 620.333902 330.871571 621.105498 330.099982 621.105498 327.814844 619.591936 330.099982 619.591936 328.586433"></polygon>
                    <path d="M626.65012,370.528866 L624.883543,370.528866 L623.116966,371.300455 L623.116966,372.072045 L619.549229,372.814004 L618.648649,374.327553 L618.648649,375.099143 L620.415226,374.327553 L622.181803,372.814004 C623.982963,372.814004 625.74954,372.042415 626.650208,370.528866 L628.416785,370.528866 L626.65012,370.528866 Z" id="Path" fill="#2CC84D"></path>
                    <polygon id="Path" fill="#2CC84D" points="617.877053 369.928967 617.877053 368.415418 616.363491 369.928967 614.849929 369.928967 613.336367 369.157377 611.822805 369.928967 611.822805 370.700556 614.849929 370.700556"></polygon>
                    <path d="M673.285595,447.159737 C672.385006,447.159737 671.519002,447.931327 669.752409,447.931327 L667.085227,447.159737 L665.318634,447.159737 L665.318634,448.673286 L667.085227,450.958425 L667.085227,452.471973 L668.85182,454.757112 L671.519002,454.757112 L673.285595,452.471973 L674.186183,453.243563 L674.186183,450.958425 L675.086771,450.186835 L675.086771,447.159737 L673.285595,447.159737 Z" id="Path" fill="#2CC84D"></path>
                    <polygon id="Path" fill="#2CC84D" points="609.109434 370.715371 611.394592 369.943782 610.622996 369.172192 609.109434 369.172192 608.337838 368.400603 607.566242 369.172192 606.05268 369.172192 605.281084 370.685741 606.794646 370.685741"></polygon>
                    <polygon id="Path" fill="#2CC84D" points="609.480417 330.099982 608.708821 331.613531 607.195259 333.12708 605.681697 333.898669 608.708821 331.613531 609.480417 330.099982 610.993979 328.586433 610.993979 327.072884"></polygon>
                    <path d="M578.798939,81.4004376 L582.603062,84.4369376 L579.571632,86.7291736 L584.148449,88.2474236 L584.921143,92.8318954 L587.209551,90.5396595 L593.302083,90.5396595 L598.651594,95.8385974 L600.167309,98.8750974 L599.394615,103.459569 L597.106207,105.751805 L591.786368,110.336277 L590.270653,112.628513 L592.559062,113.402499 L595.590492,114.920749 L597.8789,113.402499 L599.424288,118.731235 L600.196981,116.438999 L603.228411,114.920749 L610.063964,116.438999 L610.836658,120.249485 L619.960468,121.023471 L619.960468,115.694735 L624.537285,117.212985 L627.568715,117.212985 L631.372838,121.023471 L632.145532,125.607942 L630.629817,128.644442 L633.661247,133.973178 L636.692677,136.265414 L639.753779,129.358908 L642.785209,132.395408 L646.589332,130.877158 L650.393456,133.169394 L651.909171,131.651144 L655.713294,132.42513 L654.197579,126.322408 L657.229009,123.285908 L676.249627,127.87038 L677.765342,131.680866 L683.08518,137.009602 L691.466425,135.491352 L696.043242,136.265338 L697.558957,138.557574 L697.558957,143.142046 L699.847365,144.660296 L702.878795,143.142046 L706.682919,143.142046 L710.487042,144.660296 L714.291166,143.88631 L718.065541,148.44106 L720.35395,146.92281 L718.838235,143.112324 L719.610928,140.075824 L726.446482,141.594074 L731.023299,141.594074 L737.858852,144.660296 L740.147261,146.178546 L745.467099,151.507282 L750.81661,157.610003 L750.81661,160.646503 L752.332325,162.164753 L751.559631,158.354268 L757.652163,159.128253 L763,162.880134 L760.711515,165.17237 L756.907392,165.946356 L756.907392,170.530828 L756.134698,171.304814 L753.84629,171.304814 L752.330575,169.786564 L749.299145,168.268314 L748.526451,165.976078 L746.238043,165.202092 L743.949634,165.976078 L742.433919,164.457828 L743.206613,162.165592 L740.918204,163.683842 L741.690898,165.976078 L740.918204,167.494328 L737.857102,170.560549 L734.825672,170.560549 L737.114081,172.852785 L738.629796,176.663271 L739.402489,178.181521 L739.402489,180.473757 L738.629796,181.992007 L734.082651,181.992007 L727.990119,185.028507 L726.474404,185.802493 C724.958689,188.094729 722.67028,190.386965 720.381872,191.905215 L720.381872,191.905215 L719.609178,194.197451 L716.577748,191.160951 L711.25791,194.197451 L710.485216,192.679201 L708.196808,194.197451 L705.165378,193.423465 L704.392684,196.459965 L702.104276,200.270451 L702.104276,201.788701 L704.392684,202.562687 L704.392684,207.891423 L702.104276,207.891423 L701.331582,210.927923 L702.104276,212.446173 L699.815867,213.220159 L698.300152,213.994145 L697.527459,217.80463 L694.496029,218.578616 L693.723335,222.389102 L690.691905,225.425602 L689.919212,223.133366 C689.146518,219.32288 688.403497,214.768283 687.630803,210.183811 L687.630803,210.183811 L688.403497,204.855075 L690.691905,201.044589 L690.691905,199.526339 L693.723335,198.752353 C696.011744,195.716006 699.043174,192.649784 701.331582,189.613284 L701.331582,189.613284 L705.135706,185.802798 L706.651421,179.700076 L704.363012,180.474062 L702.847297,184.284548 L697.527459,189.613284 L696.011744,184.284548 L690.691905,185.802798 L685.372067,193.42377 L686.858034,194.912222 L682.281217,195.686208 L679.249787,196.460194 L679.249787,193.423694 L676.218357,192.649708 L673.929948,194.941944 L667.094395,194.167958 L660.258841,195.686208 C654.939155,201.014791 650.362186,207.117513 645.042347,212.446249 L645.042347,212.446249 L648.073777,213.220235 L648.846471,215.512471 L651.134879,216.286457 L652.650594,214.768207 L654.939003,214.768207 L656.48439,217.715389 L656.48439,220.751889 L654.968675,224.562375 L654.968675,228.372861 L654.195982,233.701597 L651.164552,238.286068 L650.391858,240.578304 C648.133122,242.870845 645.844713,245.937067 643.556305,248.973567 L643.556305,248.973567 L640.524875,250.491817 L639.00916,250.491817 L637.493445,248.973567 L634.462015,251.265803 L634.462015,252.039789 L633.689321,252.039789 L632.143934,253.58776 L632.143934,255.879996 L631.371241,256.653982 L631.371241,257.427968 L630.598547,258.201954 L629.082832,258.97594 L628.310138,259.749926 L628.310138,261.268176 L630.598547,263.560412 L632.114262,266.596912 L632.886956,268.859426 L632.886956,271.895926 L632.114262,273.414176 L629.825853,274.188162 L628.310138,274.962148 L626.02173,274.962148 L626.02173,273.443898 L626.051402,271.955446 L625.278709,268.918946 L626.794424,268.14496 L625.278709,265.852724 L624.506015,265.078738 L624.506015,265.852724 L623.733321,265.852724 L623.733321,265.078738 L622.960628,265.078738 L622.187934,264.304752 L622.960628,262.786502 L623.733321,262.786502 L623.733321,262.012516 L624.506015,260.494266 L624.506015,259.72028 L622.9903,259.72028 L622.217606,258.946294 L619.186177,259.72028 L617.670462,261.23853 L615.382053,262.012516 L616.154747,260.494266 L615.382053,259.72028 L616.897768,258.20203 L616.927516,257.428044 L615.411801,258.20203 L611.607678,262.012516 L609.319269,262.012516 L608.546576,263.530766 L609.319269,265.049016 L610.834984,265.823002 L610.834984,267.341252 L612.350699,268.115238 L614.639108,265.823002 L616.154823,266.596988 L617.670538,266.596988 L617.670538,268.115238 L614.639108,268.889224 L613.866414,270.407474 L611.578006,271.925724 L610.805312,273.443974 L610.775564,274.991946 L611.548257,277.284182 L614.579687,281.868653 L614.579687,283.386903 L613.063972,284.160889 L613.836666,285.679139 L615.352381,286.453125 L615.352381,288.745361 L614.579687,291.037597 L613.063972,291.037597 C612.320951,292.555847 610.805236,294.074097 610.032542,296.366333 L610.032542,296.366333 L607.744134,299.402833 C605.455725,300.176819 603.94001,301.695069 601.651602,303.213319 L601.651602,303.213319 L599.363193,303.213319 L597.847478,303.987305 L597.074785,303.213319 L595.55907,303.987305 L592.52764,305.505555 L590.239231,305.505555 L589.466538,307.797791 L587.950823,307.797791 L587.178129,306.279541 L587.950823,305.505555 L584.919393,304.731569 L584.146699,304.731569 L581.115269,307.023805 L579.599554,309.316041 L578.826861,310.834291 C580.342576,312.352541 581.115269,314.644777 582.630984,316.163027 L582.630984,316.163027 L584.919393,317.681277 L586.435108,319.199527 L587.207801,323.010013 L587.207801,326.820498 L585.692086,328.338748 L583.403678,329.856998 L579.599554,333.667484 L578.826861,332.149234 L579.599554,330.630984 L578.08384,329.112734 L576.568125,329.112734 L575.795431,328.338748 L575.022737,326.046513 L572.734329,325.272527 L571.218614,325.272527 L571.218614,323.754277 L569.702899,323.754277 L569.702899,326.046513 C569.702899,326.301205 569.693726,326.546343 569.676358,326.782987 L569.673809,326.804438 L569.197635,325.867877 L569.197635,323.575641 L568.424942,322.801655 L567.652248,320.509419 L566.879555,317.472919 L566.106861,315.954669 L564.591146,316.728655 L562.302738,318.246905 L560.787023,318.246905 L559.271308,317.472919 L560.044001,314.436419 L559.271308,312.144183 L557.755593,309.851947 L557.755593,309.077962 L556.239878,309.077962 L554.724163,307.559712 L553.951469,306.041462 L553.951469,304.523212 L553.178776,303.749226 L552.406082,302.230976 L550.117673,302.230976 L550.117673,303.004962 L549.34498,304.523212 L548.572286,303.749226 L548.572286,304.523212 L547.026899,304.523212 L547.026899,305.297197 L545.511184,305.297197 L543.222776,306.071183 L543.222776,307.589433 L542.450082,309.107683 L539.418652,310.625933 L535.614529,314.436419 L533.32612,315.954669 L533.32612,316.728655 L532.553427,317.502641 L530.265018,318.276627 L529.492325,318.276627 L528.719631,319.794877 L529.492325,322.831377 L529.492325,324.349627 L528.719631,326.641863 L528.719631,330.452349 L527.946937,330.452349 L527.174244,331.970599 L527.946937,332.744585 L525.658529,333.518571 L524.885835,335.036821 L524.113142,335.810807 L521.824733,333.518571 C521.824733,332.000321 521.081712,329.708085 520.309018,328.189835 L520.309018,328.189835 L519.536325,327.415849 L518.763631,325.123613 L517.990938,322.087113 L517.990938,320.568863 L515.702529,317.532363 C514.959508,315.269849 514.959508,312.977613 514.186814,310.685377 L514.186814,310.685377 L514.186814,307.648877 L513.414121,305.356641 L510.382691,306.874891 L508.866976,306.874891 L505.835546,303.838391 L506.608239,303.064405 L503.547137,299.998183 L502.031422,299.224197 L501.258729,297.705947 L499.743014,296.187697 L495.93889,296.961683 L489.103337,296.961683 C487.587622,296.217419 485.299213,296.217419 483.010805,295.443433 L483.010805,295.443433 L480.722396,295.443433 L479.949703,292.406933 L479.177009,291.632947 L477.661294,292.406933 L475.372886,293.925183 L473.084477,293.151197 L470.796069,291.632947 L468.50766,290.858961 L466.991945,288.566726 L465.47623,285.530226 L463.960515,286.304211 L462.4448,285.530226 L461.672107,286.304211 L460.156392,286.304211 L460.929085,287.078197 L460.929085,287.852183 C461.672107,289.370433 461.672107,290.144419 462.4448,291.662669 L462.4448,291.662669 L463.217494,292.436655 L463.217494,293.210641 L464.733209,293.984627 L464.733209,296.306661 L465.505902,296.276863 L465.505809,296.305438 L466.546102,293.865511 L467.318795,293.865511 L468.091489,294.639497 L468.091489,296.157747 L467.318795,297.675997 L468.091489,298.449983 L468.091489,299.223969 L472.638634,299.223969 C474.184021,297.675997 475.699736,296.157747 477.215451,294.639497 L477.215451,294.639497 L477.988144,293.865511 L477.988144,296.931733 L478.760838,298.449983 L480.276553,299.223969 L481.792268,299.223969 L483.307983,299.997955 C484.051004,300.771941 484.051004,301.516205 484.823698,302.290191 L484.823698,302.290191 L485.596391,302.290191 L485.596391,303.064176 C485.596391,303.838162 484.823698,304.582426 484.823698,305.356412 L484.823698,305.356412 L484.051004,306.130398 L483.278311,307.648648 L482.505617,307.648648 L481.732924,308.422634 L481.732924,311.459134 L480.96023,311.459134 L479.444515,312.23312 L479.444515,313.007106 L478.671822,313.781092 L477.156107,313.781092 L476.383413,314.555078 L476.383413,315.329064 L475.610719,316.10305 L474.095004,316.10305 L472.579289,316.877035 L471.806596,316.877035 L470.290881,317.651021 L469.518187,318.425007 L469.518187,319.198993 L467.229779,319.972979 L464.198349,320.746965 L462.682634,322.265215 L461.137247,322.265215 L458.105817,323.813187 L455.817408,323.813187 L455.044715,324.587173 L454.272021,324.587173 L454.272021,325.361159 L451.210919,325.361159 L450.438226,323.842909 L450.438226,321.550673 L449.665532,320.032423 L448.892838,319.258437 L449.665532,319.258437 L449.665532,316.162417 L448.892838,315.388431 L448.892838,314.614445 L448.120145,313.840459 L446.574758,310.803959 L445.059043,309.285709 L444.286349,309.285709 L442.770634,306.993473 L442.770634,303.956973 L441.254919,301.664737 L440.482226,300.890752 L438.966511,300.116766 L438.193817,298.598516 L438.193817,297.82453 L437.421124,296.30628 L436.64843,295.532294 L435.875737,294.014044 C435.103043,292.495794 434.360022,291.721808 433.587328,290.203558 L433.587328,290.203558 L432.814634,290.203558 L432.814634,287.137336 L432.041941,287.911322 L430.496554,290.947822 L429.72386,291.721808 C428.980839,291.721808 428.980839,290.977544 428.208145,290.203558 L428.208145,290.203558 L426.69243,286.393072 L427.465124,288.685308 L428.208145,290.977544 L429.72386,294.78803 L430.496554,296.30628 L431.239499,296.24676 L433.527908,298.538996 L432.755214,299.312982 L432.755214,300.831232 L435.043623,303.123468 L435.043623,303.897454 L435.816316,306.189689 L435.043623,306.963675 L435.043623,309.255911 L435.816316,312.292411 C436.58901,313.036675 437.332031,313.036675 438.104725,313.810661 L438.104725,313.810661 L439.62044,316.102897 L440.393133,318.395133 L441.908848,319.169119 L445.712972,321.461355 C446.455993,322.205619 447.971708,323.723869 448.744402,324.497855 L448.744402,324.497855 L449.517095,325.271841 L449.517095,326.790091 L450.200696,327.564077 C450.943718,327.564077 450.943718,328.338063 451.716411,328.338063 L451.716411,328.338063 L453.261874,329.886034 L454.034568,329.886034 L456.322976,329.112049 L458.611385,329.112049 L460.1271,328.338063 L460.899793,328.338063 L461.672487,327.564077 L464.733589,327.564077 L467.140915,326.670975 L467.913608,326.670975 L467.913608,329.737197 L467.140915,330.511183 L466.368221,332.803419 C465.595527,335.095655 464.852506,336.613905 464.079812,338.132155 L464.079812,338.132155 L462.564097,341.168655 C461.01871,342.686905 459.502995,344.97914 457.98728,346.49739 L457.98728,346.49739 L455.698872,348.01564 L452.667442,350.307876 L450.379033,351.826126 L446.545162,355.66641 L445.029447,356.440396 L444.256753,357.214382 L443.48406,357.214382 L443.48406,358.732632 L442.711366,359.506618 L441.938672,361.024868 L441.165979,361.798854 L440.393285,364.09109 L440.393285,365.60934 L441.909,366.383326 L441.909,367.157312 L441.136307,368.675562 L441.136307,370.223533 L441.909,371.741783 L442.711442,373.91498 L443.484136,374.688966 L443.484136,383.857757 L441.938749,386.894257 L440.423034,388.412507 C438.877646,389.186493 437.361932,389.930757 435.846217,390.704743 L435.846217,390.704743 L430.496706,396.0632 L430.496706,397.58145 L432.042093,400.61795 L432.042093,404.458234 L432.814787,405.23222 L432.814787,406.006206 L432.042093,406.780192 C430.496706,407.554178 428.980991,408.298442 427.465276,409.072428 L427.465276,409.072428 L426.692582,409.846414 L426.692582,410.6204 L426.03873,410.590602 L426.03873,412.108852 L425.266036,413.627102 L425.266036,415.919338 L424.493343,416.693324 C424.493343,417.437588 423.750321,417.437588 422.977628,418.211574 L422.977628,418.211574 L421.43224,421.248074 L419.916526,422.766324 C418.400811,423.54031 417.628117,425.05856 416.112402,426.57681 L416.112402,426.57681 L414.596687,428.09506 L412.308279,428.869045 L411.535585,428.869045 L411.535585,429.643031 L410.01987,429.643031 L409.247176,430.417017 L406.958768,429.643031 L404.670359,429.643031 L402.381951,430.417017 L399.350521,431.964989 L398.577827,431.964989 L397.805134,431.191003 L397.03244,431.191003 L396.259747,429.672753 L396.259747,427.380517 L395.487053,425.862267 L394.862949,425.892065 L394.862949,423.599829 C393.347234,421.307593 392.57454,418.271093 391.058825,415.978858 L391.058825,415.978858 L389.54311,414.460608 L388.770417,412.942358 L387.997723,410.650122 L387.225029,409.131872 L386.452336,405.321386 L386.452336,400.766636 L385.679642,399.99265 L384.906949,398.4744 L384.134255,395.4379 L383.361562,393.91965 L381.845847,391.627414 L381.845847,386.298678 L382.61854,384.006442 L382.61854,383.232456 L383.391234,380.94022 L386.452336,377.873998 L386.452336,374.837498 L385.679642,374.063512 C385.679642,373.289527 384.906949,372.545262 384.906949,371.771277 L384.906949,371.771277 L384.906949,370.997291 L385.679642,370.223305 C385.679642,368.705055 384.906949,367.931069 384.906949,366.412819 L384.906949,366.412819 L384.134255,364.894569 L384.134255,363.346597 L383.361562,361.828347 L381.845847,359.536111 L378.041723,355.725625 L376.526008,353.433389 L376.526008,352.659403 L377.298702,351.885418 C377.298702,351.141153 378.071395,349.622903 378.071395,348.848918 L378.071395,348.848918 L377.298702,348.848918 L378.071395,346.556682 L378.071395,345.038432 L377.298702,343.520182 L376.526008,343.520182 L375.753315,342.746196 L374.980621,342.746196 L374.980621,341.97221 L372.692213,342.746196 L371.919519,342.746196 L371.146825,343.520182 L369.63111,343.520182 L368.085723,340.483682 L366.570008,338.965432 L361.25017,338.965432 L359.734455,339.739417 L356.703025,341.257668 L355.18731,342.031653 L352.898902,342.805639 L351.383187,342.031653 L350.610493,342.031653 L348.500422,341.376707 L344.696298,341.376707 C343.180583,342.120971 342.40789,342.120971 340.892175,342.894957 L340.892175,342.894957 L339.346788,342.894957 L337.058379,342.120971 L334.769971,340.602721 L331.738541,337.566221 L330.965847,337.566221 L329.450132,336.792235 L328.677439,335.273985 L328.677439,332.981749 L327.904745,331.463499 L327.132051,330.689513 L326.359358,330.689513 L325.586664,329.915528 L325.586664,328.367556 L324.813971,328.367556 L324.041277,327.59357 L323.268584,327.59357 L321.723197,326.045598 L321.723197,322.979376 L320.950503,321.461126 L320.177809,320.68714 L321.693524,320.68714 L322.466218,319.16889 L322.466218,315.447722 L323.238911,314.673736 L323.238911,308.541217 L321.693524,306.993245 L321.693524,304.701009 L322.466218,303.927023 L322.43647,303.153037 L322.43647,302.379051 L323.209163,300.860801 L324.724878,299.342551 L325.497572,299.342551 L326.270265,297.824301 L326.270265,296.306051 L327.013287,294.043537 L328.529002,293.269551 L330.044717,290.977315 L330.81741,290.203329 L333.105819,290.203329 L337.682636,285.618857 L336.909942,282.582357 L337.682636,280.290122 L337.682636,278.771872 L339.198351,277.253622 L341.486759,275.735372 L343.002474,274.961386 L343.715747,271.924886 L344.488441,270.406636 L346.004156,270.406636 L347.519871,271.180622 L349.808279,271.180622 L352.096688,271.954607 L352.869382,271.954607 L355.15779,270.436357 L357.446199,269.662372 L358.961914,268.888386 L361.250322,268.1144 C363.207894,267.443612 365.187752,267.354174 367.170582,267.342248 L368.085875,267.340414 L368.858569,268.1144 L371.146978,267.340414 L373.435386,267.340414 L374.178331,266.59615 L375.694046,266.59615 L377.982455,265.822164 L379.49817,265.822164 L379.49817,267.340414 L381.013885,266.566428 L381.013885,267.340414 L380.241191,268.858664 L380.241191,270.376914 L381.013885,271.1509 L381.013885,273.443136 L379.49817,274.961386 L380.270863,276.479636 L381.043557,276.479636 L381.043557,277.253622 L382.559272,277.938366 L384.847681,278.712352 L385.620374,278.712352 L387.136089,279.486338 L390.167519,280.260324 L390.940213,282.552559 L393.228621,283.326545 L396.260051,284.100531 L399.291481,284.904315 L400.836868,283.356343 L400.064174,281.064107 L400.034502,280.260324 L401.550217,278.742074 L403.065932,278.742074 L406.097362,279.516059 L406.870056,280.290045 L407.642749,280.290045 L408.415443,281.064031 L410.703851,281.064031 L410.733524,281.838017 L413.764953,281.838017 C416.053362,281.838017 417.569077,282.582281 419.084792,283.356267 L419.084792,283.356267 L421.997305,283.415787 L422.769999,282.641801 L425.801428,282.641801 L426.574122,284.160051 L427.346816,283.386065 L428.862531,284.160051 L430.378246,284.160051 L431.923633,282.612079 L433.46902,279.575579 L433.46902,278.801593 L434.241713,276.509357 L435.014407,274.991107 L435.014407,272.698872 L435.7871,271.924886 L435.014407,270.406636 L435.7871,269.63265 L434.271386,269.63265 L432.755671,268.858664 L431.239956,270.376914 L428.208526,270.376914 L426.692811,268.858664 L424.404402,268.858664 L423.631709,269.63265 L422.115994,269.63265 L419.827585,268.1144 L417.539177,268.1144 L416.023462,265.822164 L414.507747,264.303914 L415.28044,262.011678 L413.764725,260.493428 L415.992809,258.260438 L415.310265,258.260712 C413.895597,258.983099 413.154032,259.679594 412.433215,260.398529 L412.278835,260.552948 L411.506141,259.034698 L411.506141,258.260712 L409.217733,258.260712 L406.929324,259.034698 L408.445039,260.552948 L407.672345,261.326934 L406.15663,261.326934 L405.383937,259.808684 L404.611243,260.582669 L406.15663,263.619169 L405.383937,264.393155 L407.672345,266.685391 L407.672345,268.203641 L405.383937,267.429655 L406.15663,268.947905 L404.640915,268.947905 L405.413609,271.240141 L403.897894,271.240141 L402.382179,269.721891 L401.609486,267.429655 L401.609486,265.911405 C400.836792,264.393155 400.093771,263.648891 399.321077,262.874905 L399.321077,262.874905 L399.321077,261.326934 L397.805362,260.552948 L397.805362,255.19449 L397.032668,255.19449 L396.259975,254.420504 C395.516954,253.67624 394.001239,253.67624 393.228545,252.902254 L393.228545,252.902254 L391.71283,252.128268 L389.424421,251.354282 L387.908707,249.062046 L388.6814,249.062046 L387.908707,247.543796 L387.908707,246.76981 L386.392992,245.995825 L385.620298,247.514075 L384.847604,246.740089 L384.847604,245.966103 L385.620298,245.966103 L384.104583,245.192117 L382.588868,245.966103 L382.588868,248.258339 L383.361562,249.776589 L385.64997,251.294839 L386.422664,253.587075 L387.194809,254.360438 L385.739215,254.36106 L384.2235,252.84281 L381.935091,251.32456 L380.419376,249.80631 L379.646683,246.76981 L378.873989,246.76981 L377.358274,245.995825 L375.069866,248.28806 L374.297172,248.28806 L372.008764,249.80631 L367.431947,249.032325 L364.400517,249.80631 L364.400517,252.84281 L362.112108,254.36106 L359.080678,255.135046 L359.080678,255.909032 L357.564963,257.427282 L356.79227,259.719518 L357.564963,261.237768 L356.049248,262.756018 L355.276555,264.274268 L353.76084,265.048254 L352.245125,267.34049 L347.668308,267.34049 L346.152593,268.114476 L345.379899,268.888462 L344.607206,268.888462 L343.834512,268.114476 L343.061819,266.596226 L340.77341,265.82224 L340.000716,266.596226 L338.455329,266.596226 L338.455329,262.78574 L337.682636,262.78574 L336.909942,262.011754 L336.909942,260.493504 L337.682636,259.719518 L337.682636,258.945532 L338.455329,257.427282 L338.455329,255.909032 L337.682636,255.135046 L337.682636,252.068825 L336.909942,250.550575 L339.941372,248.258339 L342.229781,249.032325 L345.261211,249.032325 L347.549619,249.80631 L352.869458,249.80631 L353.642151,248.28806 L354.414845,242.185339 L352.126436,239.148839 L350.610721,237.630589 L347.579291,236.112339 L347.579291,233.820103 L350.610721,233.046117 L354.385096,233.820103 L353.612403,230.009617 L355.900811,231.527867 L360.477629,229.235631 L361.250322,226.199131 C362.766037,225.454867 363.538731,225.454867 365.054446,224.680881 L365.054446,224.680881 L365.827139,223.906895 L367.372526,218.578159 L370.403956,217.059909 L371.919671,217.059909 L372.692365,216.285923 L374.20808,216.285923 L374.980773,217.059909 L376.496488,215.541659 L375.723795,214.023409 L375.723795,211.731173 L374.951101,209.438937 L374.951101,204.854465 L376.496488,202.591951 L378.012203,202.591951 L378.784897,201.817965 L380.300612,201.04398 L380.300612,203.336215 L379.527918,204.854465 L379.527918,205.628451 L381.043633,206.402437 L380.27094,207.920687 L379.498246,207.146701 L377.982531,210.183201 L378.755225,211.701451 L378.755225,213.219701 L381.043633,213.993687 L381.043633,215.511937 L382.559348,214.023485 L384.075063,213.249499 L386.363472,214.767749 L387.136165,216.285999 L388.65188,215.512013 C390.940289,214.767749 392.456004,213.249499 394.744412,212.475513 L394.744412,212.475513 L397.003148,213.219701 L397.003148,213.993687 L399.291557,213.993687 L400.064251,212.475437 L403.125353,210.927465 L402.352659,207.890965 L402.352659,204.854465 L403.868374,202.56223 L405.354341,202.592028 L406.870056,205.628528 L408.385771,205.628528 C408.385771,204.110278 409.158464,201.818042 409.158464,200.299792 L409.158464,200.299792 L408.385771,201.073778 L406.870056,199.555528 L406.870056,197.263292 L409.901486,195.745042 L412.932916,194.971056 L415.221324,195.745042 L417.509733,195.745042 L419.798141,193.452806 L417.509733,191.16057 L413.705609,191.16057 L409.901486,192.67882 L406.097362,193.452806 L404.581647,191.16057 L402.293239,189.64232 L403.065932,185.057848 L402.293239,181.247362 L403.065932,178.210862 L405.354341,175.174362 L409.931158,169.845626 L411.446873,169.07164 L411.446873,166.779404 L408.415443,164.487168 L404.611319,166.005418 L402.322911,169.815904 L402.322911,172.852404 L399.291481,176.66289 L395.487357,180.473376 L393.971642,186.576098 L395.487357,189.612598 L397.805514,191.904834 L395.517106,196.489306 L393.228697,197.263292 L392.456004,204.110278 L390.940289,207.920763 L388.65188,207.920763 L387.136165,210.957263 L384.847757,210.957263 L384.075063,207.146778 L382.559348,202.562306 L381.043633,197.23357 L380.300688,197.203772 L375.723871,201.788244 L372.692441,202.56223 L369.661011,200.269994 L368.888317,195.685522 L368.115624,185.772162 L370.404032,182.735662 L375.723871,178.925176 L380.300688,173.59644 C383.331966,167.493566 386.393068,162.16483 389.424498,156.062108 C392.051605,152.088635 394.701114,148.69674 397.334294,145.382389 L398.548307,143.856359 L403.125124,140.819859 L406.929248,140.819859 L409.960678,135.491123 L413.764801,135.491123 L417.568925,133.972873 L424.404478,138.557345 L421.373048,140.075595 L423.661457,143.886081 L424.404402,140.849581 L428.208526,144.660067 L434.301058,146.178317 L442.682303,153.025303 L444.198018,155.317539 L444.198018,159.128025 L441.909609,162.164525 L438.105485,163.682775 L428.981676,159.872289 L427.465961,160.646275 L431.270084,164.456761 L431.270084,172.077733 L434.301514,173.595983 L436.589923,174.399766 L436.589923,172.107531 L435.074208,169.815295 L436.589923,168.297045 L441.909761,171.333545 L443.425476,170.559559 L441.909761,166.749073 L445.684136,162.164601 L447.972545,162.164601 L450.260953,163.682851 L451.776668,159.872365 L450.260953,156.835865 L451.033647,153.799365 L449.517932,149.988879 L455.610464,151.507129 L457.898873,155.317615 L454.867443,156.091601 L454.867443,159.128101 L456.383158,160.646351 L459.414588,159.128101 L460.157609,155.317615 C464.73473,153.025379 468.538854,149.988879 472.342977,147.696643 L472.342977,147.696643 L473.858692,147.696643 L471.570284,151.507129 L474.631386,152.281115 L476.147101,149.988879 L479.951224,149.988879 L482.982654,147.696643 L485.271063,151.507129 L487.559471,147.696643 L485.271063,143.886157 L486.786778,142.367907 L492.87931,143.886157 L495.197467,146.178393 L502.805714,153.025379 L504.321428,149.988879 L502.03302,146.952379 L502.03302,145.434129 L499.744611,144.660143 L500.517305,141.623643 L499.744611,137.039171 L499.744611,134.746936 L503.548735,128.644214 L505.06445,121.767506 L506.580165,120.249256 L511.900003,122.541492 L512.672697,126.351978 L510.384288,131.680714 L513.415718,133.198964 L514.188412,137.783436 L513.415718,146.178698 L515.704127,149.989184 L514.931433,153.79967 L511.12731,161.420642 L513.415718,162.194628 L514.188412,159.902392 L516.47682,158.384142 L517.249514,155.347642 L518.765229,153.055406 L517.249514,150.018906 L518.022207,146.20842 L515.733799,145.434434 L514.961105,142.397934 L516.47682,136.295212 L513.44539,130.966476 L517.249514,126.382004 L516.47682,121.053269 L517.249514,121.053269 L518.022207,124.863754 L517.249514,131.71074 L519.537922,133.22899 L518.765229,128.644519 L522.509932,125.608019 L527.086749,125.608019 L530.890873,129.418504 L529.375158,123.315783 L529.375158,115.694811 L533.179281,114.176561 L538.49912,114.176561 L543.075937,113.402575 L541.560222,109.592089 L543.84863,104.263353 L546.137039,104.263353 L549.941162,100.452867 L555.261001,98.9346172 L556.033694,96.6423813 L560.521343,95.1241313 L562.037058,97.4163672 L566.613875,92.8318954 L570.417998,92.8318954 L571.190692,89.0214095 L573.4791,85.2109235 L578.798939,81.4004376 Z M571.485809,336.744438 L574.517474,337.269613 L576.033189,337.269613 L576.805882,338.043599 L577.578576,338.043599 L579.094291,339.561849 L579.866984,341.080099 L579.866984,345.664571 L580.639678,346.438557 L581.412371,347.956807 L581.412371,348.730792 L579.896657,348.730792 L575.319839,345.694292 L575.319839,344.920307 L573.804124,343.402057 L573.804124,341.883807 L573.031431,340.365557 L573.031431,338.847307 L571.486044,337.299335 L571.485809,336.744438 Z M570.813809,335.852438 L571.486044,336.525349 L571.486044,336.525349 L571.485809,336.744438 L571.248286,336.703984 L570.813809,335.852438 Z M569.702899,332.893499 L570.475593,335.185734 L570.813809,335.852438 L570.721043,335.759069 C570.467874,335.505477 570.215805,335.252985 569.962636,334.999393 L569.197635,334.233113 L569.197635,335.751363 L568.424942,334.233113 L568.424809,332.893438 L569.702899,332.893499 Z M569.196809,329.108438 L569.197635,330.422627 L568.424942,332.714863 L568.424809,332.893438 L568.187184,332.893499 L568.187184,331.375249 C568.530603,330.700471 568.868162,330.025693 569.137233,329.282966 L569.196809,329.108438 Z M569.360809,328.581438 L569.325216,328.712118 C569.296352,328.809737 569.266173,328.906028 569.234802,329.001125 L569.196809,329.108438 L569.197635,328.904377 L569.360809,328.581438 Z M569.673809,326.804438 L569.970329,327.386127 L569.360809,328.581438 L569.407742,328.415148 C569.512191,328.013526 569.593648,327.588546 569.644283,327.131715 L569.673809,326.804438 Z M388.041809,255.208438 L388.711072,255.87931 L390.226787,255.87931 L390.999481,256.653296 L390.226787,257.427282 C391.742502,257.427282 392.515196,258.171546 394.030911,258.945532 L394.030911,258.945532 L395.546626,260.463782 L395.546626,261.237768 L394.773932,262.011754 L393.258217,260.493504 L391.742502,259.719518 L390.969809,261.237768 L392.485524,262.011754 L392.485524,263.530004 L391.71283,263.530004 L390.940136,265.82224 L390.167443,265.82224 L390.167443,265.048254 L390.940136,263.530004 L391.71283,262.756018 C390.969809,262.011754 390.969809,260.493504 390.197115,259.719518 L390.197115,259.719518 L389.424421,259.719518 L388.651728,258.201268 L388.041809,255.208438 Z M417.657809,258.200438 L416.053134,258.201192 L415.992809,258.260438 L417.598673,258.260712 L417.657809,258.200438 Z M441.136611,238.374853 L438.848203,239.148839 L437.332488,239.148839 L435.816773,239.922825 L433.528364,239.922825 L432.012649,241.441075 L432.012649,242.959325 L433.528364,244.507296 L435.816773,244.507296 L435.044079,245.281282 L432.755671,246.055268 L429.724241,247.573518 L428.208526,246.799532 L428.981219,245.281282 L426.692811,244.507296 L426.692811,243.73331 L428.327366,243.73331 L427.554673,242.959325 L424.523243,242.185339 L424.523243,240.667089 L422.234834,241.441075 L421.462141,242.959325 L419.946426,245.25156 L419.946426,246.025546 L419.173732,246.799532 L418.401039,246.799532 L417.628345,250.610018 L416.855652,252.128268 L416.082958,254.420504 L416.855652,255.938754 L416.855652,256.71274 L418.371367,257.486726 L417.657809,258.200438 L419.084564,258.201192 L420.600279,255.908956 L424.404402,255.908956 L426.692811,254.390706 L431.269628,254.420504 L435.073751,254.420504 L438.877875,256.71274 L441.909305,257.486726 L444.197713,256.71274 L445.713428,256.71274 L448.001837,255.19449 L448.001837,253.67624 L447.229143,251.384004 L445.713428,250.610018 L444.197713,250.610018 L443.42502,249.836032 L440.39359,247.543796 L438.105181,246.76981 L436.589466,245.25156 L438.105181,244.477575 L439.620896,242.185339 L438.105181,240.667089 L441.136611,239.148839 L441.136611,238.374853 Z M387.25493,254.36106 L388.027623,255.135046 L388.041809,255.208438 L387.194809,254.360438 L387.25493,254.36106 Z" id="Combined-Shape" fill="#2CC84D"></path>
                    <path d="M734.305387,439.898385 L732.831071,439.898385 L730.605167,438.462974 L730.605167,436.295808 L729.853578,435.564053 L729.853578,436.999463 L728.379262,434.128642 L727.627674,431.961477 L726.153358,431.229721 L724.679042,429.794311 L723.927454,429.794311 L724.679042,431.229721 L726.153358,433.396887 L726.904947,434.128642 L726.904947,434.860398 L727.656535,436.295808 L727.656535,439.898385 L726.18222,440.63014 L726.18222,441.361895 L728.408124,442.09365 L729.159713,443.529061 L727.685397,445.696227 L728.436986,446.427982 L728.436986,447.159737 L729.911301,446.427982 C730.66289,444.992572 731.385617,443.557161 732.137206,442.825406 L732.137206,441.389995 L732.888794,440.65824 L734.36311,440.65824 L735.114699,439.222829 L735.866287,437.055664 L735.114699,437.055664 L734.305387,439.898385 Z" id="Path" fill="#2CC84D"></path>
                    <path d="M726.098151,448.994234 L724.584589,450.463781 C724.584589,449.714623 723.812993,448.994234 723.812993,448.245077 L722.299431,448.994234 L722.299431,450.463781 L721.527835,451.212938 L720.756239,453.431643 L719.242677,454.901189 C718.471081,455.650347 716.957519,456.370736 716.215553,457.119894 L714.701991,457.869051 L711.674868,460.808145 L710.903272,463.026849 L710.903272,463.776007 L713.18843,463.776007 L714.701991,464.525164 L716.987149,464.525164 C717.758745,463.776007 718.500711,463.055617 720.014273,462.30646 L721.527835,459.367366 L722.299431,457.148662 L722.299431,457.119894 L723.812993,457.119894 L723.041397,455.650347 L723.812993,454.1808 C724.584589,453.431643 725.326555,451.962096 726.098151,450.492549 L726.098151,448.994234 Z" id="Path" fill="#2CC84D"></path>
                    <path d="M605.952667,337.600379 L605.150045,339.130234 L603.57562,340.660088 L601.198573,342.219891 L600.395951,342.999793 L599.593328,344.529647 L598.018904,346.059502 L595.641857,346.839403 L594.098333,346.839403 L594.098333,349.11921 L592.523909,349.899112 L590.949485,349.11921 L589.344239,349.899112 L589.344239,353.738722 L590.146862,355.268577 L590.949485,356.048478 L590.949485,359.108187 L594.098333,359.108187 L594.900956,359.888089 L597.278003,359.108187 L598.080626,359.888089 L599.65505,359.888089 L600.457673,361.417943 L602.83472,360.638041 L602.83472,361.417943 L603.637342,358.358234 L603.637342,356.048478 L606.014389,354.518624 L606.014389,352.208868 L606.817012,350.679014 L609.194059,350.679014 L606.817012,348.369258 L606.817012,347.589356 L605.242588,345.2796 L606.817012,342.969844 L608.391436,342.189942 L608.391436,341.410041 L609.965861,341.410041 L609.965861,340.630139 C609.163238,340.630139 607.588814,339.850237 606.817012,339.100285 L606.817012,338.320383 L606.014389,337.540481 L605.952667,337.600379 Z" id="Path" fill="#2CC84D"></path>
                    <polygon id="Path" fill="#2CC84D" points="588.026953 366.172657 587.230464 366.172657 585.668072 365.401067 583.309191 365.401067 581.746799 367.686206 584.10568 367.686206 584.10568 368.457795 588.026953 369.229384 590.385834 369.229384 595.103595 370.772639 599.821357 370.772639 602.180237 371.544228 604.539118 370.772639 602.180237 369.25909 599.055454 368.487501 598.258965 366.973952 594.337692 366.202362 593.541203 366.973952"></polygon>
                    <path d="M619.702435,332.823253 L616.477952,334.618059 L616.477952,338.13875 L618.090193,336.378405 L618.912095,336.378405 L619.733997,335.481002 L621.346239,336.378405 L620.524337,337.275808 L621.346239,339.036154 L623.780383,340.796499 L624.602285,339.899096 L623.780383,338.13875 L624.602285,337.241347 L625.424186,339.899096 L626.246088,337.241347 C626.246088,335.481002 625.424186,333.720656 625.424186,331.92585 L623.811945,331.028446 L623.811945,332.788792 L622.199703,332.788792 L622.199703,333.686195 L620.587461,334.583598 L619.702435,332.823253 Z" id="Path" fill="#2CC84D"></path>
                    <polygon id="Path" fill="#2CC84D" points="625.061094 326.43057 624.289498 325.65898 622.00434 325.65898 623.517902 327.172529 623.517902 327.944119 622.00434 327.944119 622.00434 329.457668 622.775936 329.457668 622.775936 330.971216 623.547532 330.199627 622.775936 328.686078 622.775936 327.914489 624.289498 328.686078"></polygon>
                    <path d="M451.213657,396.721011 L450.41963,398.234571 L450.41963,401.261691 L451.213657,402.775252 L451.213657,405.060407 L452.007683,406.573967 C452.80171,407.345562 454.359272,407.345562 455.122807,408.087527 L458.237931,406.544337 L459.031957,403.517217 C459.825984,398.946906 461.383546,394.406377 462.941108,390.607662 L462.941108,389.094101 L463.735134,388.322506 L463.735134,387.550911 L462.941108,386.037351 L463.735134,385.265756 L464.529161,386.779316 L464.529161,385.23605 L463.735134,384.464455 L463.735134,379.241221 L462.147081,377.698031 L461.353054,378.469626 L461.353054,379.983186 L459.795493,381.496746 L459.001466,381.496746 L459.001466,382.268341 L458.207439,383.039936 L457.474474,384.553497 L455.916912,386.067057 L455.122885,386.067057 L454.328859,386.838652 L452.771297,386.838652 L452.771297,388.352212 L451.97727,389.865772 L451.97727,392.150928 L452.771297,393.664488 L453.565323,394.436083 L453.565323,395.949643 L451.213657,396.721011 Z" id="Path" fill="#2CC84D"></path>
                    <path d="M576.201963,350.393034 L573.077179,347.358046 L570.718299,347.358046 L568.359418,345.066951 L566.797026,344.29335 L565.234634,342.775855 L563.672242,340.48476 C562.10985,340.48476 560.547459,339.71116 558.954481,339.71116 L558.954481,340.48476 L562.875753,344.29335 L563.672242,345.810844 L566.031123,347.328339 L567.624101,350.363327 L569.186493,351.880822 L570.748885,354.91581 L571.545373,356.433305 L573.107765,357.950799 L573.904254,359.468294 L577.029038,360.985788 L578.59143,362.503282 L580.950311,362.503282 L580.950311,359.468294 L581.746799,357.177198 L580.950311,355.659704 L579.387919,355.659704 L578.59143,354.14221 L578.59143,352.624715 L577.794941,352.624715 L576.232549,351.851115 L577.029038,350.33362 L576.201963,350.393034 Z" id="Path" fill="#2CC84D"></path>
                    <path d="M658.507568,222.959845 L660.02113,225.999271 L660.02113,230.588161 L659.249534,232.882606 L659.249534,239.73619 L660.02113,242.030635 L661.534692,239.73619 L663.048254,241.255903 L663.048254,238.961458 L660.763096,235.922032 L662.276658,231.333142 L665.303781,232.107874 L662.306364,226.774003 L661.534768,222.959845 L661.534768,219.920419 C660.763172,217.625974 660.763172,216.106261 660.021206,213.811816 L659.24961,214.586548 L660.021206,216.106261 L657.736048,217.625974 L658.507568,222.959845 Z" id="Path" fill="#2CC84D"></path>
                    <polygon id="Path" fill="#2CC84D" points="618.349512 311.492341 613.93138 311.492341 613.033969 313.773032 613.033969 317.564326 612.136558 316.794239 612.136558 319.845017 613.033969 321.35562 613.033969 320.585533 613.93138 321.35562 613.033969 322.125708 613.033969 322.895796 613.93138 323.665883 616.589151 323.665883 618.349512 325.176487 619.246923 324.406399 620.144334 325.917002 621.904694 326.68709 621.904694 325.917002 621.007283 325.146914 621.007283 323.636311 618.349512 322.125708 616.55469 322.125708 615.657279 320.615105 615.657279 319.104502 617.417639 318.334414 618.31505 316.823811 617.452189 313.002869"></polygon>
                    <polygon id="Path" fill="#2CC84D" points="655.275595 249.628009 654.465149 251.962384 654.465149 255.054705 656.865365 255.054705 658.455135 251.962384 661.634674 254.296758 663.224444 251.204437 666.403983 250.416223 665.593537 247.323902 664.003767 248.870063 660.824228 247.293634 658.424013 244.201313 657.613567 246.535688 656.803121 250.416223"></polygon>
                    <polygon id="Path" fill="#2CC84D" points="640.49768 276.990408 641.269276 276.218818 642.040872 276.990408 643.554434 275.476859 643.554434 274.705269 642.040872 273.93368 641.269276 274.705269 639.755714 274.705269 638.242152 276.218818 638.242152 277.732367 639.755714 278.503957"></polygon>
                    <polygon id="Path" fill="#2CC84D" points="652.62874 265.364352 649.539838 268.406986 647.995387 266.885669 645.663593 271.479401 643.331799 270.703852 638.668212 271.479401 637.123761 273.000718 634.791967 274.522035 634.004624 276.043352 631.672831 276.818902 632.460174 278.340219 634.004624 279.115768 633.217282 281.412634 634.004624 282.188184 635.549075 281.412634 637.093526 276.818902 634.761733 275.297585 637.093526 275.297585 639.42532 273.776268 643.301565 273.000718 643.301565 275.297585 644.846016 276.073134 647.934917 273.0305 651.811162 273.0305 654.900064 271.509183 655.687407 269.987866 655.687407 268.466549 656.47475 266.169683 656.47475 263.127049 658.806543 260.084415 658.806543 257.787549 657.262092 253.969365 654.930299 254.744915 654.960611 257.727832 654.960611 260.770466"></polygon>
                    <path d="M671.428326,364.572374 L667.580272,363.060785 L667.580272,361.549197 L664.513835,360.008016 L656.817727,356.984839 L655.254494,356.984839 C654.472877,356.214249 652.939658,356.214249 652.188057,355.47325 L650.654838,355.47325 L647.558386,356.214249 L646.025168,358.496428 L643.710332,356.984839 L642.928716,353.191071 L642.928716,352.420481 L639.862279,351.649891 L639.080662,352.420481 L636.014225,353.191071 L636.795841,353.961661 L638.32906,354.732251 L639.110677,356.24384 L642.177114,356.24384 L642.177114,357.01443 L640.643895,357.01443 L638.32906,357.78502 L639.862279,358.55561 L639.862279,359.3262 L640.643895,360.096791 L641.425512,360.096791 L642.207129,359.3262 L645.273566,361.608379 L646.806784,361.608379 L650.654838,363.119968 L651.436455,364.631557 L652.218071,366.913736 L650.684853,367.684326 L649.903236,369.195915 L652.969673,369.195915 L653.75129,368.425325 L656.066125,369.195915 L657.599344,370.707504 L661.447398,370.707504 L662.980616,369.936914 L662.980616,368.425325 L666.047053,366.884145 L669.11349,367.654735 L669.895107,369.166324 L670.646709,371.389244 L672.179927,372.900833 C673.713146,372.900833 674.494763,373.671423 676.027981,373.671423 L676.809598,374.442013 L678.342817,374.442013 L678.342817,373.671423 L676.027981,372.900833 L676.809598,372.130243 L675.276379,372.130243 L675.276379,371.359653 L673.743161,371.359653 L672.209942,369.077474 L670.646709,367.595552 L670.646709,366.083963 L672.961544,366.083963 L671.428326,364.572374 Z" id="Path" fill="#2CC84D"></path>
                    <path d="M630.741745,385.022145 L629.208363,383.506653 L627.674981,382.734073 C626.893281,382.734073 626.141599,383.506653 625.359899,383.506653 L625.359899,384.279233 L624.578199,384.279233 L624.578199,385.051813 L623.796499,385.051813 L623.014799,385.824393 L621.481417,386.596974 L621.481417,388.112466 L620.699717,387.339886 L619.918017,388.112466 L620.699717,388.885046 L619.918017,389.657626 L619.19643,388.052978 L617.663049,389.568471 L617.663049,391.856543 L616.129667,392.629123 L614.566267,395.660108 L612.251185,396.432688 L609.936103,396.432688 L609.936103,397.205268 L608.402721,397.205268 L606.869339,397.977849 L605.305939,397.977849 L603.772557,398.750429 L602.990857,399.523009 L601.457475,400.295589 L600.675775,401.811081 L600.675775,400.295589 L599.894075,401.811081 L599.894075,404.842066 L599.112376,405.614646 L599.112376,407.130139 L599.894075,407.902719 L599.894075,408.675299 L600.675775,410.190792 L600.675775,411.706284 L599.112376,410.161124 L599.894075,412.449196 L599.112376,411.676616 L599.112376,412.449196 L600.645757,413.964689 L600.645757,415.480181 L601.427457,416.252761 L601.427457,417.025341 L601.48757,418.481422 L601.48757,421.512407 L602.26927,423.80048 L602.26927,428.376625 L601.48757,428.376625 L601.48757,429.892117 L603.020952,430.664697 L605.336034,432.18019 L608.402798,432.18019 L609.966198,430.63503 L610.747898,430.63503 L612.28128,429.119537 L615.348044,429.119537 L616.881426,429.892117 L619.948189,429.892117 L620.729889,429.119537 L621.511589,427.604045 L623.044971,426.831465 L625.360053,425.315972 L627.675135,425.315972 C629.208517,424.543392 631.523599,423.80048 633.056981,423.80048 L636.905444,423.80048 L639.220526,425.315972 L640.753908,425.315972 L643.820672,426.831465 L643.038972,427.604045 L645.354054,429.892117 L645.354054,431.40761 L646.887436,432.18019 L647.669136,429.892117 L649.202518,429.119537 L650.7359,426.831465 L650.7359,428.346957 L649.9542,429.862449 L649.9542,431.377942 L649.1725,432.893434 L650.705882,432.120854 L651.487582,430.605362 L652.269281,432.893434 L651.517677,433.695758 L653.832758,433.695758 L654.614458,434.468338 L655.396158,435.983831 L656.177858,438.271903 L657.71124,439.787396 L660.026322,440.559976 L661.559704,440.559976 C662.341404,440.559976 663.874786,441.332556 664.626468,442.075468 L666.15985,439.787396 L667.693232,439.014816 L667.693232,440.530308 L669.226614,441.302888 L670.759995,442.818381 L673.075077,440.530308 L675.390159,439.757728 L677.705241,439.757728 L679.238623,438.985148 L679.238623,436.697075 L680.020323,434.409003 L680.802023,432.89351 L681.583723,430.605438 L682.365423,429.089945 L683.147123,426.801873 L684.680505,425.28638 L685.462205,422.998308 L686.243905,421.482815 L686.243905,419.967323 C686.243905,419.194743 687.025605,417.67925 687.025605,416.936338 L687.025605,414.648265 L686.243905,412.360193 L686.243905,409.329208 L685.462205,407.813716 L683.928823,406.298223 L681.613741,404.010151 L681.613741,401.722078 L680.832041,401.722078 L680.050341,400.949498 L679.268641,401.722078 L678.486941,399.434005 L676.953559,397.918513 L676.953559,397.145933 C676.171859,396.373353 674.638477,395.63044 673.886795,394.85786 L671.571713,393.342368 L670.790013,391.826875 L670.790013,390.311383 L670.008313,388.795891 L669.226614,388.795891 C669.226614,388.02331 668.444914,386.507818 668.444914,385.764906 L668.444914,384.992326 L666.881514,383.447165 L665.348132,384.219745 L663.063068,382.733997 L663.063068,380.445924 L662.281368,379.673344 L662.281368,378.900764 L661.499668,378.900764 L661.499668,377.385272 L660.717968,376.612691 L659.936268,377.385272 L659.936268,378.157852 L658.372868,381.188837 L658.372868,381.961417 L659.214758,380.445924 L659.214758,385.022069 L658.433058,386.537562 L658.433058,388.053054 L657.651358,388.825634 L656.869658,390.341127 L655.336276,391.113707 L653.021194,390.341127 L653.021194,389.568547 L652.239494,388.795967 L651.457794,388.795967 L649.984526,388.05313 L649.202826,387.28055 L647.669444,386.537638 L646.136062,385.022145 L646.136062,384.249565 L647.699462,382.704405 L647.699462,381.931825 L648.481162,381.931825 L649.262862,381.159245 L650.044562,379.643752 L647.669367,378.158004 L647.669367,378.930584 L646.887667,378.930584 L645.354285,379.703164 L643.820903,378.930584 L643.039203,378.930584 L641.505821,378.158004 L640.724121,377.385424 L639.190739,376.612691 L638.409039,376.612691 L639.942421,377.385424 L639.942421,378.158004 L638.409039,378.930584 L637.627339,378.930584 L636.093957,379.703164 L635.312257,381.218657 L635.312257,381.991237 L634.530557,382.763817 L633.748857,384.279309 L634.530557,385.794802 L632.997175,385.794802 L630.741745,385.022145 Z" id="Path" fill="#2CC84D"></path>
                </g>
                <path d="M160.248252,207.861053 C152.832901,207.861053 146.874126,213.98513 146.874126,221.611578 C146.874126,229.235625 160.248252,247.861053 160.248252,247.861053 C160.248252,247.861053 173.622378,229.235625 173.622378,221.611578 C173.622378,213.98513 167.663603,207.861053 160.248252,207.861053 Z M160.783217,227.320512 C157.189533,227.320512 154.363636,224.467653 154.363636,220.834026 C154.363636,217.202888 157.187069,214.347539 160.783217,214.347539 C164.3769,214.347539 167.202797,217.200398 167.202797,220.834026 C167.202797,224.467591 164.376962,227.320512 160.783217,227.320512 Z" id="Fill-1-Copy-3" fill="#13100E"></path>
                <path d="M191.063636,218.861053 C183.265983,218.861053 177,224.98513 177,232.611578 C177,240.235625 191.063636,258.861053 191.063636,258.861053 C191.063636,258.861053 205.127273,240.235625 205.127273,232.611578 C205.127273,224.98513 198.86129,218.861053 191.063636,218.861053 Z M191.063636,238.320512 C187.430023,238.320512 184.572727,235.467653 184.572727,231.834026 C184.572727,228.202888 187.427531,225.347539 191.063636,225.347539 C194.69725,225.347539 197.554545,228.200398 197.554545,231.834026 C197.554545,235.467591 194.697312,238.320512 191.063636,238.320512 Z" id="Fill-1-Copy-4" fill="#13100E"></path>
            </g>
        </g>
    </g>
</svg>