<?xml version="1.0" encoding="UTF-8"?>
<svg width="1440px" height="635px" viewBox="0 0 1440 635" version="1.1" xmlns="http://www.w3.org/2000/svg" xmlns:xlink="http://www.w3.org/1999/xlink">
    <!-- Generator: Sketch 59.1 (86144) - https://sketch.com -->
    <title>mountains-advisors</title>
    <desc>Created with Sketch.</desc>
    <g id="Website" stroke="none" stroke-width="1" fill="none" fill-rule="evenodd">
        <g id="AlpineConsolidated-V2" transform="translate(0.000000, -3526.000000)">
            <g id="mountains-advisors" transform="translate(0.000000, 3526.000000)">
                <g id="Group-13" fill="#F1F1F1">
                    <polygon id="Rectangle" points="0 115 61.0458003 95 118.515625 55 205 115 205 291 0 291"></polygon>
                    <polygon id="Rectangle-Copy" points="205 115 258.43528 85 310.24486 65 332.715255 85 412 115 412 291 205 291"></polygon>
                    <polygon id="Rectangle-Copy-2" points="412 115 476.096396 95 508.297123 75 546.548198 95 617 115 617 291 412 291"></polygon>
                    <polygon id="Rectangle-Copy-4" points="617 115 696.342188 75 823 115 823 291 617 291"></polygon>
                    <polygon id="Rectangle-Copy-5" points="823 115 886.215112 85 958.77691 135 1028 115 1028 291 823 291"></polygon>
                    <polygon id="Rectangle-Copy-6" points="1028 115 1165.01834 95 1235 115 1235 291 1028 291"></polygon>
                    <polygon id="Rectangle-Copy-7" points="1235 115 1298.34222 95 1440 0 1440 291 1235 291"></polygon>
                </g>
                <g id="Group-13-Copy-2" transform="translate(720.000000, 222.000000) scale(-1, 1) translate(-720.000000, -222.000000) translate(0.000000, 55.000000)" fill="#E7E7E7">
                    <polygon id="Rectangle" transform="translate(102.500000, 167.000000) scale(-1, 1) translate(-102.500000, -167.000000) " points="0 158 61.0458003 138 118.515625 98 205 0 205 334 0 334"></polygon>
                    <polygon id="Rectangle-Copy" transform="translate(308.500000, 221.000000) scale(-1, 1) translate(-308.500000, -221.000000) " points="205 158 258.43528 128 310.24486 108 332.715255 128 412 158 412 334 205 334"></polygon>
                    <polygon id="Rectangle-Copy-2" transform="translate(514.500000, 226.000000) scale(-1, 1) translate(-514.500000, -226.000000) " points="412 158 476.096396 138 508.297123 118 546.548198 138 617 158 617 334 412 334"></polygon>
                    <polygon id="Rectangle-Copy-4" transform="translate(720.000000, 226.000000) scale(-1, 1) translate(-720.000000, -226.000000) " points="617 158 696.342188 118 823 158 823 334 617 334"></polygon>
                    <polygon id="Rectangle-Copy-5" transform="translate(925.500000, 231.000000) scale(-1, 1) translate(-925.500000, -231.000000) " points="823 158 886.215112 128 958.77691 178 1028 158 1028 334 823 334"></polygon>
                    <polygon id="Rectangle-Copy-6" transform="translate(1131.500000, 236.000000) scale(-1, 1) translate(-1131.500000, -236.000000) " points="1028 158 1165.01834 138 1235 158 1235 334 1028 334"></polygon>
                    <polygon id="Rectangle-Copy-7" transform="translate(1337.500000, 236.000000) scale(-1, 1) translate(-1337.500000, -236.000000) " points="1235 158 1298.34222 138 1440 158 1440 334 1235 334"></polygon>
                </g>
                <g id="Group-13-Copy-3" transform="translate(0.000000, 215.000000)" fill="#DDDDDD">
                    <polygon id="Rectangle" transform="translate(102.500000, 164.000000) scale(-1, 1) translate(-102.500000, -164.000000) " points="0 106 61.0458003 86 118.515625 46 205 106 205 282 0 282"></polygon>
                    <polygon id="Rectangle-Copy" transform="translate(308.500000, 169.000000) scale(-1, 1) translate(-308.500000, -169.000000) " points="205 106 258.43528 76 310.24486 56 332.715255 76 412 106 412 282 205 282"></polygon>
                    <polygon id="Rectangle-Copy-2" transform="translate(514.500000, 174.000000) scale(-1, 1) translate(-514.500000, -174.000000) " points="412 106 476.096396 86 508.297123 66 546.548198 86 617 106 617 282 412 282"></polygon>
                    <polygon id="Rectangle-Copy-4" transform="translate(720.000000, 174.000000) scale(-1, 1) translate(-720.000000, -174.000000) " points="617 106 696.342188 66 823 106 823 282 617 282"></polygon>
                    <polygon id="Rectangle-Copy-5" transform="translate(925.500000, 179.000000) scale(-1, 1) translate(-925.500000, -179.000000) " points="823 106 886.215112 76 958.77691 126 1028 106 1028 282 823 282"></polygon>
                    <polygon id="Rectangle-Copy-6" transform="translate(1131.500000, 184.000000) scale(-1, 1) translate(-1131.500000, -184.000000) " points="1028 106 1165.01834 86 1235 106 1235 282 1028 282"></polygon>
                    <polygon id="Rectangle-Copy-7" transform="translate(1343.500000, 141.000000) scale(-1, 1) translate(-1343.500000, -141.000000) " points="1235 -1.13686838e-13 1310.34222 86 1452 106 1452 282 1247 282"></polygon>
                </g>
                <g id="Group-13-Copy-4" transform="translate(723.000000, 482.000000) scale(-1, 1) translate(-723.000000, -482.000000) translate(0.000000, 329.000000)">
                    <polygon id="Rectangle" fill="#D4D4D4" transform="translate(105.500000, 107.581210) scale(-1, 1) translate(-105.500000, -107.581210) " points="0 87.6369962 61.0458003 73.1454707 118.515625 44.1624199 211 1.56319402e-13 205 215.16242 0 215.16242"></polygon>
                    <polygon id="Rectangle-Copy" fill="#D4D4D4" transform="translate(314.000000, 132.662420) scale(-1, 1) translate(-314.000000, -132.662420) " points="211 86.6668447 264.177138 64.7641898 315.736431 50.1624199 338.098273 64.7641898 417 86.6668447 417 215.16242 211 215.16242"></polygon>
                    <polygon id="Rectangle-Copy-2" fill="#D4D4D4" transform="translate(519.500000, 136.662420) scale(-1, 1) translate(-519.500000, -136.662420) " points="417 87.236494 481.096396 72.6994569 513.297123 58.1624199 551.548198 72.6994569 622 87.236494 622 215.16242 417 215.16242"></polygon>
                    <polygon id="Rectangle-Copy-4" fill="#D4D4D4" transform="translate(726.000000, 136.662420) scale(-1, 1) translate(-726.000000, -136.662420) " points="622 87.236494 702.1125 58.1624199 830 87.236494 830 215.16242 622 215.16242"></polygon>
                    <polygon id="Rectangle-Copy-5" fill="#D4D4D4" transform="translate(932.500000, 140.162420) scale(-1, 1) translate(-932.500000, -140.162420) " points="830 87.0070801 893.215112 65.1624199 965.77691 101.570187 1035 87.0070801 1035 215.16242 830 215.16242"></polygon>
                    <polygon id="Rectangle-Copy-6" fill="#D4D4D4" transform="translate(1138.000000, 144.162420) scale(-1, 1) translate(-1138.000000, -144.162420) " points="1035 87.6522158 1171.35641 73.1624199 1241 87.6522158 1241 215.16242 1035 215.16242"></polygon>
                    <polygon id="Rectangle-Copy-7" fill="#D4D4D4" transform="translate(1343.500000, 144.162420) scale(-1, 1) translate(-1343.500000, -144.162420) " points="1241 87.6522158 1304.34222 73.1624199 1446 87.6522158 1446 215.16242 1241 215.16242"></polygon>
                    <polygon id="Rectangle-Copy-14" fill="#CCCCCC" transform="translate(105.500000, 177.581210) scale(-1, 1) translate(-105.500000, -177.581210) " points="0 177.636996 61.0458003 133.145471 118.515625 114.16242 211 50 205 305.16242 0 305.16242"></polygon>
                    <polygon id="Rectangle-Copy-13" fill="#CCCCCC" transform="translate(314.000000, 222.662420) scale(-1, 1) translate(-314.000000, -222.662420) " points="211 176.666845 264.177138 166.76419 305.736431 140.16242 358.098273 144.76419 417 176.666845 417 305.16242 211 305.16242"></polygon>
                    <polygon id="Rectangle-Copy-12" fill="#CCCCCC" transform="translate(519.500000, 221.662420) scale(-1, 1) translate(-519.500000, -221.662420) " points="417 177.236494 471.096396 172.699457 533.297123 138.16242 591.548198 162.699457 622 177.236494 622 305.16242 417 305.16242"></polygon>
                    <polygon id="Rectangle-Copy-11" fill="#CCCCCC" transform="translate(726.000000, 230.162420) scale(-1, 1) translate(-726.000000, -230.162420) " points="622 177.236494 687.839844 155.16242 830 177.236494 830 305.16242 622 305.16242"></polygon>
                    <polygon id="Rectangle-Copy-10" fill="#CCCCCC" transform="translate(932.500000, 226.662420) scale(-1, 1) translate(-932.500000, -226.662420) " points="830 177.00708 894 160.78125 985 148.16242 1035 177.00708 1035 305.16242 830 305.16242"></polygon>
                    <polygon id="Rectangle-Copy-9" fill="#CCCCCC" transform="translate(1138.000000, 230.162420) scale(-1, 1) translate(-1138.000000, -230.162420) " points="1035 177.652216 1119.74945 155.16242 1241 177.652216 1241 305.16242 1035 305.16242"></polygon>
                    <polygon id="Rectangle-Copy-8" fill="#CCCCCC" transform="translate(1343.500000, 230.162420) scale(-1, 1) translate(-1343.500000, -230.162420) " points="1241 177.652216 1371.5 155.16242 1446 177.652216 1446 305.16242 1241 305.16242"></polygon>
                </g>
            </g>
        </g>
    </g>
</svg>