<?xml version="1.0" encoding="UTF-8"?>
<svg width="148px" height="178px" viewBox="0 0 148 178" version="1.1" xmlns="http://www.w3.org/2000/svg" xmlns:xlink="http://www.w3.org/1999/xlink">
    <!-- Generator: sketchtool 59.1 (101010) - https://sketch.com -->
    <title>03531D69-C51A-4F45-B8C0-622A71411298</title>
    <desc>Created with sketchtool.</desc>
    <g id="Website" stroke="none" stroke-width="1" fill="none" fill-rule="evenodd">
        <g id="AlpineConsolidated-V2" transform="translate(-1060.000000, -2695.000000)" fill-rule="nonzero">
            <g id="tom" transform="translate(1060.000000, 2695.000000)">
                <path d="M32.0831935,52.0117638 L31.6381168,51.9854798 C31.6381168,51.9854798 30.6200477,36.1396993 31.1124357,33.4534689 C31.6048237,30.7672385 35.7769793,23.9912091 35.8523269,21.0701745 C35.9276746,18.1491399 39.4322152,13.4775872 41.1844855,11.9583688 C42.9367558,10.4391504 53.8008318,4.48143135 57.0723205,2.26305712 C60.3438092,0.0446828932 72.7253513,0.393384687 76.6977481,1.44474688 C80.670145,2.49610907 94.795196,7.75292004 95.2718136,9.03733419 C95.7484311,10.3217483 100.879079,9.38778825 103.568814,10.9070066 C106.258548,12.426225 112.070829,17.5656338 112.258322,20.4866685 C112.445815,23.4077031 112.915423,37.4241134 112.915423,39.5268378 C112.915423,41.6295622 113.498929,51.5596781 113.498929,51.5596781 L113.654882,51.8295277 C113.745362,51.7986462 113.837869,51.7740558 113.93174,51.7559324 C116.970177,51.1724264 121.466503,56.3486329 119.539005,61.10079 C117.611508,65.8529471 118.575257,68.8107794 117.655315,70.4473999 C116.735373,72.0840204 115.333556,79.4330421 113.81609,80.8401152 C112.764728,81.8091207 110.837231,82.5783673 109.754328,82.9603623 C109.773603,82.8972805 109.792878,82.8412079 109.806896,82.7851352 C109.835939,82.7190466 109.858816,82.6504165 109.875234,82.5801196 L109.875234,82.5801196 C109.924469,82.0426682 109.591462,81.5438883 109.076199,81.383319 C108.534748,81.188817 108.273659,81.577821 108.187798,82.0404203 C108.122565,82.2980725 108.165625,82.5711969 108.306965,82.7962814 C108.448305,83.0213659 108.675608,83.1787964 108.936018,83.2319642 C109.218106,83.3354153 109.534363,83.2326499 109.70176,82.9831418 L109.70176,82.9831418 L109.747319,82.9673713 C106.418005,84.1799424 105.191416,97.6531489 108.170275,100.817749 L108.180789,100.817749 C107.930214,102.570019 107.129427,106.032506 104.665735,111.448773 C100.894849,119.707223 82.3137745,131.016376 78.0960599,133.176925 C73.8783452,135.337474 66.1560899,140.986794 66.1560899,140.986794 L61.8087072,139.975734 C61.8087072,139.975734 56.1821672,134.324662 52.1519455,129.027549 C48.1217237,123.730436 49.6374376,113.908961 49.6374376,113.908961 C47.62814,112.115269 45.7127002,110.21913 43.8987522,108.2281 C41.2703468,105.424468 34.6117195,94.8828095 34.6117195,94.8828095 C31.5469987,87.4934856 32.1585411,70.3790614 31.63286,66.5468462 C31.3945512,64.827869 31.6889326,58.4828981 32.0831935,52.0117638 Z M53.1437305,91.3870302 C53.1780604,91.3288553 53.2173397,91.273747 53.2611326,91.2223168 C53.2158073,91.2447094 53.1793763,91.2817578 53.1577486,91.3274531 C53.1514217,91.3468862 53.1467327,91.3668148 53.1437305,91.3870302 L53.1437305,91.3870302 Z" id="Shape" fill="#FFFFFF"></path>
                <path d="M109.077951,81.3693008 C109.593214,81.5298701 109.926221,82.02865 109.876987,82.5661014 L109.876987,82.5661014 C109.876987,82.5871287 109.847198,82.6572195 109.808648,82.7711171 C109.781605,82.8325235 109.748747,82.8912001 109.710521,82.9463441 L109.710521,82.9463441 C109.246169,83.107553 108.944779,83.1951665 108.944779,83.1951665 C108.684369,83.1419987 108.457066,82.9845682 108.315726,82.7594837 C108.174386,82.5343992 108.131326,82.2612748 108.196559,82.0036227 C108.275412,81.5638028 108.5365,81.1747988 109.077951,81.3693008 Z" id="Path" fill="#FFFFFF"></path>
                <path d="M109.875234,82.5713583 C109.858816,82.6416552 109.835939,82.7102853 109.806896,82.7763739 C109.845446,82.6624763 109.868225,82.5923855 109.875234,82.5713583 Z" id="Path" fill="#FFFFFF"></path>
                <path d="M109.703512,82.9691236 C109.536115,83.2186318 109.219858,83.3213972 108.93777,83.217946 C108.93777,83.217946 109.23916,83.1303325 109.703512,82.9691236 Z" id="Path" fill="#FFFFFF"></path>
                <path d="M53.2611326,91.2223168 C53.2173397,91.273747 53.1780604,91.3288553 53.1437305,91.3870302 C53.1467327,91.3668148 53.1514217,91.3468862 53.1577486,91.3274531 C53.1793763,91.2817578 53.2158073,91.2447094 53.2611326,91.2223168 Z" id="Path" fill="#FFFFFF"></path>
                <path d="M72.3170723,100.633761 C67.4702926,103.59685 57.9484557,101.262826 57.9484557,101.262826" id="Path" fill="#000000"></path>
                <path d="M92.0038294,160.091797 C91.8274342,160.400197 91.6434458,160.70334 91.4518642,161.001226 C91.2766372,161.279837 91.0856398,161.553191 90.8963946,161.824793 C90.7071494,162.096395 90.4968769,162.350474 90.290109,162.618571 C90.0833411,162.886668 89.8678119,163.133739 89.6330077,163.377304 C89.3982034,163.62087 89.1598947,163.859179 88.9058155,164.078212 C89.0302267,163.400084 89.2264809,162.774523 89.4052125,162.150715 C89.5488987,161.682859 89.6925848,161.218507 89.8467846,160.759412 C90.5675518,160.540963 91.2865667,160.318424 92.0038294,160.091797 Z" id="Path" fill="#000000"></path>
                <path d="M148.1308,133.851549 C146.8569,133.562425 145.574238,133.343391 144.309099,132.800187 C144.067285,132.693299 143.825472,132.584658 143.585411,132.474265 C143.833065,132.232451 144.076631,131.988886 144.316108,131.743568 L144.727891,132.018674 C145.756474,132.716078 146.995329,133.194448 148.1308,133.851549 Z" id="Path" fill="#000000"></path>
                <path d="M144.321364,131.750577 C144.080719,131.995895 143.837154,132.239461 143.590668,132.481274 C142.644442,132.051968 141.710482,131.605139 140.787035,131.15831 C138.453011,130.019334 136.154032,128.813772 133.876081,127.573165 L130.450393,125.726272 L128.740177,124.797568 L128.314375,124.564517 L128.100598,124.447114 L127.865794,124.313942 C127.545531,124.128767 127.238181,123.92211 126.945852,123.69539 C125.773583,122.792971 124.914971,121.610189 124.186026,120.557074 C123.457082,119.50396 122.696596,118.428066 121.958891,117.355676 C120.486983,115.209145 119.046617,113.032826 117.67459,110.807442 C116.989452,109.692998 116.31658,108.569793 115.669992,107.430817 C115.347575,106.861329 115.025157,106.290089 114.715005,105.71184 C114.452764,105.179281 114.143115,104.671409 113.789806,104.194374 C113.439077,103.74517 113.036142,103.339295 112.589501,102.985308 C112.266441,102.734127 111.926259,102.505778 111.571432,102.301922 C111.609982,102.345729 111.645027,102.389536 111.680073,102.435095 C112.143127,103.031177 112.502139,103.701213 112.741949,104.416912 C112.976729,105.120576 113.111223,105.853803 113.141466,106.594984 C113.172527,107.309112 113.127887,108.024522 113.008294,108.72925 C112.95923,109.079704 112.878626,109.41614 112.80503,109.75608 C112.731435,110.09602 112.640317,110.416686 112.54219,110.742608 C112.158422,112.038779 111.667253,113.300696 111.073787,114.515246 C110.492446,115.716036 109.849079,116.885794 109.14629,118.019787 L108.885202,118.440332 L108.639884,118.846858 C108.478675,119.11846 108.312209,119.386558 108.154505,119.661664 C107.846105,120.215382 107.530697,120.763842 107.245077,121.331578 C106.067551,123.58675 105.049482,125.941801 104.09099,128.326641 C103.132498,130.711481 102.266877,133.127862 101.390742,135.563517 L98.8411882,142.900273 C97.9930894,145.353452 97.1169542,147.801373 96.2127827,150.244038 C95.2980976,152.684951 94.3343489,155.111845 93.2777299,157.512455 C92.8975141,158.394975 92.4693208,159.256041 91.995068,160.091797 C91.2766372,160.317256 90.5576223,160.53921 89.8380233,160.75766 C89.8888391,160.60346 89.9414072,160.451013 89.9957276,160.298565 C90.4075111,159.071976 90.8876332,157.889194 91.3730121,156.701154 C92.3507789,154.32858 93.2339232,151.906943 94.0925356,149.473039 C94.9511481,147.039136 95.7887333,144.589462 96.6350799,142.138036 C97.4814264,139.686609 98.3242685,137.231679 99.2196786,134.7785 C99.6635871,133.553079 100.119177,132.331747 100.586449,131.114503 C101.059562,129.898427 101.539684,128.684104 102.047843,127.47679 C103.049118,125.046684 104.171391,122.668215 105.41045,120.350306 C105.717097,119.765048 106.057037,119.193808 106.384712,118.619063 C106.559939,118.333443 106.735166,118.051328 106.910393,117.76746 L107.173234,117.345163 L107.430817,116.942141 C108.110237,115.878435 108.733723,114.780022 109.298737,113.651377 C109.855092,112.537499 110.316409,111.378637 110.677774,110.187139 C110.768892,109.891005 110.853001,109.593119 110.923092,109.295233 C110.993183,108.997347 111.059769,108.708222 111.098319,108.419098 C111.200385,107.845036 111.2415,107.261796 111.220978,106.679093 C111.193617,105.570569 110.81642,104.499085 110.143332,103.617877 C109.795816,103.177697 109.392302,102.784786 108.943027,102.449113 C108.829129,102.363252 108.704718,102.286152 108.592573,102.203795 L108.417346,102.081136 C108.36653,102.047843 108.313962,102.019807 108.242118,101.974248 C108.044416,101.867339 107.857767,101.741146 107.684897,101.597509 L107.620063,101.537932 C107.493604,101.418163 107.387645,101.278464 107.306406,101.124396 C107.273713,101.062515 107.246168,100.998047 107.224049,100.931647 C107.201044,100.858028 107.182322,100.783139 107.167977,100.707356 C107.157731,100.628944 107.15363,100.549851 107.155711,100.4708 C107.157426,100.396629 107.165634,100.322751 107.180243,100.250014 C107.180243,100.213216 107.196013,100.176418 107.204774,100.143125 L107.234563,100.055512 C107.254966,99.9988223 107.278362,99.9432557 107.304654,99.8890458 C107.337947,99.8259641 107.369488,99.7663869 107.40979,99.7050575 C107.420839,99.6861555 107.433132,99.6680087 107.446588,99.6507371 C107.544414,99.5138364 107.662598,99.3926981 107.797042,99.2915217 C107.843131,99.2589227 107.89111,99.2290819 107.940728,99.2021559 C108.133865,99.0924289 108.349764,99.0288588 108.571545,99.0164152 C108.736774,99.0039046 108.902932,99.013332 109.065686,99.0444516 C109.287017,99.0889537 109.503547,99.1546754 109.712273,99.2407058 L110.174873,99.4281988 C110.808067,99.6829527 111.427992,99.9695218 112.032279,100.286811 C112.653544,100.61542 113.245625,100.996462 113.802072,101.425787 C114.377542,101.872125 114.89757,102.385682 115.351079,102.955519 C115.579553,103.242604 115.788541,103.544671 115.97664,103.85969 C116.176398,104.190869 116.31658,104.45371 116.474284,104.735826 C116.782684,105.296552 117.105102,105.852022 117.425767,106.407491 C118.070603,107.518431 118.741722,108.615352 119.42686,109.703512 C120.793631,111.883336 122.230492,114.024611 123.688381,116.157124 C124.417326,117.223672 125.152695,118.287884 125.89449,119.34976 C126.27298,119.891212 126.609416,120.401122 126.987906,120.85496 C127.345568,121.306182 127.750943,121.717433 128.196973,122.081549 C128.415197,122.254835 128.644663,122.413471 128.883863,122.556415 L129.071356,122.666808 L129.283381,122.785962 L129.705678,123.026023 L131.396619,123.98802 L134.771491,125.915517 C137.028415,127.194674 139.264312,128.508877 141.463412,129.891418 C142.420151,130.501208 143.376891,131.11976 144.321364,131.750577 Z" id="Path" fill="#FFFFFF"></path>
                <path d="M32.1760638,50.4995545 C31.9622868,52.3779883 31.7707053,54.2593426 31.6013191,56.1436173 C31.4260921,58.0273079 31.2876627,59.914503 31.2018015,61.8016981 C31.159747,62.7461718 31.1282061,63.6888933 31.1264539,64.6316147 C31.1114352,65.5689015 31.1659048,66.5060124 31.289415,67.4352472 C31.399808,68.3902345 31.4348534,69.3347082 31.4804125,70.2826865 L31.5890532,73.1196121 C31.723978,76.8992592 31.8799301,80.677154 32.2321364,84.4322693 C32.4073635,86.3089509 32.6369109,88.1803756 32.9698422,90.0272685 C33.0469421,90.4916201 33.1450693,90.9489627 33.2379396,91.4080575 C33.3308099,91.8671523 33.441203,92.3209903 33.5638619,92.7713238 C33.7911957,93.6666557 34.0810311,94.5449448 34.4312357,95.3997293 L34.3979426,95.3348953 C35.8277951,97.5567741 37.3067113,99.7523688 38.808407,101.925184 C39.5630514,103.010423 40.3322981,104.082229 41.116147,105.1406 C41.8994118,106.191962 42.7019516,107.243324 43.5570595,108.196559 C47.157975,111.995482 51.0725469,115.568361 55.4724977,118.268609 C56.5661097,118.941344 57.7008942,119.544728 58.8701499,120.0752 C59.45424,120.336872 60.044171,120.570508 60.6399429,120.776108 C61.2357148,120.989885 61.8384958,121.177378 62.4482859,121.329826 C63.6564598,121.643057 64.8992148,121.803185 66.1473285,121.806443 C67.4267494,121.818309 68.7054576,121.74161 69.9742869,121.576896 C72.5405148,121.220621 75.0619777,120.594514 77.4967834,119.708975 C79.9781259,118.827321 82.3812901,117.739449 84.6810917,116.456762 C84.1859467,116.904097 83.6677345,117.325217 83.1285802,117.718396 C82.5923855,118.117914 82.0386681,118.494652 81.474437,118.853868 C80.3442491,119.580726 79.1690298,120.235056 77.9558782,120.812906 C75.5106576,121.990529 72.9170268,122.831101 70.2458888,123.311643 C68.8963817,123.549881 67.5298462,123.678799 66.1595944,123.697358 C64.7565892,123.704282 63.3583031,123.534132 61.9979524,123.190737 C61.3248608,123.025632 60.6604958,122.82679 60.0073733,122.594965 C59.3578651,122.361329 58.7212069,122.099656 58.0973987,121.809948 C56.8574421,121.237808 55.6583854,120.580903 54.508749,119.8439 C53.3645165,119.113204 52.265843,118.321177 51.2057195,117.487097 C50.1455959,116.653016 49.1327837,115.766367 48.1480078,114.858691 C47.1632319,113.951015 46.2205104,112.999532 45.2918072,112.032279 C44.8309601,111.548653 44.377122,111.058017 43.9285408,110.565629 L43.2609258,109.824419 C43.0401398,109.577348 42.8228583,109.337287 42.588054,109.065686 C41.7119189,108.014323 40.9531858,106.919154 40.1909482,105.823985 C39.4287107,104.728816 38.6997662,103.621382 37.9743263,102.510442 C36.5129328,100.292068 35.0988507,98.0526666 33.6900253,95.8027515 L33.6689981,95.7712106 L33.6567322,95.7396697 C33.3044808,94.8399047 33.0158151,93.9165258 32.7928629,92.9763394 C32.6754608,92.5119878 32.5808382,92.0423793 32.4809588,91.5745232 C32.3810794,91.106667 32.3057318,90.6370585 32.2303842,90.1727069 C31.9202323,88.2907686 31.7257303,86.4000689 31.5715305,84.507617 C31.2753968,80.7227131 31.1772697,76.9343046 31.1036744,73.151153 L31.0388404,70.3159796 C31.0072995,69.3732582 30.9862722,68.4252799 30.8934019,67.4983289 C30.7907159,66.5493506 30.7614244,65.5938623 30.8057884,64.640376 C30.8338247,63.6923978 30.8916496,62.7461718 30.9617405,61.8016981 C31.2578741,58.0115374 31.6749145,54.249413 32.1760638,50.4995545 Z" id="Path" fill="#000000"></path>
                <path d="M102.923978,101.891891 C102.296103,103.578771 101.511755,105.203198 100.581193,106.743927 C99.6642222,108.293119 98.638312,109.775185 97.511215,111.178924 C96.9434794,111.879832 96.3500439,112.559713 95.7309084,113.218566 C95.1035956,113.868658 94.4535033,114.501228 93.7683656,115.093495 C93.08068,115.684449 92.3592846,116.235003 91.6078163,116.742382 C91.2223168,116.984195 90.8455787,117.233017 90.4425565,117.44329 C90.2427977,117.550178 90.0482957,117.664076 89.8432801,117.760451 C89.6382645,117.856826 89.4332488,117.954953 89.2264809,118.044319 L89.1248493,117.897128 C89.4507715,117.585224 89.7872074,117.297852 90.1061206,116.989452 C90.4250338,116.681052 90.7421948,116.376157 91.0593557,116.073015 C91.6808276,115.452711 92.2882813,114.821894 92.8817168,114.180563 C93.4704797,113.533975 94.0522334,112.883883 94.6217213,112.219772 C95.1912091,111.555662 95.7484311,110.88279 96.3003962,110.204661 C97.400822,108.843731 98.4813887,107.458854 99.5420963,106.050028 C100.609229,104.648212 101.6676,103.225369 102.762769,101.807782 L102.923978,101.891891 Z" id="Path" fill="#000000"></path>
                <path d="M109.976866,60.3806069 C109.989132,59.8899712 110.024177,59.3993355 110.071489,58.9086998 C110.1188,58.4180641 110.167864,57.9274284 110.246716,57.438545 C110.378746,56.4472838 110.609438,55.4716853 110.935358,54.5262717 C111.114218,54.0335614 111.349414,53.5631695 111.636266,53.1244555 C111.796076,52.8945484 111.976741,52.6798631 112.175965,52.4831246 C112.395257,52.2701165 112.646536,52.0927431 112.92068,51.9574435 C112.992523,51.9259026 113.064366,51.8908572 113.139714,51.8663254 L113.253612,51.8260232 L113.367509,51.8049959 C113.517015,51.7799934 113.66807,51.7653563 113.819595,51.7611892 C114.113965,51.7561523 114.407938,51.7849617 114.69573,51.8470504 C115.2435,51.9716296 115.767688,52.1834347 116.248242,52.4743632 C117.16953,53.0364334 117.968106,53.7783936 118.596284,54.6559398 C119.23295,55.5259518 119.70181,56.5070512 119.978825,57.5489381 C120.264167,58.615637 120.309648,59.7323038 120.111998,60.8186745 C120.059366,61.0911084 119.990912,61.3602457 119.906982,61.6247188 C119.864928,61.7578914 119.819368,61.8893116 119.768553,62.0189796 L119.642389,62.3589201 C119.477676,62.7981559 119.331069,63.2426484 119.202569,63.6923978 C118.94828,64.592652 118.767783,65.5121328 118.66287,66.4417099 C118.54722,67.3774223 118.522688,68.3166392 118.445589,69.3469741 C118.411421,69.9157012 118.306046,70.4778961 118.131932,71.0203923 C118.105952,71.0971904 118.076125,71.1726333 118.042566,71.2464352 C118.011614,71.3244751 117.975918,71.4005488 117.935678,71.4742303 L117.84456,71.6494573 L117.772717,71.7913912 C117.676342,71.9876455 117.579967,72.1996702 117.485344,72.4169517 C117.105102,73.2930869 116.745886,74.207772 116.3709,75.1207048 C115.995915,76.0336377 115.599902,76.9535796 115.144311,77.8682647 C114.916772,78.3377043 114.661059,78.792957 114.378569,79.231531 C114.226827,79.4663836 114.060011,79.6911461 113.879172,79.9044028 C113.690638,80.1235024 113.48112,80.3236304 113.253612,80.501927 C112.491374,81.1257352 111.711614,81.7285162 110.902065,82.3015086 C110.091346,82.8871659 109.245131,83.4220483 108.368282,83.9030837 C108.914954,83.0650218 109.513654,82.2620738 110.160854,81.4989688 C110.793424,80.7384835 111.457535,80.0077868 112.137415,79.2981173 C112.283703,79.1567423 112.416298,79.0018533 112.533428,78.8355179 C112.649078,78.6778136 112.761224,78.4850639 112.873369,78.2993232 C113.095907,77.9138237 113.30618,77.4985357 113.512948,77.072734 C113.922979,76.2211306 114.29446,75.3204637 114.660685,74.4233013 C115.026909,73.5261389 115.386125,72.6097015 115.790899,71.6774937 C115.892531,71.4444417 116.001171,71.2113898 116.12383,70.9765855 C116.153619,70.9152561 116.18516,70.8556789 116.220205,70.7908449 L116.271021,70.6962223 L116.302562,70.6366451 C116.321677,70.6029555 116.338084,70.5677993 116.351626,70.5315089 C116.370128,70.4941341 116.385939,70.4554859 116.398937,70.415859 C116.522657,70.0211485 116.597397,69.6127283 116.621475,69.1997834 C116.703832,68.2728324 116.747639,67.246002 116.88782,66.2331898 C117.027966,65.2120602 117.251246,64.204077 117.555435,63.2192848 C117.707883,62.7268969 117.881358,62.2432702 118.081116,61.7666527 L118.219546,61.4161987 C118.2616,61.3163192 118.298398,61.2164398 118.333443,61.1165604 C118.401782,60.9132971 118.459607,60.7082814 118.50867,60.4997613 C118.692365,59.6508327 118.685783,58.7717586 118.489395,57.9256762 C118.287027,57.0563405 117.927129,56.2314266 117.42752,55.4917727 C116.939115,54.7453133 116.304962,54.1052002 115.563104,53.6098344 C115.211663,53.37448 114.824757,53.1970002 114.417119,53.0841533 C114.226766,53.0356634 114.031698,53.0080484 113.835365,53.0017966 C113.741665,53.0008368 113.648004,53.0061052 113.555002,53.017567 C113.460379,53.036842 113.379775,53.017567 113.286905,53.0350897 C112.881411,53.1018932 112.510674,53.304563 112.235543,53.6098344 C112.074593,53.7696947 111.930716,53.9458706 111.806236,54.1355155 C111.678596,54.3311585 111.561608,54.533548 111.455782,54.741801 C111.018618,55.6077206 110.687387,56.5231631 110.469254,57.4683336 C110.229951,58.4248746 110.065326,59.3985623 109.976866,60.3806069 Z" id="Path" fill="#FFFFFF"></path>
                <path d="M55.1097778,94.6707848 C55.1097778,94.6707848 49.9913962,92.6241331 48.8524204,90.6405631 C47.7134447,88.6569931 55.8036768,90.3672089 65.4411636,89.9729481 C74.7790121,89.5909532 73.7188886,90.5214087 73.6768341,90.6405631 C73.6347796,90.7597175 54.2266335,90.9156695 53.8393818,92.2701745 C53.5432481,93.3320503 54.4982354,93.2689686 55.1097778,94.6707848 Z" id="Path" fill="#000000"></path>
                <path d="M64.5264785,59.4624172 C64.3670219,58.235828 64.6263579,57.6015062 65.10648,57.0390274 C65.5173513,56.5766533 65.7637812,55.9913824 65.8073881,55.3743706 C66.0684764,52.0695888 68.2027416,50.4995545 71.5723574,50.4995545 C73.734659,50.4995545 75.821613,48.2548963 78.0119509,47.6030517 C84.728403,45.6072158 90.5143996,48.1900623 94.2852854,54.0566633 C94.9143504,55.0344301 94.9161027,55.7949155 93.6422022,55.9368494 C91.8899318,56.1313514 91.4098098,57.4473064 90.8771196,58.7492432 C89.8134915,61.3513647 87.917535,62.1819408 85.5484655,60.8975266 C84.2202446,60.1790958 82.8692442,60.1615731 81.4569143,60.2369207 C79.9744936,60.3157729 78.5902001,60.0984914 77.896301,58.5687594 C77.2374474,57.1178796 76.1983511,57.5594517 75.2678956,58.0430783 C73.7258977,58.8403613 72.483538,60.1458027 70.6191224,60.4156523 C69.7079418,60.543568 69.7429872,61.5896734 69.5397239,62.3431497 C69.2313243,63.4610981 68.7897522,64.6894396 67.4369995,64.7104669 C66.1876307,64.7279896 65.8021313,63.4943913 65.4359068,62.5341471 C64.9943347,61.3899146 64.7314941,60.1790958 64.5264785,59.4624172 Z M72.2767701,57.7767332 C72.5764083,57.8590899 72.781424,57.9887579 72.8848079,57.930933 C75.8636675,56.290808 78.9792041,54.2669357 82.4749834,54.8329191 C82.6502104,54.8609554 83.3143209,54.6033716 83.4737775,54.5893535 C86.27741,54.3247607 86.27741,54.3247607 88.2487141,55.5636158 C88.8024315,55.9140698 89.4753033,56.6868211 89.9799572,55.6810179 C90.4425565,54.7768464 89.8643073,54.2669357 88.9408609,53.9795634 C88.0174144,53.6921911 87.0676839,53.3837915 86.4543893,52.5672335 C85.3907612,51.1513991 83.9258632,51.0813083 82.3978835,51.3651761 C78.9371496,52.0117638 75.4834248,52.6951493 72.1278271,53.7640342 C71.5408166,53.9497748 70.9012379,54.047902 70.5174907,54.5858489 C70.1460094,55.0957596 69.7955553,55.714311 70.1670366,56.2820466 C70.5665543,56.8795708 71.1290331,56.3801738 71.5776143,56.187424 C73.3596732,55.4181773 75.0821549,54.4228878 77.5195629,54.7453055 C75.7217336,56.1120764 73.5296434,56.096306 72.2767701,57.7767332 Z" id="Shape" fill="#000000"></path>
                <path d="M115.42117,67.8768193 C114.245397,65.9002584 114.245397,64.1129427 113.253612,62.7707036 C112.955726,62.3676814 112.771737,61.6895528 112.128654,61.8945685 C111.7782,62.0102183 111.478562,62.462304 111.280555,62.8285285 C110.970403,63.4067777 111.327867,63.6906455 111.806236,64.0638791 C114.814884,66.3751237 114.65718,70.0636527 111.425994,71.9753796 C110.549858,72.5010607 109.961096,73.1879507 109.35481,73.9344178 C108.958797,74.4233013 108.478675,74.8631211 107.777767,74.505658 C107.120665,74.1674698 107.089125,73.5366525 107.190756,72.9005783 C107.232872,72.5510552 107.324929,72.2093846 107.46411,71.8860138 C108.36653,70.0408732 108.299943,68.1554303 107.805803,66.2226761 C107.434322,64.7735486 107.746226,63.7186819 108.99209,62.5569266 C110.237954,61.3951714 111.331371,59.7708168 111.750164,57.9554648 C111.925391,57.1721999 112.081343,56.4134669 112.614033,55.7861541 C113.665395,54.5455467 114.693978,54.6086285 115.568361,55.9806561 C115.732671,56.1873656 115.852033,56.4260906 115.918815,56.6815642 C116.45497,60.4115771 116.286166,64.2090896 115.42117,67.8768193 Z" id="Path" fill="#000000"></path>
                <path d="M56.427485,90.7124062 C56.7954618,90.2392932 57.2615657,90.2988704 57.6628356,90.3234022 C63.298137,90.6738562 68.8545862,89.7486575 74.4425762,89.3263603 C75.6725795,89.2627466 76.8522024,88.8174788 77.8174489,88.0524598 C78.9301405,87.1763247 80.0550981,87.1763247 81.1783033,88.0612212 C82.1595747,88.8339724 82.2191519,89.6680531 81.2641646,90.458327 C79.7799916,91.6849162 78.3133414,92.9570645 76.7170231,94.0277016 C74.98578,95.1877046 73.0635395,94.6707848 73.7977408,92.7380307 C73.900879,92.4185419 73.823909,92.0682671 73.5963298,91.8214507 C73.3687506,91.5746344 73.025858,91.4695558 72.6990673,91.5464868 C69.5449807,92.3647971 66.5415893,90.7474516 63.2946324,91.1399601 C61.2462284,91.3887825 58.7106933,91.4203234 56.427485,90.7124062 Z" id="Path" fill="#000000"></path>
                <path d="M37.2664091,61.0061674 C38.5595846,58.1569759 41.1634583,58.0027761 43.2013487,56.9549184 C44.0196589,56.5343735 42.5722836,56.8708094 39.716083,56.5606576 C39.3656289,56.5221076 46.4518101,55.0046415 46.9739867,54.9590825 C49.1660768,54.7680851 50.7308542,56.2943125 52.5321881,57.0951 C55.6161839,58.4653754 52.9211921,58.6721433 52.738956,59.3730515 C52.5497108,60.1072527 50.6730293,60.5733566 50.1964118,59.5605444 C48.8086137,56.6114734 49.4464401,58.7387296 48.7157434,59.5605444 C47.2175522,61.2532375 44.9588758,60.9921492 43.1435237,59.4151059 C42.5127064,58.8683976 43.0979647,57.8608422 40.3819457,59.0348633 C38.620914,59.7988531 38.8960205,60.7731154 37.2664091,61.0061674 Z" id="Path" fill="#000000"></path>
                <path d="M41.0267812,51.2723058 C43.7340388,51.812005 46.5078828,50.17188 49.4376787,51.0059607 C50.8237246,51.4002215 51.8172618,51.9854798 52.4708587,53.2383531 C53.0964192,54.4404105 52.5882608,54.9906234 51.4194965,54.7961214 C48.3022076,54.2862107 45.0990574,54.7102601 42.0115571,53.8498954 C40.4870819,53.4240937 38.9170477,53.1700145 37.3855635,53.9375089 C34.8114784,55.2289321 35.7909975,54.1950927 35.3792139,53.3277188 C34.8535328,52.2378067 36.6058032,51.1549036 37.2646568,50.7641474 C38.6752344,49.938828 39.4006743,51.3108557 41.0267812,51.2723058 Z" id="Path" fill="#000000"></path>
                <path d="M48.8348977,89.8415278 C49.588374,89.7171166 50.003662,90.717663 49.3605788,91.1294465 C49.2063791,91.2258214 50.0474688,91.3782689 49.8862599,91.4799006 C48.9295203,92.0055817 48.9049886,92.5505377 48.7648069,93.1375483 C48.5475254,94.0399675 47.7852878,92.052893 47.5995472,91.0453375 C47.5277041,90.6493244 48.3950779,89.9273891 48.791091,89.8590505 L48.8348977,89.8415278 Z" id="Path" fill="#000000"></path>
                <path d="M54.8136441,80.1672434 C54.8136441,80.1672434 50.9341176,77.6544877 52.738956,76.9360569 C54.5437945,76.2176261 57.866099,79.3594468 59.4816922,79.0002313 C61.0972855,78.6410159 64.6876873,76.0932149 67.1110772,76.8291684 C69.5344671,77.5651219 69.1875175,72.2732656 69.1875175,72.2732656 C69.1875175,72.2732656 75.458893,75.7778062 72.048975,78.6462727 C68.6390569,81.5147393 65.3150001,78.7566658 63.3401915,79.464583 C61.3653828,80.1725002 60.1983708,80.4423498 58.2235621,80.1654911 C57.0929072,79.9999498 55.9441283,80.0005402 54.8136441,80.1672434 Z" id="Path" fill="#000000"></path>
                <path d="M107.819821,74.5266852 C107.819821,74.5266852 104.446701,96.6333276 107.726951,100.134364 L107.819821,74.5266852 Z" id="Path" fill="#000000"></path>
                <path d="M48.745532,115.535068 C48.6486191,116.754577 48.6322291,117.97915 48.6964684,119.200817 C48.7514496,120.417641 48.8878476,121.629418 49.1047474,122.828017 C49.2215654,123.424957 49.3559061,124.015472 49.5077695,124.599562 C49.672483,125.183068 49.8582236,125.75606 50.0772574,126.316787 C50.2991167,126.873346 50.5524364,127.416842 50.8359905,127.944646 C51.1236679,128.465919 51.4499153,128.964955 51.812005,129.43758 C52.563729,130.389063 53.3434893,131.330032 54.1425245,132.251726 C54.9415598,133.173421 55.7440996,134.093363 56.5694189,134.994029 C58.2130485,136.797116 59.8987326,138.565156 61.6212143,140.291143 L61.360126,140.145704 L65.7110132,141.102444 L65.2484139,141.197066 C67.3195974,139.662078 69.4275786,138.193675 71.5688529,136.758566 C72.6429946,136.045392 73.7258977,135.346236 74.8315802,134.671612 C75.3852977,134.332839 75.9471923,134.005749 76.5172643,133.69034 L77.3793813,133.23475 C77.6579923,133.091064 77.9366033,132.940369 78.2152142,132.787921 C80.4388453,131.561332 82.6204218,130.217341 84.7652007,128.834799 C86.9099796,127.452258 89.0337312,126.031167 91.0961534,124.518957 C93.1585755,123.006748 95.1824478,121.455989 97.102936,119.787828 C98.0655165,118.953747 98.9942198,118.085205 99.8890458,117.182202 C100.785196,116.287988 101.620004,115.334341 102.387783,114.327753 C102.769197,113.823384 103.120271,113.296773 103.439146,112.75071 L103.666941,112.340679 C103.737031,112.200497 103.810627,112.065572 103.877213,111.920134 L104.281988,111.043999 C104.558846,110.467502 104.807669,109.878739 105.061748,109.291728 C105.189664,108.999099 105.305313,108.701213 105.427972,108.406832 C105.550631,108.11245 105.671538,107.814565 105.778426,107.514926 C106.246283,106.325135 106.654562,105.114316 107.005016,103.884222 C107.090877,103.577575 107.180243,103.267423 107.252086,102.959023 C107.323929,102.650624 107.404533,102.336967 107.46411,102.023311 C107.602676,101.397724 107.689995,100.761879 107.725206,100.122098 C107.725925,100.767706 107.674357,101.412313 107.570999,102.049595 C107.478129,102.687422 107.353717,103.318239 107.208279,103.945552 C106.913718,105.199788 106.556389,106.438449 106.137642,107.65686 C106.037762,107.963507 105.927369,108.264898 105.816976,108.566288 C105.706583,108.867679 105.599695,109.174326 105.482293,109.473965 C105.243984,110.071489 105.019693,110.676022 104.763862,111.266537 L104.388876,112.15669 C104.327547,112.305633 104.253951,112.456329 104.187365,112.605272 L103.966579,113.046844 C103.657106,113.62374 103.313033,114.181395 102.936244,114.716757 C101.432796,116.851023 99.6069303,118.715438 97.7092216,120.460699 C95.8115128,122.205961 93.7981542,123.835572 91.7339798,125.379322 C87.6085609,128.476738 83.2885036,131.306051 78.8004725,133.849797 C78.5166047,134.007501 78.2309847,134.161701 77.9401078,134.314149 L77.1042749,134.760978 C76.554062,135.067625 76.0038491,135.381281 75.4606453,135.710708 C74.3724854,136.366057 73.2965914,137.052947 72.2312111,137.755608 C70.1004504,139.157424 67.9994783,140.631083 65.9230379,142.111752 L65.7075087,142.265951 L65.4604386,142.208126 L61.1235695,141.188305 L60.9676175,141.151507 L60.8624812,141.042867 C59.143504,139.274826 57.4981222,137.455969 55.8842812,135.600315 C55.0782369,134.673948 54.2867948,133.732979 53.509955,132.777408 C52.7372038,131.820668 51.9854798,130.84991 51.2530308,129.854621 C50.8855843,129.34166 50.5575539,128.801581 50.2717594,128.239027 C49.9931563,127.678662 49.7508439,127.100975 49.5463195,126.509537 C49.3448084,125.919021 49.1783427,125.319745 49.0346566,124.716964 C48.8909704,124.114183 48.7893387,123.500888 48.7017252,122.889346 C48.3825372,120.445487 48.3978646,117.96953 48.7472842,115.529811 L48.745532,115.535068 Z" id="Path" fill="#000000"></path>
                <path d="M31.0703812,52.6653607 C30.6288091,49.4534492 30.3098959,46.2292718 30.0347895,42.9998376 C29.9103783,41.3824921 29.7929762,39.7651466 29.714124,38.1390397 C29.6790786,37.324234 29.6510423,36.5094283 29.64929,35.6858612 C29.64929,35.2670686 29.64929,34.8570374 29.6930967,34.4102085 C29.7118136,34.1746241 29.7457618,33.9404985 29.7947284,33.7093003 C29.8192602,33.597155 29.8490488,33.4885143 29.8753329,33.3781212 L29.9664509,33.059208 C30.2204933,32.2591842 30.516452,31.4730806 30.8530997,30.7041567 C31.1755174,29.9489282 31.503192,29.2059656 31.8361233,28.4682598 C32.4984815,26.998105 33.1590874,25.533207 33.6917776,24.0770704 C33.8249502,23.7143504 33.9388477,23.3516304 34.0422317,22.9959196 C34.1401721,22.6618224 34.2099232,22.3201006 34.2507519,21.974346 C34.2595132,21.8937415 34.2595132,21.825403 34.2665223,21.7500554 L34.2875495,21.3873354 L34.3313563,21.0228632 L34.3961903,20.6724091 C34.4909096,20.2262758 34.6197892,19.7880851 34.7816898,19.3617109 C35.0883122,18.5520433 35.4634919,17.7700281 35.9031428,17.0241823 C36.7503324,15.5574969 37.7538037,14.1868304 38.8960205,12.9361357 C39.1905006,12.6134411 39.5016618,12.3063741 39.8282283,12.0161937 C40.0024332,11.8627875 40.1843197,11.718331 40.3731844,11.583383 C40.5484114,11.4519627 40.7236384,11.3345606 40.8988655,11.2171585 C41.5997736,10.7493023 42.2884158,10.3270051 42.9858194,9.904708 C43.683223,9.48241085 44.3876357,9.07237959 45.0885438,8.66760515 C46.4903601,7.85980853 47.8921763,7.05201191 49.3115153,6.26349027 L53.5414958,3.88741171 C54.242404,3.48789408 54.9433121,3.08837644 55.6442202,2.68009746 C55.9946743,2.4768341 56.3451283,2.27181847 56.6780597,2.06154603 C56.8392686,1.9634189 57.0285138,1.83725543 57.2300249,1.74088057 C57.422554,1.64469403 57.6202815,1.55928509 57.8222922,1.4850491 C58.6055577,1.21129935 59.4136852,1.01469609 60.2351685,0.89803854 C61.0447173,0.773627347 61.8560185,0.696527453 62.6673197,0.631693451 C64.2881697,0.51429134 65.9090198,0.482750474 67.5298698,0.500273177 C68.3394187,0.500273177 69.1489676,0.531814043 69.9585165,0.565107179 C70.7680654,0.598400315 71.575862,0.643959343 72.3819063,0.710545616 C73.1879507,0.777131888 73.9974996,0.847222701 74.8017916,0.955863461 C75.6116496,1.047718 76.4135048,1.20000606 77.2006497,1.41145374 C77.9874191,1.63048753 78.7601703,1.87580538 79.529417,2.13689366 C80.2986636,2.39798194 81.066158,2.66257475 81.8301479,2.92891984 C83.3616322,3.46511456 84.8861074,4.02584107 86.4088303,4.59708119 C87.9315532,5.16832132 89.4455147,5.7658455 90.9489627,6.4089287 C91.7024389,6.73309871 92.4524106,7.0642778 93.2023823,7.43400684 C93.5756159,7.62149977 93.9488495,7.8142495 94.3308444,8.03503556 C94.5200896,8.14718086 94.7128393,8.2628307 94.9161027,8.40651687 C95.0177344,8.48011222 95.1211183,8.55896439 95.2367681,8.66059607 C95.2945931,8.71316418 95.3559225,8.7709891 95.4260133,8.84808899 C95.5194502,8.95027197 95.5995275,9.06391104 95.6643221,9.18627716 C95.6871016,9.23008392 95.7151379,9.29667019 95.7309084,9.33346787 C95.727879,9.32144186 95.7237738,9.30971278 95.7186425,9.29842246 C95.7063766,9.27389068 95.6993675,9.25286344 95.6871016,9.23358846 C95.6772102,9.21533025 95.6660867,9.19776691 95.6538085,9.18102035 C95.6452959,9.16767217 95.635303,9.15532805 95.6240199,9.14422268 C95.592479,9.10567273 95.5872222,9.10567273 95.6100017,9.11092954 C95.7145925,9.14237068 95.8211232,9.16695467 95.9289149,9.18452489 C96.277268,9.23776264 96.6282264,9.27227355 96.9802771,9.28790884 C97.7477715,9.32470652 98.567834,9.34047695 99.4089238,9.40180641 C100.29554,9.44883694 101.175655,9.58026744 102.037329,9.79431497 C102.514015,9.91286656 102.976845,10.0814355 103.418118,10.2972165 C103.663436,10.4216277 103.852681,10.533773 104.045431,10.6476706 C104.238181,10.7615682 104.420417,10.8824748 104.600901,10.9981247 C105.307499,11.4732871 105.98834,11.9856728 106.640543,12.5331135 C107.288883,13.0693082 107.916196,13.6288665 108.522482,14.2117884 C109.13052,14.7935422 109.715778,15.4033323 110.274752,16.0516723 C110.85173,16.708888 111.378874,17.4082324 111.851795,18.1438831 C112.103825,18.5381356 112.32526,18.9511292 112.514154,19.3792336 C112.734161,19.8695213 112.877194,20.3908228 112.938203,20.9247361 L112.960982,21.2489061 C112.960982,21.3347673 112.975001,21.4328944 112.983762,21.5257648 C112.99778,21.7115054 113.022312,21.9077597 113.043339,22.1005094 C113.088898,22.4895134 113.137962,22.8837743 113.192282,23.2797874 C113.406059,24.8568307 113.642616,26.4619103 113.882677,28.0582285 C114.122738,29.6545468 114.359294,31.2543696 114.583585,32.8594492 L114.883223,35.2863436 C114.986607,36.092388 115.086486,36.8984323 115.175852,37.7097335 C115.219659,38.1180125 115.263466,38.5245392 115.295007,38.9363227 C115.312529,39.1407542 115.326547,39.3510267 115.337061,39.56714 C115.337061,39.6792853 115.347575,39.7774124 115.337061,39.9018236 L115.337061,40.0770507 L115.324795,40.2435164 L115.298511,40.5746954 C115.287997,40.6833362 115.273979,40.7832156 115.259961,40.8883518 C115.235429,41.0951197 115.209145,41.3036399 115.175852,41.505151 C115.114523,41.91343 115.046184,42.3164521 114.976093,42.717722 L114.758812,43.9180272 L114.532769,45.1218369 C114.375065,45.9173677 114.205094,46.7111461 114.029867,47.5031723 C113.679413,49.0802156 113.328959,50.6677725 112.925937,52.2343022 C113.066119,50.6169567 113.222071,49.004868 113.376271,47.3945315 C113.53047,45.7841951 113.682918,44.1721064 113.807329,42.5705313 C113.83887,42.1692614 113.868658,41.7697438 113.889686,41.3719784 C113.903704,41.1722196 113.910713,40.9777176 113.917722,40.7832156 C113.917722,40.6850885 113.928236,40.5852091 113.928236,40.4923387 L113.928236,40.0963256 L113.917722,39.9736667 C113.917722,39.8948146 113.896695,39.7984397 113.886181,39.7038171 C113.859897,39.5163242 113.831861,39.3235744 113.798568,39.1290724 C113.733734,38.7418207 113.661891,38.3475599 113.590047,37.9550513 C113.441105,37.1682819 113.2834,36.378008 113.122191,35.5877341 L112.640317,33.2151601 C111.993729,30.0470553 111.341885,26.8842074 110.784663,23.6652868 C110.718076,23.2622647 110.653242,22.8539857 110.591913,22.4386976 C110.563877,22.2284252 110.532336,22.0251618 110.507804,21.8078803 C110.493786,21.7009918 110.479768,21.5976079 110.469254,21.4802057 C110.45874,21.3628036 110.446475,21.2243743 110.441218,21.2015948 C110.394542,20.9330289 110.308948,20.6727058 110.187139,20.4288436 C110.03978,20.121337 109.871153,19.824483 109.682485,19.5404425 C109.266881,18.9234415 108.806549,18.3377779 108.3052,17.7881722 C107.79529,17.2221889 107.253838,16.671976 106.689607,16.1375335 C105.568936,15.0768618 104.369907,14.1021745 103.10271,13.2217557 C102.94851,13.1166195 102.79431,13.0149878 102.64011,12.9203652 C102.48591,12.8257426 102.329958,12.73112 102.214309,12.6732951 C101.93006,12.5296931 101.633275,12.4123866 101.32766,12.322841 C100.619134,12.1321639 99.8967312,11.9974091 99.1671105,11.9198189 C98.3978638,11.8269485 97.6023331,11.7673713 96.7594911,11.6604829 C96.3050087,11.6098271 95.8543062,11.5296371 95.4102429,11.4204218 C95.1231308,11.3481045 94.8455299,11.2422398 94.5831713,11.1050132 C94.3961618,11.0035916 94.2244819,10.8761591 94.0732607,10.7265228 C94.0294539,10.6809637 93.9838949,10.6301479 93.9418404,10.5775798 C93.8997859,10.5250117 93.8594837,10.4654345 93.8209337,10.4023528 C93.7822066,10.3383473 93.7482378,10.271581 93.719302,10.202594 L93.6772476,10.0974577 C93.6862063,10.1248695 93.6979494,10.1512914 93.712293,10.1763099 C93.7596043,10.2604189 93.7753747,10.2656757 93.777127,10.267428 C93.7788792,10.2691802 93.777127,10.2534098 93.7543475,10.2358871 C93.7094831,10.1878535 93.6621054,10.1422305 93.6124136,10.09921 C93.4932592,9.99757832 93.3513253,9.88718529 93.2023823,9.77854453 C92.9044963,9.56126301 92.5785741,9.34748603 92.247395,9.13896587 C91.5832845,8.72017326 90.8963946,8.31189427 90.2007432,7.91237664 C87.4076243,6.33533335 84.5303965,4.84765585 81.5935914,3.51242586 C80.1216843,2.85181995 78.6340068,2.21399355 77.1112839,1.70408289 C76.3454791,1.46253122 75.5614182,1.28321685 74.7667462,1.16788817 C73.9712155,1.04698152 73.1686757,0.95235892 72.3643836,0.884020378 C71.5600916,0.815681835 70.7540472,0.773627347 69.9480029,0.740334211 C69.1419585,0.707041075 68.3324096,0.705288805 67.5263653,0.710545616 C65.9134995,0.720209314 64.3024224,0.819658514 62.7006128,1.00843157 C61.9035659,1.10101575 61.1117004,1.23377311 60.3280388,1.40619693 C59.555244,1.5656829 58.7999179,1.80043847 58.0728669,2.10710506 C57.8989612,2.18439302 57.7293309,2.27096297 57.5647085,2.36644107 C57.4015768,2.46572507 57.2436635,2.57334002 57.0915955,2.68885881 C56.7604164,2.92891984 56.4257328,3.16021953 56.0928014,3.38976694 C55.4234342,3.85002994 54.7517305,4.30503614 54.0776905,4.75478552 L50.0299461,7.44101592 L45.9804494,10.1062191 C44.6434671,11.0016292 43.2802008,11.8847735 42.004548,12.7994586 C41.8468437,12.9133561 41.6908916,13.029006 41.5472055,13.1499126 C41.4098937,13.2536483 41.2788293,13.3654041 41.1546969,13.4845963 C40.8953609,13.7264096 40.6290158,14.0102774 40.3854502,14.2906406 C39.3731488,15.458803 38.4720791,16.7188926 37.693963,18.0545173 C37.3129548,18.703049 36.9831118,19.3803111 36.7074348,20.0801418 C36.5789869,20.4087987 36.4758858,20.7468062 36.3990353,21.0912017 L36.351724,21.3365196 L36.3201831,21.5730761 L36.3044127,21.8148894 C36.2956513,21.9428051 36.2903945,22.0759777 36.2746241,22.1968843 C36.2149474,22.6541699 36.116465,23.1055478 35.9802427,23.5461325 C35.8540792,23.9655092 35.7156498,24.3743722 35.5649546,24.7727217 C34.9639259,26.349765 34.2367337,27.8076539 33.532321,29.2672951 C33.181867,29.9944872 32.819147,30.7146703 32.4809588,31.4348534 C32.1427707,32.1550365 31.8168484,32.8769719 31.5610169,33.5796323 L31.4734034,33.8407206 L31.3980558,34.0947998 C31.3563623,34.2575019 31.3241829,34.4224949 31.3016809,34.58894 C31.2526173,34.9393941 31.2315901,35.3441685 31.205306,35.7331725 C31.159747,36.5234465 31.1387198,37.3259863 31.1247016,38.1285261 C31.0931607,39.735358 31.0843994,41.3491989 31.0896562,42.9647922 C31.0791426,46.1889696 31.1106834,49.4236606 31.0703812,52.6653607 Z" id="Path" fill="#000000"></path>
                <path d="M42.4864224,18.5977211 C41.7031575,20.34123 40.8042429,21.9760982 39.910585,23.6039574 C39.0169271,25.2318165 38.0917284,26.8211257 37.2576477,28.4209485 C37.0473753,28.8181298 36.8499528,29.2170633 36.6653804,29.6177491 C36.5742623,29.8175079 36.481392,30.0155145 36.4007875,30.213521 C36.3201831,30.4115276 36.24834,30.5972682 36.1677356,30.8127975 C35.8505747,31.6661531 35.5614501,32.5352792 35.256555,33.4061576 C34.6520218,35.1584279 34.0667635,36.9106982 33.3588463,38.6892526 C33.3167918,38.2126351 33.3010213,37.7342653 33.3062781,37.2594 C33.311535,36.7845347 33.3308099,36.3079172 33.3605985,35.8348042 C33.425715,34.8880744 33.5391765,33.9452913 33.700539,33.0101445 C33.8588431,32.0702975 34.0676659,31.1396616 34.3260995,30.2222824 C34.3541358,30.1083848 34.3961903,29.9839736 34.4347402,29.8718283 C34.4732902,29.759683 34.5135924,29.6282627 34.5573992,29.5108606 C34.6432604,29.2725519 34.7326262,29.0430045 34.8290011,28.8099525 C35.0287599,28.359619 35.2320232,27.9162946 35.4563138,27.4887407 C36.3542727,25.8101256 37.4029393,24.216598 38.5893732,22.7278222 C39.1763837,21.9883641 39.7879261,21.268181 40.4327615,20.5760343 C41.0757905,19.8748058 41.7616587,19.2141018 42.4864224,18.5977211 L42.4864224,18.5977211 Z" id="Path" fill="#000000"></path>
                <path d="M65.1590481,14.9652647 C64.3273939,14.8859419 63.5031208,14.7424117 62.6936037,14.5359585 C61.8963207,14.3414565 61.1165604,14.1154136 60.3420569,13.8700957 C59.5675535,13.6247779 58.8070681,13.3601851 58.0483351,13.09384 C57.6680924,12.9589152 57.289602,12.8257426 56.9058548,12.6960746 C56.5190361,12.5585103 56.1217288,12.4524444 55.7178156,12.3789137 C55.9132398,12.2804829 56.1223403,12.2119641 56.3381193,12.1756503 C56.551498,12.1343326 56.7675956,12.1085648 56.984707,12.0985504 C57.4119067,12.0828804 57.8396745,12.1016319 58.2638643,12.1546231 C59.0969416,12.2594335 59.9182951,12.442478 60.7170428,12.7013314 C61.5054077,12.9560816 62.2738335,13.2688403 63.0160215,13.6370438 C63.777082,13.9995416 64.4957806,14.444982 65.1590481,14.9652647 L65.1590481,14.9652647 Z" id="Path" fill="#000000"></path>
                <path d="M63.1334236,11.9093052 C63.2593914,11.9006688 63.3859336,11.9119038 63.5084094,11.9425984 C63.6293161,11.9671302 63.7397091,11.9969188 63.8588635,12.0267074 C64.0778973,12.0880368 64.2811606,12.1563754 64.4791672,12.2212094 C64.8751803,12.3561342 65.2466616,12.491059 65.6163906,12.6277361 C65.800379,12.7013314 65.9896242,12.7626609 66.1736126,12.8415131 C66.357601,12.9203652 66.5485984,12.990456 66.7431004,13.0640514 C67.1634103,13.2290836 67.5705318,13.4259078 67.9609283,13.6528142 C67.5383618,13.8875907 67.0635358,14.0123229 66.5801393,14.0155342 C66.3454933,14.0206973 66.1108695,14.0042737 65.8792312,13.9664706 C65.6457485,13.923584 65.4164871,13.8602586 65.1940935,13.7772254 C64.7484015,13.6111516 64.3385973,13.3613436 63.9867792,13.0412719 C63.8122625,12.8834928 63.6553913,12.707233 63.518923,12.5155908 C63.380214,12.320171 63.2515475,12.1178138 63.1334236,11.9093052 Z" id="Path" fill="#000000"></path>
                <path d="M41.8433392,83.7471316 C41.2983831,84.2132355 40.7376566,84.6425418 40.2557822,85.1016366 C40.1403993,85.2103886 40.0332184,85.3275262 39.9351168,85.4520907 C39.8927314,85.5020333 39.8562748,85.5567182 39.826476,85.6150518 C39.8156261,85.6357565 39.806823,85.6574708 39.800192,85.6798858 C39.7952144,85.6988637 39.7916995,85.7181953 39.7896783,85.7377107 C39.7782037,85.8646654 39.7840989,85.9925921 39.807201,86.1179534 C39.8317328,86.2651441 39.865026,86.4228484 39.9053282,86.582305 C40.0682893,87.2253882 40.2820663,87.9017646 40.4134866,88.604425 C40.4847311,88.9591697 40.5286667,89.3188555 40.5449068,89.680319 C40.5649778,90.0455874 40.5301285,90.4117999 40.4415229,90.7667266 C40.2470209,90.0658184 39.9876849,89.447267 39.7406148,88.798927 C39.4678784,88.1440909 39.2401385,87.4714092 39.0589816,86.7855684 C39.0138382,86.598843 38.9822153,86.409106 38.964359,86.2178328 C38.936261,85.9953038 38.9499289,85.7694857 39.0046612,85.5519701 C39.0215775,85.4861201 39.0450587,85.4221337 39.074752,85.3609726 C39.1023681,85.3026352 39.1352113,85.246919 39.1728792,85.1945069 C39.2371844,85.10481 39.3099448,85.0214877 39.3901607,84.9456845 C39.5334431,84.8158681 39.6876272,84.6986178 39.8510078,84.5952305 C40.1586387,84.3984446 40.4835693,84.2301141 40.8217656,84.0923289 C41.1519113,83.9485702 41.4936622,83.83309 41.8433392,83.7471316 L41.8433392,83.7471316 Z" id="Path" fill="#000000"></path>
                <path d="M93.6527158,87.3936062 C93.6527158,87.3936062 93.3022617,96.5141732 91.9004455,98.9673517 C90.4986292,101.42053 96.5737504,96.2635986 93.6527158,87.3936062 Z" id="Path" fill="#000000"></path>
                <path d="M82.9060419,85.1839933 C82.9060419,85.1839933 86.1302193,88.4484729 86.0355967,90.2042478 C85.9409741,91.9600226 88.6289568,86.5858096 82.9060419,85.1839933 Z" id="Path" fill="#000000"></path>
                <path d="M54.0023429,77.1813747 C53.6606502,76.8519479 53.0578692,76.4804666 53.0000443,75.3117023 C52.9422194,74.142938 51.0725469,77.1813747 52.738956,77.5896537 C54.4053651,77.9979327 54.0023429,77.1813747 54.0023429,77.1813747 Z" id="Path" fill="#000000"></path>
                <path d="M47.9464967,122.76143 C47.9464967,122.76143 43.0401398,156.797529 42.4864224,163.866188 L57.8293013,141.656161 C54.0963976,135.597252 50.7939914,129.283449 47.9464967,122.76143 L47.9464967,122.76143 Z" id="Path" fill="#FFFFFF"></path>
                <path d="M80.048089,168.902212 C80.1269412,169.329766 78.8214998,167.283115 77.0324318,164.34631 C78.9353973,163.859179 80.8488765,163.349852 82.7728693,162.81833 C81.1029557,166.19145 79.9902641,168.581547 80.048089,168.902212 Z" id="Path" fill="#000000"></path>
                <path d="M82.7728693,162.814825 C80.8500447,163.347516 78.9365655,163.856842 77.0324318,164.342805 C73.3824527,158.341279 67.7208673,148.612674 67.7208673,148.612674 C67.7208673,148.612674 93.628184,138.009687 96.0130239,135.316447 C98.2857185,132.745867 87.89826,152.436128 82.7728693,162.814825 Z" id="Path" fill="#FFFFFF"></path>
                <path d="M34.2419905,171.53237 C33.5586051,174.824886 33.0960057,176.948638 32.9996308,177.171176 C32.8699628,177.470814 30.7689907,175.068452 27.7200404,171.316841 C28.0821762,171.343709 28.4478166,171.367657 28.8169616,171.388684 C30.4781138,171.484475 32.1719752,171.532954 33.8985455,171.534123 L34.2419905,171.53237 Z" id="Path" fill="#000000"></path>
                <path d="M44.0108975,122.76143 L41.8538528,134.750464 L39.6897989,146.953274 C38.9731204,151.04833 38.2091305,155.176679 37.453902,159.30678 C36.6986735,163.436881 35.8961337,167.577496 35.1058598,171.711102 L34.9726872,172.41201 L34.2560087,172.422524 C33.6865208,172.431285 33.1520784,172.422524 32.5983609,172.422524 C32.0446435,172.422524 31.4996874,172.410258 30.9494746,172.39624 C30.3992617,172.382221 29.8508011,172.362946 29.3023405,172.338415 C28.7538799,172.313883 28.203667,172.277085 27.6534541,172.243792 L27.2697069,172.217508 L27.0121232,171.902099 C24.8095194,169.20886 22.6454655,166.489336 20.4884207,163.766308 L17.2659956,159.671252 L14.0786159,155.551665 L7.73364507,147.28971 L1.46051731,138.971683 L0.773627347,138.060503 L1.83725543,137.667994 C5.39261192,136.357296 8.96373883,135.083395 12.5261044,133.812999 L17.8495016,131.915291 L23.1641375,130.059636 L33.6777595,126.390382 C37.1577683,125.180147 40.6021477,123.970497 44.0108975,122.76143 Z M44.0108975,122.76143 C40.4432752,124.166751 36.9071937,125.572072 33.402653,126.977393 L22.9801491,131.156557 L17.8074471,133.224236 L12.6715428,135.255118 C9.25111117,136.602614 5.83768858,137.944853 2.41550464,139.250294 L2.79049049,137.946605 L15.5645411,154.384653 L21.9760982,162.580021 C24.113868,165.310058 26.2603992,168.034839 28.4384712,170.726326 L27.7866266,170.386385 C28.8572638,170.461733 29.9331578,170.531824 31.0090518,170.573878 C31.5475828,170.594906 32.0855298,170.611844 32.6228927,170.624694 C33.1573352,170.635208 33.7110526,170.643969 34.2279723,170.643969 L33.3798735,171.344877 C34.2157064,167.349701 35.035769,163.359781 35.9154087,159.362853 C36.7950484,155.365924 37.6519085,151.365491 38.5630891,147.331765 L41.2878695,135.158743 C42.1932091,131.065439 43.1008852,126.933002 44.0108975,122.76143 Z" id="Shape" fill="#FFFFFF"></path>
                <path d="M79.0246618,3.82432998 C79.0246618,3.82432998 78.9003519,6.52983536 87.3690744,10.3077302 C95.8377969,14.085625 93.6246794,16.8121576 94.6935643,18.5924643 C95.7624492,20.3727709 100.798474,26.0694017 102.152979,30.7076613 C103.507484,35.3459208 103.742288,38.9433318 103.4812,44.8344646 C103.220112,50.7255974 106.198971,57.1091182 107.160968,58.4215687 C108.122964,59.7340191 108.839643,59.609608 108.839643,59.609608 C108.839643,59.609608 109.573844,51.079556 112.263579,51.2267467 C112.263579,51.2267467 110.793424,31.8413802 110.453484,31.2508651 C110.113543,30.66035 110.029434,21.3154923 109.773603,21.1455221 C109.517771,20.9755519 103.227121,13.1113627 100.514606,12.964172 C97.8020919,12.8169813 94.5691532,13.1113627 92.8712032,11.6517215 C91.1732533,10.1920803 81.4867029,4.24662713 79.0246618,3.82432998 Z" id="Path" fill="#000000"></path>
                <path d="M37.9585559,53.2471144 C37.9585559,53.2471144 36.4884011,54.8872394 35.8558315,56.1804149 C35.2232619,57.4735904 34.95166,57.9799966 34.6800581,57.2843452 C34.4084562,56.5886939 34.6905717,52.693397 35.321389,52.6653607 C35.9522063,52.6373243 37.9585559,53.2471144 37.9585559,53.2471144 Z" id="Path" fill="#000000"></path>
                <path d="M53.3066916,93.9821426 C53.3066916,93.9821426 59.5027195,98.5958704 65.3185047,97.7775601 C71.1342899,96.9592499 71.251692,95.3804543 66.8710162,95.9604558 C63.129919,96.4528437 56.3065784,94.5270987 53.3066916,93.9821426 Z" id="Path" fill="#000000"></path>
                <g id="Group" opacity="0.1" transform="translate(53.728989, 3.824330)" fill="#030103">
                    <path d="M61.2365909,70.4728078 C60.9474663,70.7128689 60.2623286,70.8320232 60.0503039,71.4610883 C57.6952526,78.4614082 55.4768784,75.49131 53.8262398,77.0823715 C54.8635838,87.5223981 57.4867325,102.858268 57.4867325,102.858268 C57.4867325,102.858268 38.4045087,126.66286 35.4501809,127.926247 C32.4958531,129.189634 29.4083528,125.762193 29.7430364,118.9371 C30.0777201,112.112007 26.6713066,115.197756 20.8064578,117.070932 C14.941609,118.944109 18.6143676,114.368932 28.2185613,110.170492 C37.8227549,105.972052 38.1714567,95.1430217 41.5358157,89.6689292 C44.9001747,84.1948367 35.7042601,78.6944602 36.0161642,72.451121 C36.3280683,66.2077819 43.799749,62.2020919 39.9114611,52.1247853 C36.0231733,42.0474787 37.2042035,31.0151847 36.7258337,24.1287623 C36.2474639,17.24234 24.6106367,15.4199788 16.2733345,14.0829966 C7.93603229,12.7460143 0,4.46653705 0,4.46653705 C22.1697241,-8.28473408 42.8482662,11.1409347 42.8482662,11.1409347 L53.4232176,34.8701794 C53.4232176,34.8701794 53.5984446,41.9703788 53.679049,49.8363202 C54.7969975,48.3942018 55.9570005,47.5671302 56.9084833,48.5729333 C59.4580366,51.2836955 61.8936923,48.8848374 62.1915783,52.874757 C62.4526666,56.3407477 61.9392513,67.4711688 61.2365909,70.4728078 Z" id="Path"></path>
                </g>
                <path d="M79.0247631,9.71896734 C79.0247631,9.71896734 72.6727832,5.1630645 61.0061674,6.2144267 C49.3395516,7.26578889 79.0247631,9.71896734 79.0247631,9.71896734 Z" id="Path" fill="#030103"></path>
                <path d="M49.3483129,79.6555804 C49.3483129,79.6555804 49.420156,80.8243447 45.6299953,82.2839859" id="Path" fill="#030103"></path>
                <path d="M45.0307189,58.2340758 C44.3648562,57.9554648 44.4752492,57.6680924 45.0307189,57.2843452 C45.5861886,56.900598 46.2573081,56.7779391 46.2029877,57.2843452 C46.1486673,57.7907514 45.0307189,58.2340758 45.0307189,58.2340758 Z" id="Path" fill="#FFFFFF"></path>
                <path d="M79.5889942,57.5962494 C79.1263948,57.6943765 78.6883272,57.1213841 79.2998696,56.6763074 C79.9114119,56.2312308 79.2893559,56.1208377 80.1567298,56.1769104 C81.0241036,56.232983 81.6146187,57.1721999 79.5889942,57.5962494 Z" id="Path" fill="#FFFFFF"></path>
                <g id="Group" opacity="0.1" transform="translate(46.719907, 114.042133)" fill="#030103">
                    <path d="M13.2436591,7.52074422 C13.2436591,7.52074422 6.37300716,8.70527896 7.01258583,15.2079541 C7.6521645,21.7106293 3.43795437,15.8405237 1.23009377,8.72455393 C-0.930455541,1.78205892 0.781512564,0.0473112987 0.781512564,0.0473112987 L13.2436591,7.52074422 Z" id="Path"></path>
                </g>
                <g id="Group" opacity="0.1" transform="translate(57.934438, 102.126695)" fill="#030103">
                    <path d="M0.0210272439,1.05136219 C0.0210272439,1.05136219 3.24345237,3.73934487 8.3250363,3.3888908 C13.4066202,3.03843674 14.3020304,0.0140181626 14.3020304,0.0140181626 C14.3020304,0.0140181626 2.75632122,1.75227032 0.0210272439,1.05136219 Z" id="Path"></path>
                </g>
                <g id="Group" opacity="0.1" transform="translate(53.203308, 76.894002)" fill="#030103">
                    <path d="M0.103383949,0 C0.103383949,0 0.408278985,5.61602638 6.76201117,5.66508995 C13.1157434,5.71415352 16.2873526,2.27269461 15.9859621,2.06417444 C15.6845717,1.85565427 4.03022174,2.93855733 0.103383949,0 Z" id="Path"></path>
                </g>
                <g id="Group" opacity="0.1" transform="translate(73.003962, 61.474024)" fill="#030103">
                    <path d="M0.059577191,0.0438067581 C0.059577191,0.0438067581 6.8846701,4.23874191 15.0502498,1.74350897" id="Path"></path>
                </g>
                <g id="Group" opacity="0.1" transform="translate(42.339232, 61.474024)" fill="#030103">
                    <path d="M9.71108213,0.0438067581 C9.71108213,0.0438067581 6.68491128,3.29602048 0.0735953535,2.53553516" id="Path"></path>
                </g>
                <g id="Group" opacity="0.1" transform="translate(51.100583, 114.217360)" fill="#030103">
                    <path d="M0.0227795142,0.112145301 C0.0227795142,0.112145301 4.20544877,7.16503335 13.2681909,7.39107622 C22.330933,7.61711909 31.4287205,2.20085152 31.8054586,1.08290306 C31.8054586,1.08290306 25.1468314,6.52720695 13.5380405,5.67209903 C5.05354761,5.03952945 0.0227795142,0.112145301 0.0227795142,0.112145301 Z" id="Path"></path>
                </g>
                <g id="Group" opacity="0.1" transform="translate(65.293973, 49.383358)" fill="#030103">
                    <path d="M23.8851968,2.59336008 C23.6574016,2.69499176 20.3368494,-0.828823862 14.2950213,0.425801688 C8.25319322,1.68042724 6.70418625,1.2633869 3.89354466,3.28200231 C1.08290306,5.30061772 -1.7715453,8.62292226 1.72072946,8.8507174 C5.21300421,9.07851254 5.26907686,10.2174882 6.42907981,9.37639849 C7.58908277,8.53530874 11.8909064,7.66618266 12.3026899,7.5575419 C12.7144735,7.44890114 16.1576846,5.55294465 16.1576846,5.55294465 L23.4558905,8.20062511 L25.3833879,5.44255162 L23.8851968,2.59336008 Z" id="Path"></path>
                </g>
                <g id="Group" opacity="0.1" transform="translate(114.357542, 74.440824)" fill="#030103">
                    <path d="M0.557221962,0.05432038 C0.467856176,0.385499471 0.38199493,0.580001477 0.280363252,0.606285531 C0.0122658923,0.679880885 0.243565575,0.385499471 0.557221962,0.05432038 Z" id="Path"></path>
                </g>
                <g id="Group" opacity="0.1" transform="translate(114.883223, 73.564689)" fill="#030103">
                    <path d="M0.0315408658,0.930455541 C0.049063569,0.86912608 0.0648340019,0.804292078 0.0823567051,0.732448995 C1.44562302,-0.397765363 0.60102872,0.32767455 0.0315408658,0.930455541 Z" id="Path"></path>
                </g>
                <path d="M31.5452465,45.7544065 C31.9430118,45.4652819 31.9430118,37.3172249 32.3810794,34.0755248 C32.819147,30.8338247 32.9067605,39.780917 31.9430118,45.4652819" id="Path" fill="#000000"></path>
                <path d="M37.2664091,22.408909 C36.8633869,22.7470972 39.0957793,14.280127 43.0489011,12.964172 C47.002023,11.648217 47.7958014,11.2119017 47.7958014,11.2119017 C47.7958014,11.2119017 41.9642458,18.4663008 37.2664091,22.408909 Z" id="Path" fill="#030103"></path>
            </g>
        </g>
    </g>
</svg>