<?xml version="1.0" encoding="UTF-8"?>
<svg width="497px" height="496px" viewBox="0 0 497 496" version="1.1" xmlns="http://www.w3.org/2000/svg" xmlns:xlink="http://www.w3.org/1999/xlink">
    <!-- Generator: sketchtool 59.1 (101010) - https://sketch.com -->
    <title>B537826F-E269-4D61-A8ED-00F95CC30E64</title>
    <desc>Created with sketchtool.</desc>
    <g id="Website" stroke="none" stroke-width="1" fill="none" fill-rule="evenodd">
        <g id="AlpineTEC" transform="translate(-103.000000, -3310.000000)">
            <g id="Group-2" transform="translate(103.000000, 3310.000000)">
                <polygon id="Triangle-Copy-23" fill="#3ACC40" points="248.531049 0 496.531049 496 0.531049251 496"></polygon>
                <polygon id="Triangle-Copy-22" fill="#DFF01E" points="352.531049 208 496.531049 496 208.531049 496"></polygon>
                <polygon id="Triangle" fill="#3C5EFB" points="145.531049 208 289.531049 496 1.53104925 496"></polygon>
                <path d="M249.031049,415 L289.531049,496 L208.531049,496 L249.031049,415 Z" id="Combined-Shape" fill="#3ACC40" style="mix-blend-mode: multiply;" opacity="0.449999988"></path>
                <g id="Group-25" transform="translate(309.531049, 340.000000)" fill="#3C5EFB">
                    <path d="M39.4166667,35.8333333 C39.4166667,39.1329622 36.7440733,41.8055556 33.4444444,41.8055556 C30.1448156,41.8055556 27.4722222,39.1329622 27.4722222,35.8333333 C27.4722222,32.5337044 30.1448156,29.8611111 33.4444444,29.8611111 C36.7440733,29.8611111 39.4166667,32.5337044 39.4166667,35.8333333" id="Fill-1"></path>
                    <path d="M65.6944444,43.5972222 C65.6944444,49.1712963 57.3333333,49.1712963 57.3333333,43.5972222 C57.3333333,38.0231481 65.6944444,38.0231481 65.6944444,43.5972222" id="Fill-2"></path>
                    <path d="M62.0690645,25.9098893 C62.0690645,21.9370029 58.8861111,18.7126313 54.9642578,18.7126313 C54.4669168,18.7126313 53.9695394,18.7702094 53.5006448,18.8709756 C53.5148499,18.5830853 53.5432691,18.295195 53.5432691,17.9929147 C53.5432691,8.06092898 45.5858856,0 35.7814796,0 C25.9770737,0 18.0196902,8.06092898 18.0196902,17.9929147 C18.0196902,19.2452607 18.1475721,20.4687715 18.3891401,21.6491679 C9.46550284,22.1961595 2.38888889,29.6813539 2.38888889,38.8654697 C2.38888889,48.4086883 10.0194277,56.1388889 19.4404242,56.1388889 L69.174526,56.1388889 C77.813971,56.1388889 84.8055556,49.056787 84.8055556,40.3044606 C84.8055556,31.5521343 77.8144257,24.4700324 69.174526,24.4700324 C66.6026087,24.4700324 64.1727421,25.117781 62.0412546,26.2261173 C62.0412546,26.1253511 62.0696738,26.024594 62.0696738,25.9094379 L62.0690645,25.9098893 Z M35.7815069,5.75756689 C37.1633634,5.75756689 38.5168462,5.9950741 39.8099437,6.45569861 L38.8614236,9.16905337 C37.8738896,8.81639003 36.8365196,8.63646088 35.7815069,8.63646088 L35.7815069,5.75756689 Z M31.7530701,6.45569861 L32.705137,9.16905337 C29.0212776,10.4933488 26.5453036,14.0380387 26.5453036,17.9928687 L23.7033809,17.9928687 C23.7033809,12.8216215 26.9396261,8.18617278 31.7531611,6.45606711 L31.7530701,6.45569861 Z M49.1529124,37.8140942 L45.9983327,39.1240182 C45.7567738,39.9876892 45.4157431,40.8226171 44.9894274,41.5998749 L46.2967118,44.78104 C45.5578119,45.7454956 44.7052351,46.6091665 43.7531683,47.3576814 L40.6128665,46.0333859 C39.8455473,46.4652214 39.0213897,46.8106898 38.1688129,47.0554196 L36.8757154,50.2510482 C36.2789116,50.3230254 35.6821078,50.3805942 35.0710717,50.3805942 C34.4600356,50.3805942 33.8632773,50.3230162 33.2664281,50.2510482 L31.9733305,47.0554196 C31.1207537,46.8107174 30.2965507,46.465249 29.529277,46.0333859 L26.3889752,47.3576814 C25.4369083,46.6091665 24.5843315,45.7454956 23.8454316,44.78104 L25.1527161,41.5998749 C24.7264276,40.8225711 24.3853969,39.9876892 24.1438108,39.1240182 L20.9892311,37.8140942 C20.9181785,37.2095245 20.8613491,36.6049549 20.8613491,35.9859676 C20.8613491,35.3669804 20.9181876,34.7624568 20.9892311,34.1578411 L24.1438108,32.8479171 C24.3853696,31.9842461 24.7264004,31.1493181 25.1527161,30.3720603 L23.8454316,27.1908953 C24.5843315,26.2264397 25.4369083,25.3627687 26.3889752,24.6142539 L29.529277,25.9385494 C30.2965961,25.5067139 31.1207537,25.1612455 31.9733305,24.9165157 L33.2664281,21.7208871 C33.8632318,21.6489191 34.4600356,21.5913411 35.0710717,21.5913411 C35.6821078,21.5913411 36.2788661,21.6489191 36.8757154,21.7208871 L38.1688129,24.9165157 C39.0213897,25.1612179 39.8455928,25.5066863 40.6128665,25.9385494 L43.7531683,24.6142539 C44.7052351,25.3627687 45.5578119,26.2264397 46.2967118,27.1908953 L44.9894274,30.3720603 C45.4157158,31.1493642 45.7567465,31.9842461 45.9983327,32.8479171 L49.1529124,34.1578411 C49.2239559,34.7624107 49.2807943,35.3669804 49.2807943,35.9859676 C49.2807943,36.6049549 49.2239559,37.2094785 49.1529124,37.8140942 Z M63.4907534,34.546516 L63.4907534,36.1299589 C63.7713898,36.1875369 64.0342745,36.291896 64.3042526,36.3854581 L65.1035468,34.9820273 L67.5653339,36.4214789 L66.7660397,37.8213168 C66.9756327,38.012043 67.1745673,38.2099641 67.3628435,38.4258865 L68.7447,37.6161915 L70.1656613,40.1100126 L68.7802581,40.9197076 C68.8690625,41.193208 68.9720902,41.4595042 69.0324754,41.7437925 L70.5955783,41.7437925 L70.5955783,44.6226957 L69.0324754,44.6226957 C68.9756369,44.9069839 68.8726183,45.1732894 68.7802581,45.4467806 L70.1656613,46.2564756 L68.7447,48.7502967 L67.3628435,47.9406017 C67.1745673,48.1529219 66.9791885,48.3544452 66.7660397,48.5451714 L67.5653339,49.9450093 L65.1035468,51.3844609 L64.3042526,49.9810301 C64.0342654,50.0709993 63.7713898,50.1753584 63.4907534,50.2365293 L63.4907534,51.8199721 L60.6488307,51.8199721 L60.6488307,50.2365293 C60.3681942,50.1789512 60.1053096,50.0745921 59.8353315,49.9810301 L59.0360373,51.3844609 L56.5742502,49.9450093 L57.3735443,48.5451714 C57.1639514,48.3544452 56.9650168,48.156524 56.7767406,47.9406017 L55.3948841,48.7502967 L53.9739227,46.2564756 L55.3593259,45.4467806 C55.2705125,45.1732802 55.1674939,44.9069839 55.1071087,44.6226957 L53.5440058,44.6226957 L53.5440058,41.7437925 L55.1071087,41.7437925 C55.1639472,41.4595042 55.2669657,41.1931988 55.3593259,40.9197076 L53.9739227,40.1100126 L55.3948841,37.6161915 L56.7767406,38.4258865 C56.9650168,38.2135662 57.1603956,38.012043 57.3735443,37.8213168 L56.5742502,36.4214789 L59.0360373,34.9820273 L59.8353315,36.3854581 C60.1053187,36.2954981 60.3681942,36.1911298 60.6488307,36.1299589 L60.6488307,34.546516 L63.4907534,34.546516 Z" id="Fill-3"></path>
                    <polygon id="Fill-4" points="15.5277778 65.6944444 20.3055556 65.6944444 20.3055556 69.2777778 15.5277778 69.2777778"></polygon>
                    <polygon id="Fill-5" points="35.4351852 71.3255216 29.8611111 71.3255216 29.8611111 74.0555556 38.2222222 74.0555556 38.2222222 64.5 35.4351852 64.5"></polygon>
                    <polygon id="Fill-6" points="22.6944444 70.4722222 27.4722222 70.4722222 27.4722222 74.0555556 22.6944444 74.0555556"></polygon>
                    <polygon id="Fill-7" points="15.5277778 70.4722222 20.3055556 70.4722222 20.3055556 74.0555556 15.5277778 74.0555556"></polygon>
                    <polygon id="Fill-8" points="25.0833333 77.6388889 37.0277778 77.6388889 37.0277778 81.2222222 25.0833333 81.2222222"></polygon>
                    <polygon id="Fill-9" points="17.9166667 82.4166667 21.5 82.4166667 21.5 86 17.9166667 86"></polygon>
                    <polygon id="Fill-10" points="25.0833333 82.4166667 28.6666667 82.4166667 28.6666667 86 25.0833333 86"></polygon>
                    <polygon id="Fill-11" points="29.8611111 82.4166667 33.4444444 82.4166667 33.4444444 86 29.8611111 86"></polygon>
                    <polygon id="Fill-12" points="48.4944444 83.212963 37.0277778 83.212963 37.0277778 86 51.3611111 86 51.3611111 77.6388889 48.4944444 77.6388889"></polygon>
                    <polygon id="Fill-13" points="46.5833333 68.0833333 50.1666667 68.0833333 50.1666667 75.25 46.5833333 75.25"></polygon>
                    <path d="M86,67.4861111 C86,65.1868279 84.0649771,63.3055556 81.7,63.3055556 C79.8402901,63.3055556 78.26,64.4761111 77.6652011,66.0925926 L71.6666667,66.0925926 L71.6666667,68.8796296 L77.6652011,68.8796296 C78.2600367,70.4961111 79.8402901,71.6666667 81.7,71.6666667 C84.0649771,71.6666667 86,69.7853944 86,67.4861111 Z" id="Fill-14"></path>
                    <path d="M8.95833333,74.0555556 C6.65905007,74.0555556 4.77777778,75.9368279 4.77777778,78.2361111 C4.77777778,80.5353944 6.65905007,82.4166667 8.95833333,82.4166667 C10.7663846,82.4166667 12.3027778,81.2461111 12.8810545,79.6296296 L21.5,79.6296296 L21.5,76.8425926 L12.8810545,76.8425926 C12.3027421,75.2261111 10.7663846,74.0555556 8.95833333,74.0555556 Z" id="Fill-15"></path>
                    <path d="M4.37962963,71.6666667 C6.27377857,71.6666667 7.88333333,70.4961111 8.48914706,68.8796296 L13.1388889,68.8796296 L13.1388889,66.0925926 L8.48914706,66.0925926 C7.88329596,64.4761111 6.27377857,63.3055556 4.37962963,63.3055556 C1.97085669,63.3055556 0,65.1868279 0,67.4861111 C0,69.7853944 1.97085669,71.6666667 4.37962963,71.6666667 Z" id="Fill-16"></path>
                    <polygon id="Fill-17" points="64.5 70.4722222 69.2777778 70.4722222 69.2777778 74.0555556 64.5 74.0555556"></polygon>
                    <polygon id="Fill-18" points="71.6666667 70.4722222 76.4444444 70.4722222 76.4444444 74.0555556 71.6666667 74.0555556"></polygon>
                    <polygon id="Fill-19" points="35.8333333 57.3333333 39.4166667 57.3333333 39.4166667 60.9166667 35.8333333 60.9166667"></polygon>
                    <polygon id="Fill-20" points="30.7139737 66.5477438 23.8888889 66.5477438 23.8888889 69.2777778 33.4444444 69.2777778 33.4444444 59.7222222 30.7144105 59.7222222"></polygon>
                    <polygon id="Fill-21" points="41.8055556 75.9667278 39.4166667 75.9667278 39.4166667 78.8333333 44.1944444 78.8333333 44.1944444 57.3333333 41.8055556 57.3333333"></polygon>
                    <polygon id="Fill-22" points="59.7222222 59.7222222 59.7222222 69.2777778 69.2777778 69.2777778 69.2777778 66.5477438 62.452693 66.5477438 62.452693 59.722659"></polygon>
                    <polygon id="Fill-23" points="46.5833333 59.7222222 50.1666667 59.7222222 50.1666667 64.5 46.5833333 64.5"></polygon>
                    <polygon id="Fill-24" points="52.5555556 57.3333333 52.5555556 74.0555556 60.9166667 74.0555556 60.9166667 71.01524 55.3425926 71.01524 55.3425926 57.3343062"></polygon>
                </g>
                <g id="Group-6" transform="translate(83.531049, 363.000000)" fill="#2CC84D">
                    <path d="M49.597561,28.0093478 L54.807673,28.0093478 C54.8122485,27.2433891 54.6488515,26.4633696 54.2940437,25.725413 C45.8628168,8.24378261 36.8201656,-0.0600217391 26.652068,0.30823913 C10.8119217,0.892052174 1.45650707,23.497913 0.443043659,26.0757391 C-0.612021951,28.7566304 0.704476585,31.7784022 3.38411927,32.8339239 C4.0096939,33.0861348 4.65393634,33.2028902 5.29356561,33.2028902 C7.3710461,33.2028902 9.33642415,31.9464989 10.1440876,29.8961946 C12.5622973,23.754488 19.8730973,10.9905424 27.0443071,10.723912 C32.399051,10.5184033 38.7434754,17.4587815 44.9101851,30.2560859 C45.8065266,32.1149663 47.6645827,33.1938033 49.5973339,33.1984663 L49.597561,28.0093478 Z" id="Fill-1"></path>
                    <polygon id="Fill-2" points="55.3867317 34.3845652 64.4155195 34.3845652 64.4155195 43.4126957 55.3867317 43.4126957"></polygon>
                    <polygon id="Fill-3" points="66.973439 45.6775 66.973439 54.7056304 76.0022268 54.7056304 76.0022268 45.6775"></polygon>
                    <polygon id="Fill-4" points="80.507 37.121413 89.5311268 37.121413 89.5311268 46.1495435 80.507 46.1495435"></polygon>
                    <polygon id="Fill-5" points="97.921122 23.6607609 88.8923341 23.6607609 88.8923341 32.6935543 97.921122 32.6935543 97.921122 23.9316957"></polygon>
                </g>
                <path d="M272.531049,195.332227 C272.531049,180.849976 260.830521,169 246.53101,169 C232.2315,169 220.531049,180.849976 220.531049,195.332227 C220.531049,204.876988 226.542741,211.956163 229.144921,214.588438 C233.045071,218.53843 234.669094,221.337394 235.156612,224.957167 L233.53259,224.957167 L233.53259,228.24988 L235.156612,228.24988 L235.156612,231.542594 L233.53259,231.542594 L233.53259,234.835307 L235.156612,234.835307 L235.156612,238.128021 C235.156612,238.951989 235.482641,239.772797 236.13165,240.433237 C236.780658,241.087451 237.594206,241.417655 238.404735,241.417655 L240.028758,241.417655 L240.028758,244.710368 C240.028758,245.534336 240.354787,246.355145 241.003795,247.015583 C241.655854,247.669796 242.469394,248 243.279923,248 L249.779133,248 C250.592705,248 251.403156,247.669804 252.055261,247.012502 C252.707319,246.3552 253.030298,245.531255 253.030298,244.707287 L253.030298,241.414573 L254.654321,241.414573 C255.467892,241.414573 256.278344,241.084377 256.930449,240.427075 C257.582507,239.769772 257.905486,238.948908 257.905486,238.12494 L257.905486,234.832226 L259.529509,234.832226 L259.529509,231.539513 L257.905486,231.539513 L257.905486,228.246799 L259.529509,228.246799 L259.529509,224.954086 L257.905486,224.954086 C258.231515,221.334313 259.855561,218.698879 263.917178,214.585357 C266.51928,211.956163 272.531049,204.880227 272.531049,195.332306 L272.531049,195.332227 Z M248.894686,244.409091 L242.985595,244.409091 L242.985595,240.818182 L248.894686,240.818182 L248.894686,244.409091 Z M254.171408,225.254479 L247.588347,225.254479 L247.588347,212.748185 L253.183791,207.153846 L255.816383,207.153846 L255.816383,203.861385 L251.865914,203.861385 L247.585186,208.141268 L247.585186,204.521773 L254.828766,197.279624 L259.109494,197.279624 L259.109494,193.987163 L253.51405,193.987163 L247.585265,199.911696 L247.585265,196.292201 L255.816462,188.06263 L255.816462,184.112941 L252.523351,184.112941 L252.523351,186.745014 L247.585265,191.682125 L247.585265,182.468291 L244.292155,182.468291 L244.292155,193.329935 L239.354069,188.392824 L239.357158,185.757671 L236.064047,185.757671 L236.064047,189.707359 L244.295244,197.936931 L244.295244,201.556426 L240.014516,197.279624 L234.419072,197.279624 L234.419072,200.572084 L238.6998,200.572084 L244.295244,206.166423 L244.295244,219.66014 L241.002133,216.367679 L241.002133,212.090877 L237.709022,212.090877 L237.709022,217.685217 L244.292084,224.266978 L244.295165,225.2544 L241.002054,225.2544 L241.002054,228.546861 L254.171337,228.546861 L254.171337,231.839321 L241.002054,231.839321 L241.002054,235.131782 L254.171337,235.131782 L254.171337,238.424242 L237.708943,238.421162 L237.708943,226.902289 C237.708943,221.471467 235.897258,217.851973 230.632074,212.584668 C228.32658,210.279629 222.894686,203.861385 222.894686,195.631813 C222.894686,182.958842 233.264666,172.590909 245.94014,172.590909 C258.615614,172.590909 268.985595,182.958842 268.985595,195.631813 C268.985595,203.861385 263.5537,210.279629 261.248207,212.581508 C256.64038,217.191506 254.665145,220.811079 254.171337,225.254479 L254.171408,225.254479 Z M244.167413,174.984848 L247.712867,174.984848 L247.712867,178.575758 L244.167413,178.575758 L244.167413,174.984848 Z M259.531049,203.712121 L263.076504,203.712121 L263.076504,207.30303 L259.531049,207.30303 L259.531049,203.712121 Z M227.621958,196.530303 L231.167413,196.530303 L231.167413,200.121212 L227.621958,200.121212 L227.621958,196.530303 Z M265.44014,194.136364 L265.44014,197.727273 L261.894686,197.727273 L261.894686,194.136364 L265.44014,194.136364 Z M251.258322,177.378788 L254.803777,177.378788 L254.803777,180.969697 L251.258322,180.969697 L251.258322,177.378788 Z M235.894686,178.575758 L239.44014,178.575758 L239.44014,182.166667 L235.894686,182.166667 L235.894686,178.575758 Z M241.803777,208.5 L238.258322,208.5 L238.258322,204.909091 L241.803777,204.909091 L241.803777,208.5 Z" id="Fill-1" fill="#DFF01E"></path>
            </g>
        </g>
    </g>
</svg>